<?xml version="1.0" encoding="UTF-8" standalone="no"?>
<svg
   xmlns:dc="http://purl.org/dc/elements/1.1/"
   xmlns:cc="http://creativecommons.org/ns#"
   xmlns:rdf="http://www.w3.org/1999/02/22-rdf-syntax-ns#"
   xmlns:svg="http://www.w3.org/2000/svg"
   xmlns="http://www.w3.org/2000/svg"
   xmlns:sodipodi="http://sodipodi.sourceforge.net/DTD/sodipodi-0.dtd"
   xmlns:inkscape="http://www.inkscape.org/namespaces/inkscape"
   width="402pt"
   height="152pt"
   viewBox="0 0 402 152"
   version="1.1"
   id="svg223"
   sodipodi:docname="example1b_cmdp.svg"
   inkscape:version="0.92.1 r15371">
  <metadata
     id="metadata227">
    <rdf:RDF>
      <cc:Work
         rdf:about="">
        <dc:format>image/svg+xml</dc:format>
        <dc:type
           rdf:resource="http://purl.org/dc/dcmitype/StillImage" />
        <dc:title></dc:title>
      </cc:Work>
    </rdf:RDF>
  </metadata>
  <sodipodi:namedview
     pagecolor="#ffffff"
     bordercolor="#666666"
     borderopacity="1"
     objecttolerance="10"
     gridtolerance="10"
     guidetolerance="10"
     inkscape:pageopacity="0"
     inkscape:pageshadow="2"
     inkscape:window-width="3840"
     inkscape:window-height="2043"
     id="namedview225"
     showgrid="false"
     inkscape:zoom="4.6578947"
     inkscape:cx="241.18749"
     inkscape:cy="85.651204"
     inkscape:window-x="2147"
     inkscape:window-y="-13"
     inkscape:window-maximized="1"
     inkscape:current-layer="svg223" />
  <defs
     id="defs38">
    <clipPath
       id="clip1">
      <path
         d="M 90 81 L 108 81 L 108 99 L 90 99 Z M 90 81 "
         id="path2" />
    </clipPath>
    <clipPath
       id="clip2">
      <path
         d="M 158 67 L 176 67 L 176 85 L 158 85 Z M 158 67 "
         id="path5" />
    </clipPath>
    <clipPath
       id="clip3">
      <path
         d="M 158 108 L 176 108 L 176 126 L 158 126 Z M 158 108 "
         id="path8" />
    </clipPath>
    <clipPath
       id="clip4">
      <path
         d="M 226 22 L 244 22 L 244 40 L 226 40 Z M 226 22 "
         id="path11" />
    </clipPath>
    <clipPath
       id="clip5">
      <path
         d="M 226 67 L 244 67 L 244 85 L 226 85 Z M 226 67 "
         id="path14" />
    </clipPath>
    <clipPath
       id="clip6">
      <path
         d="M 380 121 L 398 121 L 398 139 L 380 139 Z M 380 121 "
         id="path17" />
    </clipPath>
    <clipPath
       id="clip7">
      <path
         d="M 380 67 L 398 67 L 398 85 L 380 85 Z M 380 67 "
         id="path20" />
    </clipPath>
    <clipPath
       id="clip8">
      <path
         d="M 380 13 L 398 13 L 398 31 L 380 31 Z M 380 13 "
         id="path23" />
    </clipPath>
    <clipPath
       id="clip9">
      <path
         d="M 4 72 L 40 72 L 40 108 L 4 108 Z M 4 72 "
         id="path26" />
    </clipPath>
    <clipPath
       id="clip10">
      <path
         d="M 294 4 L 330 4 L 330 40 L 294 40 Z M 294 4 "
         id="path29" />
    </clipPath>
    <clipPath
       id="clip11">
      <path
         d="M 294 58 L 330 58 L 330 94 L 294 94 Z M 294 58 "
         id="path32" />
    </clipPath>
    <clipPath
       id="clip12">
      <path
         d="M 294 112 L 330 112 L 330 148 L 294 148 Z M 294 112 "
         id="path35" />
    </clipPath>
  </defs>
  <g
     id="surface5">
    <rect
       x="0"
       y="1.5"
       width="402"
       height="152"
       style="fill:#ffffff;fill-opacity:1;stroke:none"
       id="rect40" />
    <path
       style="fill:none;stroke-width:1;stroke-linecap:butt;stroke-linejoin:miter;stroke:rgb(0%,0%,0%);stroke-opacity:1;stroke-miterlimit:4;"
       d="M 104.09375 -59.714844 C 114.78125 -61.984375 133.800781 -66.019531 147.117188 -68.84375 "
       transform="matrix(1,0,0,1,4,148)"
       id="path42" />
    <path
       style="fill:none;stroke-width:1;stroke-linecap:butt;stroke-linejoin:miter;stroke:rgb(0%,0%,0%);stroke-opacity:1;stroke-miterlimit:4;"
       d="M 147.011719 -71.144531 L 153.839844 -70.269531 L 147.953125 -66.695313 Z M 147.011719 -71.144531 "
       transform="matrix(1,0,0,1,4,148)"
       id="path44" />
    <path
       style="fill:#000000;fill-opacity:1;fill-rule:nonzero;stroke:none"
       d="m 122.58594,76.386719 c -0.004,0.46875 -0.0352,0.886719 -0.10156,1.25 -0.125,0.632812 -0.29688,1.160156 -0.51563,1.582031 -0.21875,0.425781 -0.48047,0.78125 -0.77734,1.070313 -0.22266,0.214843 -0.45313,0.367187 -0.69922,0.464843 -0.2461,0.09375 -0.4961,0.144532 -0.75,0.148438 -0.45313,-0.0039 -0.88281,-0.152344 -1.28125,-0.449219 -0.40625,-0.296875 -0.75781,-0.792969 -1.0586,-1.488281 -0.30078,-0.691406 -0.44921,-1.507813 -0.44921,-2.449219 0,-0.734375 0.0898,-1.4375 0.27343,-2.113281 0.17969,-0.671875 0.41797,-1.195313 0.71875,-1.566406 0.29688,-0.371094 0.59375,-0.636719 0.89063,-0.804688 0.28906,-0.160156 0.60937,-0.242187 0.96094,-0.246094 0.48437,0.0039 0.95703,0.195313 1.41796,0.574219 0.45313,0.386719 0.82032,0.980469 1.09766,1.785156 0.17969,0.542969 0.26953,1.289063 0.27344,2.242188 z m -1.02344,-0.226563 c -0.008,-1.117187 -0.0508,-1.878906 -0.125,-2.28125 -0.13281,-0.660156 -0.33984,-1.121093 -0.625,-1.386718 -0.29297,-0.261719 -0.62891,-0.394532 -1.01172,-0.398438 -0.32422,0.0039 -0.63281,0.109375 -0.91797,0.316406 -0.29297,0.210938 -0.49218,0.539063 -0.59765,0.980469 -0.1875,0.730469 -0.27735,1.828125 -0.27735,3.296875 0,1.460938 0.14063,2.480469 0.42969,3.058594 0.28516,0.582031 0.71875,0.871094 1.30078,0.871094 0.39063,0 0.73438,-0.121094 1.02735,-0.367188 0.28515,-0.246094 0.49218,-0.703125 0.62109,-1.371094 0.12109,-0.667968 0.17969,-1.417968 0.17969,-2.246093 z m 2.28125,3.984375 c 0,-0.199218 0.0742,-0.375 0.22266,-0.523437 0.14843,-0.148438 0.32031,-0.222656 0.51953,-0.226563 0.1914,0.0039 0.35547,0.07422 0.48828,0.210938 0.13281,0.144531 0.19922,0.320312 0.19922,0.53125 0,0.21875 -0.0703,0.402344 -0.21094,0.542969 -0.14062,0.148437 -0.30859,0.21875 -0.50391,0.21875 -0.19531,0 -0.36328,-0.07422 -0.5039,-0.222657 -0.14063,-0.148437 -0.21094,-0.324218 -0.21094,-0.53125 z M 131.46094,71.75 c 0.0352,0.07422 0.0664,0.148438 0.0859,0.226563 -0.0273,0.05078 -0.0703,0.08594 -0.1289,0.101562 -0.19141,0.05469 -0.47656,0.1875 -0.84766,0.398438 -0.0898,0.04687 -0.35156,0.257812 -0.78906,0.632812 -0.19922,0.140625 -0.4375,0.394531 -0.71094,0.765625 -0.38281,0.503906 -0.65234,0.953125 -0.8125,1.34375 -0.16797,0.398438 -0.3125,0.914063 -0.4375,1.546875 -0.0391,0.1875 -0.0664,0.507813 -0.0742,0.960938 l -0.0195,0.253906 c 0,0.585937 0.17188,1.167969 0.51563,1.746094 0.34375,0.582031 0.76953,0.875 1.28515,0.871093 0.26563,0.0039 0.51953,-0.07813 0.75391,-0.246093 0.23437,-0.160157 0.41797,-0.4375 0.55469,-0.832032 0.13672,-0.390625 0.20703,-0.867187 0.20703,-1.421875 0,-0.753906 -0.14453,-1.3125 -0.4336,-1.675781 -0.28906,-0.359375 -0.63671,-0.539062 -1.03906,-0.542969 -0.125,0.0039 -0.23437,0.02344 -0.32812,0.05469 l -0.0547,0.01563 c -0.0625,0.0039 -0.12109,-0.0625 -0.18359,-0.199219 0.11718,-0.07422 0.25781,-0.136719 0.42968,-0.191406 0.16407,-0.04687 0.27344,-0.07422 0.32813,-0.07422 0.0273,0 0.23437,0.03516 0.62109,0.101563 l 0.19922,0.09375 c 0.21094,0.07422 0.37891,0.15625 0.49609,0.242187 0.20704,0.171875 0.39063,0.382813 0.5586,0.632813 0.0781,0.136718 0.1875,0.402343 0.32812,0.804687 0.008,0.03125 0.043,0.234375 0.0977,0.601563 l -0.0352,0.683593 c -0.0977,0.410157 -0.1914,0.695313 -0.27343,0.859375 -0.13282,0.25 -0.34375,0.523438 -0.64063,0.820313 -0.15625,0.152344 -0.35937,0.277344 -0.60156,0.367187 -0.35156,0.132813 -0.71875,0.195313 -1.10156,0.199219 -0.74219,-0.0039 -1.36719,-0.296875 -1.875,-0.882812 -0.51563,-0.589844 -0.76953,-1.445313 -0.76563,-2.566407 -0.004,-0.625 0.0898,-1.214843 0.28516,-1.773437 0.1875,-0.554688 0.46094,-1.066406 0.8125,-1.53125 0.23437,-0.3125 0.55468,-0.648438 0.96484,-1.011719 0.40625,-0.355469 0.79297,-0.636719 1.16016,-0.839844 0.49218,-0.265625 0.98047,-0.441406 1.46875,-0.535156 z m 1.1875,8.949219"
       id="path46"
       inkscape:connector-curvature="0" />
    <path
       style="fill:none;stroke-width:1;stroke-linecap:butt;stroke-linejoin:miter;stroke:rgb(0%,0%,0%);stroke-opacity:1;stroke-miterlimit:4;"
       d="M 104.09375 -54.6875 C 114.878906 -50.277344 134.15625 -42.390625 147.488281 -36.9375 "
       transform="matrix(1,0,0,1,4,148)"
       id="path48" />
    <path
       style="fill:none;stroke-width:1;stroke-linecap:butt;stroke-linejoin:miter;stroke:rgb(0%,0%,0%);stroke-opacity:1;stroke-miterlimit:4;"
       d="M 148.6875 -38.90625 L 153.839844 -34.335938 L 146.964844 -34.695313 Z M 148.6875 -38.90625 "
       transform="matrix(1,0,0,1,4,148)"
       id="path50" />
    <path
       style=" stroke:none;fill-rule:nonzero;fill:rgb(0%,0%,0%);fill-opacity:1;"
       d="M 122.265625 110.34375 C 122.261719 110.8125 122.230469 111.230469 122.164063 111.59375 C 122.039063 112.226563 121.867188 112.753906 121.648438 113.175781 C 121.429688 113.601563 121.167969 113.957031 120.871094 114.246094 C 120.648438 114.460938 120.417969 114.613281 120.171875 114.710938 C 119.925781 114.804688 119.675781 114.855469 119.421875 114.859375 C 118.96875 114.855469 118.539063 114.707031 118.140625 114.410156 C 117.734375 114.113281 117.382813 113.617188 117.082031 112.921875 C 116.78125 112.230469 116.632813 111.414063 116.632813 110.472656 C 116.632813 109.738281 116.722656 109.035156 116.90625 108.359375 C 117.085938 107.6875 117.324219 107.164063 117.625 106.792969 C 117.921875 106.421875 118.21875 106.15625 118.515625 105.988281 C 118.804688 105.828125 119.125 105.746094 119.476563 105.742188 C 119.960938 105.746094 120.433594 105.9375 120.894531 106.316406 C 121.347656 106.703125 121.714844 107.296875 121.992188 108.101563 C 122.171875 108.644531 122.261719 109.390625 122.265625 110.34375 Z M 121.242188 110.117188 C 121.234375 109 121.191406 108.238281 121.117188 107.835938 C 120.984375 107.175781 120.777344 106.714844 120.492188 106.449219 C 120.199219 106.1875 119.863281 106.054688 119.480469 106.050781 C 119.15625 106.054688 118.847656 106.160156 118.5625 106.367188 C 118.269531 106.578125 118.070313 106.90625 117.964844 107.347656 C 117.777344 108.078125 117.6875 109.175781 117.6875 110.644531 C 117.6875 112.105469 117.828125 113.125 118.117188 113.703125 C 118.402344 114.285156 118.835938 114.574219 119.417969 114.574219 C 119.808594 114.574219 120.152344 114.453125 120.445313 114.207031 C 120.730469 113.960938 120.9375 113.503906 121.066406 112.835938 C 121.1875 112.167969 121.246094 111.417969 121.246094 110.589844 Z M 123.523438 114.101563 C 123.523438 113.902344 123.597656 113.726563 123.746094 113.578125 C 123.894531 113.429688 124.066406 113.355469 124.265625 113.351563 C 124.457031 113.355469 124.621094 113.425781 124.753906 113.5625 C 124.886719 113.707031 124.953125 113.882813 124.953125 114.09375 C 124.953125 114.3125 124.882813 114.496094 124.742188 114.636719 C 124.601563 114.785156 124.433594 114.855469 124.238281 114.855469 C 124.042969 114.855469 123.875 114.78125 123.734375 114.632813 C 123.59375 114.484375 123.523438 114.308594 123.523438 114.101563 Z M 130.355469 105.742188 L 130.675781 105.742188 C 130.667969 105.886719 130.664063 105.96875 130.667969 105.996094 L 130.679688 107 L 130.644531 107.902344 L 130.671875 108.90625 L 130.671875 109.699219 L 130.679688 110.78125 C 130.675781 110.953125 130.675781 111.207031 130.675781 111.546875 L 130.816406 111.554688 L 131.300781 111.554688 L 131.761719 111.558594 L 132.144531 111.546875 C 132.148438 111.691406 132.152344 111.796875 132.15625 111.859375 C 132.152344 111.929688 132.148438 112.035156 132.144531 112.175781 C 131.859375 112.191406 131.707031 112.195313 131.6875 112.195313 L 131.347656 112.1875 L 131.074219 112.1875 C 131 112.191406 130.867188 112.1875 130.675781 112.175781 C 130.664063 112.824219 130.664063 113.679688 130.675781 114.75 C 130.644531 114.777344 130.613281 114.792969 130.582031 114.804688 L 130.15625 114.820313 C 130.0625 114.820313 129.925781 114.8125 129.738281 114.804688 C 129.746094 114.265625 129.75 113.886719 129.75 113.652344 C 129.75 113.449219 129.746094 113.261719 129.738281 113.089844 C 129.722656 112.785156 129.714844 112.605469 129.71875 112.558594 C 129.714844 112.476563 129.722656 112.351563 129.738281 112.175781 C 129.542969 112.203125 129.394531 112.214844 129.292969 112.210938 C 129.238281 112.214844 129.175781 112.210938 129.105469 112.203125 C 128.644531 112.183594 128.382813 112.171875 128.328125 112.167969 C 128.265625 112.171875 128.121094 112.1875 127.886719 112.214844 L 127.183594 112.175781 L 126.804688 112.195313 L 126.542969 112.15625 L 126.214844 112.222656 L 126.15625 112.175781 C 126.144531 112.082031 126.140625 112.007813 126.140625 111.953125 C 126.140625 111.90625 126.144531 111.832031 126.15625 111.730469 C 126.28125 111.566406 126.515625 111.222656 126.859375 110.703125 L 128.195313 108.765625 C 128.519531 108.28125 128.792969 107.894531 129.019531 107.605469 C 129.238281 107.320313 129.460938 107.007813 129.683594 106.675781 C 129.898438 106.347656 130.121094 106.039063 130.355469 105.742188 Z M 129.738281 111.554688 L 129.742188 110.433594 L 129.738281 109.542969 L 129.738281 107.257813 C 129.363281 107.75 128.84375 108.492188 128.179688 109.488281 C 127.417969 110.625 126.964844 111.3125 126.828125 111.546875 C 127.023438 111.539063 127.175781 111.535156 127.277344 111.53125 L 129.148438 111.566406 C 129.28125 111.570313 129.480469 111.566406 129.738281 111.554688 Z M 132.328125 114.65625 "
       id="path52" />
    <path
       style="fill:none;stroke-width:1;stroke-linecap:butt;stroke-linejoin:miter;stroke:rgb(0%,0%,0%);stroke-opacity:1;stroke-miterlimit:4;"
       d="M 172.09375 -77.519531 C 183.078125 -85.007813 202.863281 -98.5 216.214844 -107.601563 "
       transform="matrix(1,0,0,1,4,148)"
       id="path54" />
    <path
       style="fill-rule:nonzero;fill:rgb(0%,0%,0%);fill-opacity:1;stroke-width:1;stroke-linecap:butt;stroke-linejoin:miter;stroke:rgb(0%,0%,0%);stroke-opacity:1;stroke-miterlimit:4;"
       d="M 215.1875 -109.65625 L 221.839844 -111.4375 L 217.753906 -105.894531 Z M 215.1875 -109.65625 "
       transform="matrix(1,0,0,1,4,148)"
       id="path56" />
    <path
       style="fill:none;stroke-width:1;stroke-linecap:butt;stroke-linejoin:miter;stroke:rgb(0%,0%,0%);stroke-opacity:1;stroke-miterlimit:4;"
       d="M 172.09375 -72 C 182.78125 -72 201.800781 -72 215.117188 -72 "
       transform="matrix(1,0,0,1,4,148)"
       id="path58" />
    <path
       style="fill-rule:nonzero;fill:rgb(0%,0%,0%);fill-opacity:1;stroke-width:1;stroke-linecap:butt;stroke-linejoin:miter;stroke:rgb(0%,0%,0%);stroke-opacity:1;stroke-miterlimit:4;"
       d="M 215.339844 -74.273438 L 221.839844 -72 L 215.339844 -69.726563 Z M 215.339844 -74.273438 "
       transform="matrix(1,0,0,1,4,148)"
       id="path60" />
    <path
       style="fill:none;stroke-width:1;stroke-linecap:butt;stroke-linejoin:miter;stroke:rgb(0%,0%,0%);stroke-opacity:1;stroke-miterlimit:4;"
       d="M 172.097656 -30.265625 C 193.167969 -28.347656 250.339844 -23.152344 283.09375 -20.171875 "
       transform="matrix(1,0,0,1,4,148)"
       id="path62" />
    <path
       style="fill-rule:nonzero;fill:rgb(0%,0%,0%);fill-opacity:1;stroke-width:1;stroke-linecap:butt;stroke-linejoin:miter;stroke:rgb(0%,0%,0%);stroke-opacity:1;stroke-miterlimit:4;"
       d="M 283.421875 -22.429688 L 289.691406 -19.574219 L 283.011719 -17.898438 Z M 283.421875 -22.429688 "
       transform="matrix(1,0,0,1,4,148)"
       id="path64" />
    <path
       style=" stroke:none;fill-rule:nonzero;fill:rgb(0%,0%,0%);fill-opacity:1;"
       d="M 227.65625 126.257813 C 227.632813 125.933594 227.566406 125.550781 227.453125 125.105469 C 227.335938 124.664063 227.144531 124.269531 226.875 123.929688 C 226.605469 123.589844 226.234375 123.410156 225.765625 123.390625 C 225.269531 123.402344 224.796875 123.625 224.351563 124.054688 C 223.898438 124.488281 223.5 125.058594 223.15625 125.761719 C 222.808594 126.472656 222.550781 127.242188 222.375 128.070313 C 222.195313 128.90625 222.132813 129.730469 222.195313 130.542969 C 222.21875 130.996094 222.300781 131.4375 222.441406 131.871094 C 222.574219 132.308594 222.777344 132.671875 223.046875 132.960938 C 223.3125 133.25 223.65625 133.398438 224.082031 133.410156 C 224.578125 133.394531 225.054688 133.171875 225.507813 132.734375 C 225.957031 132.300781 226.351563 131.726563 226.695313 131.011719 C 227.035156 130.304688 227.296875 129.53125 227.472656 128.699219 C 227.644531 127.871094 227.703125 127.058594 227.65625 126.257813 Z M 226.421875 128.175781 L 223.496094 128.175781 C 223.570313 127.722656 223.675781 127.230469 223.804688 126.707031 C 223.929688 126.183594 224.113281 125.671875 224.359375 125.164063 C 224.515625 124.808594 224.710938 124.476563 224.945313 124.175781 C 225.175781 123.875 225.449219 123.714844 225.769531 123.695313 C 226.097656 123.71875 226.328125 123.902344 226.453125 124.246094 C 226.574219 124.589844 226.644531 124.972656 226.671875 125.390625 C 226.695313 125.722656 226.691406 126.097656 226.65625 126.519531 C 226.617188 126.945313 226.539063 127.5 226.421875 128.175781 Z M 226.328125 128.621094 C 226.277344 128.964844 226.195313 129.394531 226.078125 129.910156 C 225.957031 130.433594 225.78125 130.949219 225.558594 131.464844 C 225.347656 131.953125 225.121094 132.347656 224.875 132.644531 C 224.625 132.945313 224.351563 133.097656 224.054688 133.105469 C 223.816406 133.117188 223.625 132.996094 223.476563 132.742188 C 223.324219 132.488281 223.222656 132.039063 223.179688 131.394531 C 223.148438 131.109375 223.148438 130.746094 223.179688 130.304688 C 223.207031 129.863281 223.285156 129.304688 223.414063 128.621094 Z M 227.484375 133.257813 "
       id="path66" />
    <path
       style="fill:#000000;fill-opacity:1;fill-rule:nonzero;stroke:none"
       d="m 228.82031,129.36719 -0.22265,-0.125 c 0.28125,-0.69141 0.625,-1.1836 1.02343,-1.46875 0.39453,-0.28516 0.85547,-0.42578 1.38672,-0.42969 0.48828,0.004 0.88281,0.11328 1.1836,0.32812 0.4414,0.33204 0.66406,0.69922 0.66406,1.10938 0,0.33203 -0.11328,0.66797 -0.33985,1.00391 -0.22656,0.33984 -0.62109,0.71875 -1.18359,1.13281 l 0.16406,-0.004 c 0.35157,0 0.69141,0.0898 1.02735,0.26953 0.32812,0.17969 0.58984,0.46094 0.78125,0.83985 0.1914,0.38281 0.28906,0.79297 0.28906,1.22656 0,0.88281 -0.32422,1.63672 -0.96875,2.26172 -0.64453,0.625 -1.46484,0.93359 -2.46484,0.9375 -0.75782,-0.004 -1.31641,-0.10938 -1.67188,-0.32813 -0.19922,-0.10937 -0.29687,-0.2539 -0.29687,-0.42968 0,-0.0937 0.0391,-0.17969 0.12109,-0.26172 0.0781,-0.0742 0.17578,-0.11328 0.29687,-0.11719 0.14844,0.004 0.33204,0.0859 0.54688,0.25 0.50391,0.38672 0.94531,0.57812 1.32031,0.57812 0.5625,0 1.0625,-0.23828 1.50391,-0.71484 0.43359,-0.47656 0.65234,-1.07422 0.65625,-1.80078 -0.004,-0.59766 -0.15235,-1.08984 -0.44141,-1.47656 -0.29687,-0.38282 -0.66797,-0.57813 -1.11719,-0.57813 -0.33984,0 -0.6914,0.16016 -1.05468,0.47656 l -0.16407,-0.27343 c 0.22657,-0.19141 0.4336,-0.35938 0.61719,-0.5 0.55469,-0.40235 0.96875,-0.80078 1.24219,-1.19532 0.19531,-0.27734 0.29297,-0.52734 0.29297,-0.74609 0,-0.35937 -0.12891,-0.66016 -0.38281,-0.91016 -0.25782,-0.24609 -0.59375,-0.37109 -1.00391,-0.375 -0.6875,0.004 -1.28906,0.44141 -1.80469,1.32032 z m 5.39453,6.89062"
       id="path68"
       inkscape:connector-curvature="0" />
    <path
       style="fill:none;stroke-width:1;stroke-linecap:butt;stroke-linejoin:miter;stroke:rgb(0%,0%,0%);stroke-opacity:1;stroke-miterlimit:4;"
       d="M 240.027344 -117.964844 C 250.25 -119.191406 268.371094 -121.363281 283.1875 -123.144531 "
       transform="matrix(1,0,0,1,4,148)"
       id="path70" />
    <path
       style="fill-rule:nonzero;fill:rgb(0%,0%,0%);fill-opacity:1;stroke-width:1;stroke-linecap:butt;stroke-linejoin:miter;stroke:rgb(0%,0%,0%);stroke-opacity:1;stroke-miterlimit:4;"
       d="M 282.996094 -125.410156 L 289.722656 -123.925781 L 283.539063 -120.894531 Z M 282.996094 -125.410156 "
       transform="matrix(1,0,0,1,4,148)"
       id="path72" />
    <path
       style="fill:#000000;fill-opacity:1;fill-rule:nonzero;stroke:none"
       d="m 261.98437,31.742188 c -0.0234,-0.324219 -0.0898,-0.707032 -0.20312,-1.152344 -0.11719,-0.441406 -0.30859,-0.835938 -0.57813,-1.175781 -0.26953,-0.339844 -0.64062,-0.519532 -1.10937,-0.539063 -0.49609,0.01172 -0.96875,0.234375 -1.41406,0.664063 -0.45313,0.433593 -0.85157,1.003906 -1.19532,1.707031 -0.34765,0.710937 -0.60546,1.480469 -0.78125,2.308594 -0.17968,0.835937 -0.24218,1.660156 -0.17968,2.472656 0.0234,0.453125 0.10547,0.894531 0.24609,1.328125 0.13281,0.4375 0.33594,0.800781 0.60547,1.089844 0.26562,0.289062 0.60937,0.4375 1.03516,0.449218 0.49609,-0.01563 0.97265,-0.238281 1.42578,-0.675781 0.44922,-0.433594 0.84375,-1.007812 1.1875,-1.722656 0.33984,-0.707031 0.60156,-1.480469 0.77734,-2.3125 0.17188,-0.828125 0.23047,-1.640625 0.18359,-2.441406 z M 260.75,33.660156 h -2.92578 c 0.0742,-0.453125 0.17969,-0.945312 0.30859,-1.46875 0.125,-0.523437 0.3086,-1.035156 0.55469,-1.542968 0.15625,-0.355469 0.35156,-0.6875 0.58594,-0.988282 0.23047,-0.300781 0.5039,-0.460937 0.82422,-0.480468 0.32812,0.02344 0.55859,0.207031 0.68359,0.550781 0.12109,0.34375 0.19141,0.726562 0.21875,1.144531 0.0234,0.332031 0.0195,0.707031 -0.0156,1.128906 -0.0391,0.425782 -0.11718,0.980469 -0.23437,1.65625 z m -0.0937,0.445313 c -0.0508,0.34375 -0.13281,0.773437 -0.25,1.289062 -0.12109,0.523438 -0.29688,1.039063 -0.51953,1.554688 -0.21094,0.488281 -0.4375,0.882812 -0.6836,1.179687 -0.25,0.300782 -0.52343,0.453125 -0.82031,0.460938 -0.23828,0.01172 -0.42969,-0.109375 -0.57812,-0.363281 -0.15235,-0.253907 -0.25391,-0.703125 -0.29688,-1.347657 -0.0312,-0.285156 -0.0312,-0.648437 0,-1.089843 0.0274,-0.441407 0.10547,-1 0.23438,-1.683594 z m 1.15625,4.636719"
       id="path74"
       inkscape:connector-curvature="0" />
    <path
       style="fill:#000000;fill-opacity:1;fill-rule:nonzero;stroke:none"
       d="m 266.94141,41.726563 h -3.12891 c -0.008,-0.03516 -0.0117,-0.07031 -0.008,-0.101563 -0.004,-0.07813 0.0117,-0.128906 0.0469,-0.160156 0.0312,-0.02344 0.13281,-0.05469 0.30078,-0.08984 0.26172,-0.05469 0.47657,-0.121094 0.64453,-0.199219 0.043,-0.09766 0.0664,-0.191406 0.0664,-0.28125 V 40.46875 c 0,-0.04687 0.008,-0.277344 0.0234,-0.6875 0.004,-0.152344 0.008,-0.824219 0.0117,-2.011719 l 0.0156,-1.605468 -0.0156,-0.9375 c 0,-0.132813 0.004,-0.5625 0.0156,-1.289063 -1.03515,0.738281 -1.60156,1.109375 -1.70312,1.105469 -0.0391,0.0039 -0.0781,-0.01563 -0.11719,-0.05859 -0.0391,-0.03516 -0.0586,-0.07422 -0.0586,-0.113281 0,-0.04297 0.0156,-0.07813 0.0469,-0.109375 0.0625,-0.05469 0.21484,-0.152344 0.45703,-0.292969 0.0352,-0.01563 0.19141,-0.140625 0.47266,-0.367187 0.4414,-0.367188 0.76562,-0.65625 0.96875,-0.867188 0.20312,-0.210937 0.32812,-0.328125 0.375,-0.359375 0.0937,0 0.16406,-0.0039 0.21484,-0.0078 0.11328,0.0039 0.1875,0.02344 0.21875,0.05859 0.0312,0.04297 0.0469,0.183594 0.0469,0.421875 l -0.0469,6.097657 v 0.601562 c 0,0.148438 -0.004,0.292969 -0.008,0.441406 -0.008,0.148438 -0.0117,0.257813 -0.008,0.324219 -0.004,0.167969 0.0195,0.273438 0.0625,0.320313 0.0273,0.03125 0.10937,0.07422 0.2539,0.125 l 0.46485,0.09375 c 0.19922,0.05469 0.30859,0.08984 0.32812,0.101562 0.043,0.04687 0.0664,0.109375 0.0664,0.1875 z m 1.60156,0.01563"
       id="path76"
       inkscape:connector-curvature="0" />
    <path
       style="fill:none;stroke-width:1;stroke-linecap:butt;stroke-linejoin:miter;stroke:rgb(0%,0%,0%);stroke-opacity:1;stroke-miterlimit:4;"
       d="M 240.027344 -72 C 250.25 -72 268.371094 -72 283.1875 -72 "
       transform="matrix(1,0,0,1,4,148)"
       id="path78" />
    <path
       style="fill-rule:nonzero;fill:rgb(0%,0%,0%);fill-opacity:1;stroke-width:1;stroke-linecap:butt;stroke-linejoin:miter;stroke:rgb(0%,0%,0%);stroke-opacity:1;stroke-miterlimit:4;"
       d="M 283.222656 -74.273438 L 289.722656 -72 L 283.222656 -69.726563 Z M 283.222656 -74.273438 "
       transform="matrix(1,0,0,1,4,148)"
       id="path80" />
    <path
       style="fill:#000000;fill-opacity:1;fill-rule:nonzero;stroke:none"
       d="m 261.98437,80.699219 c -0.0234,-0.324219 -0.0898,-0.707031 -0.20312,-1.152344 -0.11719,-0.441406 -0.30859,-0.835937 -0.57813,-1.175781 -0.26953,-0.339844 -0.64062,-0.519531 -1.10937,-0.539063 -0.49609,0.01172 -0.96875,0.234375 -1.41406,0.664063 -0.45313,0.433594 -0.85157,1.003906 -1.19532,1.707031 -0.34765,0.710938 -0.60546,1.480469 -0.78125,2.308594 -0.17968,0.835937 -0.24218,1.660156 -0.17968,2.472656 0.0234,0.453125 0.10547,0.894531 0.24609,1.328125 0.13281,0.4375 0.33594,0.800781 0.60547,1.089844 0.26562,0.289062 0.60937,0.4375 1.03516,0.449219 0.49609,-0.01563 0.97265,-0.238282 1.42578,-0.675782 0.44922,-0.433593 0.84375,-1.007812 1.1875,-1.722656 0.33984,-0.707031 0.60156,-1.480469 0.77734,-2.3125 0.17188,-0.828125 0.23047,-1.640625 0.18359,-2.441406 z M 260.75,82.617188 h -2.92578 c 0.0742,-0.453125 0.17969,-0.945313 0.30859,-1.46875 0.125,-0.523438 0.3086,-1.035157 0.55469,-1.542969 0.15625,-0.355469 0.35156,-0.6875 0.58594,-0.988281 0.23047,-0.300782 0.5039,-0.460938 0.82422,-0.480469 0.32812,0.02344 0.55859,0.207031 0.68359,0.550781 0.12109,0.34375 0.19141,0.726563 0.21875,1.144531 0.0234,0.332032 0.0195,0.707032 -0.0156,1.128907 -0.0391,0.425781 -0.11718,0.980468 -0.23437,1.65625 z m -0.0937,0.445312 c -0.0508,0.34375 -0.13281,0.773438 -0.25,1.289063 -0.12109,0.523437 -0.29688,1.039062 -0.51953,1.554687 -0.21094,0.488281 -0.4375,0.882813 -0.6836,1.179688 -0.25,0.300781 -0.52343,0.453125 -0.82031,0.460937 -0.23828,0.01172 -0.42969,-0.109375 -0.57812,-0.363281 -0.15235,-0.253906 -0.25391,-0.703125 -0.29688,-1.347656 -0.0312,-0.285157 -0.0312,-0.648438 0,-1.089844 0.0274,-0.441406 0.10547,-1 0.23438,-1.683594 z m 1.15625,4.636719"
       id="path82"
       inkscape:connector-curvature="0" />
    <path
       style="fill:#000000;fill-opacity:1;fill-rule:nonzero;stroke:none"
       d="m 267.94922,90.683594 c -0.6875,-0.02344 -1.60547,-0.03516 -2.75,-0.03906 l -1.48438,0.03906 -0.66015,-0.01953 -0.52735,0.01953 c -0.0586,0 -0.13672,-0.01172 -0.23828,-0.03125 0.0781,-0.191406 0.1836,-0.367188 0.3125,-0.527344 0.37891,-0.464844 0.9336,-1.0625 1.66406,-1.796875 1.01954,-1.023437 1.69141,-1.828125 2.01563,-2.417969 0.32031,-0.582031 0.48047,-1.132812 0.48437,-1.648437 -0.004,-0.480469 -0.16796,-0.886719 -0.49218,-1.21875 -0.33203,-0.324219 -0.73438,-0.488281 -1.21094,-0.492188 -0.28906,0.0039 -0.57031,0.07031 -0.83594,0.203125 -0.27344,0.132813 -0.48828,0.304688 -0.64453,0.507813 -0.10937,0.136719 -0.24609,0.398437 -0.41797,0.792969 -0.0976,0.21875 -0.15625,0.339843 -0.17187,0.355468 -0.0312,0.03516 -0.0625,0.05078 -0.0977,0.04687 -0.0391,0.0039 -0.0742,-0.01563 -0.10547,-0.05859 -0.0351,-0.03516 -0.0547,-0.08594 -0.0508,-0.144532 -0.004,-0.203125 0.10156,-0.53125 0.3125,-0.984375 0.20703,-0.453125 0.51172,-0.804687 0.91406,-1.0625 0.40235,-0.25 0.8711,-0.378906 1.40625,-0.382812 0.69532,0.0039 1.27735,0.230469 1.7461,0.683594 0.46484,0.453125 0.69922,0.996093 0.69922,1.621093 0,0.5 -0.16016,1.003907 -0.47657,1.515625 -0.32031,0.515625 -1.05468,1.300782 -2.20312,2.355469 -0.37891,0.347656 -0.64844,0.601563 -0.80469,0.765625 -0.16406,0.164063 -0.48437,0.519531 -0.96484,1.066406 0.69531,0.02734 1.32812,0.04297 1.90234,0.03906 0.11719,0.0039 0.25391,0 0.40234,-0.01172 0.26563,-0.0078 0.42188,-0.01563 0.47266,-0.01563 l 0.94922,0.01953 c 0.10156,0.0039 0.20703,-0.04687 0.32031,-0.148437 0.10547,-0.09766 0.25391,-0.378906 0.44531,-0.847656 l 0.16407,-0.0078 c 0.0195,0 0.0547,0.0039 0.10156,0.0078 0.0195,0.04687 0.0312,0.08203 0.0352,0.101562 l -0.0156,0.05469 c -0.0391,0.132812 -0.0703,0.375 -0.0937,0.726562 -0.0195,0.207031 -0.0547,0.519531 -0.10156,0.933594 z m 0.59375,0.01563"
       id="path84"
       inkscape:connector-curvature="0" />
    <path
       style="fill:none;stroke-width:1;stroke-linecap:butt;stroke-linejoin:miter;stroke:rgb(0%,0%,0%);stroke-opacity:1;stroke-miterlimit:4;"
       d="M 375.816406 -22.40625 C 365.503906 -24.640625 347.328125 -25.277344 332.535156 -24.316406 "
       transform="matrix(1,0,0,1,4,148)"
       id="path86" />
    <path
       style="fill-rule:nonzero;fill:rgb(0%,0%,0%);fill-opacity:1;stroke-width:1;stroke-linecap:butt;stroke-linejoin:miter;stroke:rgb(0%,0%,0%);stroke-opacity:1;stroke-miterlimit:4;"
       d="M 332.6875 -22.046875 L 326.019531 -23.761719 L 332.300781 -26.578125 Z M 332.6875 -22.046875 "
       transform="matrix(1,0,0,1,4,148)"
       id="path88" />
    <path
       style="fill:#000000;fill-opacity:1;fill-rule:nonzero;stroke:none"
       d="m 347.75391,111.48828 c -0.0234,-0.32422 -0.0899,-0.70703 -0.20313,-1.15234 -0.11719,-0.44141 -0.30859,-0.83594 -0.57812,-1.17578 -0.26954,-0.33985 -0.64063,-0.51953 -1.10938,-0.53907 -0.49609,0.0117 -0.96875,0.23438 -1.41406,0.66407 -0.45313,0.43359 -0.85156,1.0039 -1.19531,1.70703 -0.34766,0.71094 -0.60547,1.48047 -0.78125,2.30859 -0.17969,0.83594 -0.24219,1.66016 -0.17969,2.47266 0.0234,0.45312 0.10547,0.89453 0.24609,1.32812 0.13281,0.4375 0.33594,0.80078 0.60547,1.08985 0.26563,0.28906 0.60938,0.4375 1.03516,0.44922 0.49609,-0.0156 0.97265,-0.23829 1.42578,-0.67579 0.44922,-0.43359 0.84375,-1.00781 1.1875,-1.72265 0.33984,-0.70703 0.60156,-1.48047 0.77734,-2.3125 0.17188,-0.82813 0.23047,-1.64063 0.1836,-2.44141 z m -1.23438,1.91797 h -2.92578 c 0.0742,-0.45312 0.17969,-0.94531 0.30859,-1.46875 0.125,-0.52344 0.3086,-1.03516 0.55469,-1.54297 0.15625,-0.35547 0.35156,-0.6875 0.58594,-0.98828 0.23047,-0.30078 0.5039,-0.46094 0.82422,-0.48047 0.32812,0.0234 0.55859,0.20703 0.68359,0.55078 0.12109,0.34375 0.19141,0.72657 0.21875,1.14453 0.0234,0.33204 0.0195,0.70704 -0.0156,1.12891 -0.0391,0.42578 -0.11719,0.98047 -0.23438,1.65625 z m -0.0937,0.44531 c -0.0508,0.34375 -0.13281,0.77344 -0.25,1.28907 -0.12109,0.52343 -0.29687,1.03906 -0.51953,1.55468 -0.21094,0.48828 -0.4375,0.88282 -0.68359,1.17969 -0.25,0.30078 -0.52344,0.45313 -0.82032,0.46094 -0.23828,0.0117 -0.42968,-0.10938 -0.57812,-0.36328 -0.15235,-0.25391 -0.25391,-0.70313 -0.29688,-1.34766 -0.0312,-0.28516 -0.0312,-0.64844 0,-1.08984 0.0274,-0.44141 0.10547,-1 0.23438,-1.6836 z m 1.15625,4.63672"
       id="path90"
       inkscape:connector-curvature="0" />
    <path
       style="fill:#000000;fill-opacity:1;fill-rule:nonzero;stroke:none"
       d="m 348.91797,114.59766 -0.22266,-0.125 c 0.28125,-0.69141 0.625,-1.1836 1.02344,-1.46875 0.39453,-0.28516 0.85547,-0.42579 1.38672,-0.42969 0.48828,0.004 0.88281,0.11328 1.18359,0.32812 0.44141,0.33203 0.66406,0.69922 0.66406,1.10938 0,0.33203 -0.11328,0.66797 -0.33984,1.0039 -0.22656,0.33985 -0.62109,0.71875 -1.18359,1.13282 l 0.16406,-0.004 c 0.35156,0 0.69141,0.0898 1.02734,0.26953 0.32813,0.17969 0.58985,0.46094 0.78125,0.83985 0.19141,0.38281 0.28907,0.79296 0.28907,1.22656 0,0.88281 -0.32422,1.63672 -0.96875,2.26172 -0.64454,0.625 -1.46485,0.93359 -2.46485,0.9375 -0.75781,-0.004 -1.3164,-0.10938 -1.67187,-0.32813 -0.19922,-0.10937 -0.29688,-0.2539 -0.29688,-0.42969 0,-0.0937 0.0391,-0.17968 0.1211,-0.26171 0.0781,-0.0742 0.17578,-0.11329 0.29687,-0.11719 0.14844,0.004 0.33203,0.0859 0.54688,0.25 0.5039,0.38672 0.94531,0.57812 1.32031,0.57812 0.5625,0 1.0625,-0.23828 1.5039,-0.71484 0.4336,-0.47656 0.65235,-1.07422 0.65625,-1.80078 -0.004,-0.59766 -0.15234,-1.08985 -0.4414,-1.47656 -0.29688,-0.38282 -0.66797,-0.57813 -1.11719,-0.57813 -0.33984,0 -0.69141,0.16016 -1.05469,0.47656 l -0.16406,-0.27343 c 0.22656,-0.19141 0.43359,-0.35938 0.61719,-0.5 0.55469,-0.40235 0.96875,-0.80079 1.24219,-1.19532 0.19531,-0.27734 0.29296,-0.52734 0.29296,-0.74609 0,-0.35938 -0.1289,-0.66016 -0.38281,-0.91016 -0.25781,-0.24609 -0.59375,-0.37109 -1.0039,-0.375 -0.6875,0.004 -1.28907,0.44141 -1.80469,1.32032 z m 5.39453,6.89062"
       id="path92"
       inkscape:connector-curvature="0" />
    <path
       style="fill:none;stroke-width:1;stroke-linecap:butt;stroke-linejoin:miter;stroke:rgb(0%,0%,0%);stroke-opacity:1;stroke-miterlimit:4;"
       d="M 375.816406 -76.40625 C 365.503906 -78.640625 347.328125 -79.277344 332.535156 -78.316406 "
       transform="matrix(1,0,0,1,4,148)"
       id="path94" />
    <path
       style="fill-rule:nonzero;fill:rgb(0%,0%,0%);fill-opacity:1;stroke-width:1;stroke-linecap:butt;stroke-linejoin:miter;stroke:rgb(0%,0%,0%);stroke-opacity:1;stroke-miterlimit:4;"
       d="M 332.6875 -76.046875 L 326.019531 -77.761719 L 332.300781 -80.578125 Z M 332.6875 -76.046875 "
       transform="matrix(1,0,0,1,4,148)"
       id="path96" />
    <path
       style="fill:#000000;fill-opacity:1;fill-rule:nonzero;stroke:none"
       d="m 347.75391,57.488281 c -0.0234,-0.324218 -0.0899,-0.707031 -0.20313,-1.152343 -0.11719,-0.441407 -0.30859,-0.835938 -0.57812,-1.175782 -0.26954,-0.339843 -0.64063,-0.519531 -1.10938,-0.539062 -0.49609,0.01172 -0.96875,0.234375 -1.41406,0.664062 -0.45313,0.433594 -0.85156,1.003907 -1.19531,1.707032 -0.34766,0.710937 -0.60547,1.480468 -0.78125,2.308593 -0.17969,0.835938 -0.24219,1.660157 -0.17969,2.472657 0.0234,0.453125 0.10547,0.894531 0.24609,1.328125 0.13281,0.4375 0.33594,0.800781 0.60547,1.089843 0.26563,0.289063 0.60938,0.4375 1.03516,0.449219 0.49609,-0.01563 0.97265,-0.238281 1.42578,-0.675781 0.44922,-0.433594 0.84375,-1.007813 1.1875,-1.722656 0.33984,-0.707032 0.60156,-1.480469 0.77734,-2.3125 0.17188,-0.828125 0.23047,-1.640625 0.1836,-2.441407 z m -1.23438,1.917969 h -2.92578 c 0.0742,-0.453125 0.17969,-0.945312 0.30859,-1.46875 0.125,-0.523437 0.3086,-1.035156 0.55469,-1.542969 0.15625,-0.355468 0.35156,-0.6875 0.58594,-0.988281 0.23047,-0.300781 0.5039,-0.460937 0.82422,-0.480469 0.32812,0.02344 0.55859,0.207032 0.68359,0.550782 0.12109,0.34375 0.19141,0.726562 0.21875,1.144531 0.0234,0.332031 0.0195,0.707031 -0.0156,1.128906 -0.0391,0.425781 -0.11719,0.980469 -0.23438,1.65625 z m -0.0937,0.445313 c -0.0508,0.34375 -0.13281,0.773437 -0.25,1.289062 -0.12109,0.523438 -0.29687,1.039063 -0.51953,1.554688 -0.21094,0.488281 -0.4375,0.882812 -0.68359,1.179687 -0.25,0.300781 -0.52344,0.453125 -0.82032,0.460938 -0.23828,0.01172 -0.42968,-0.109375 -0.57812,-0.363282 -0.15235,-0.253906 -0.25391,-0.703125 -0.29688,-1.347656 -0.0312,-0.285156 -0.0312,-0.648437 0,-1.089844 0.0274,-0.441406 0.10547,-1 0.23438,-1.683593 z m 1.15625,4.636718"
       id="path98"
       inkscape:connector-curvature="0" />
    <path
       style="fill:#000000;fill-opacity:1;fill-rule:nonzero;stroke:none"
       d="m 352.92969,59.59375 c -0.50782,0.04297 -0.91797,0.0625 -1.23047,0.05859 -0.23438,0.0039 -0.48047,-0.0039 -0.73438,-0.01953 -0.14453,-0.0039 -0.23047,-0.0078 -0.2539,-0.01172 -0.55469,0.0039 -0.85157,0.01563 -0.89063,0.03125 -0.0234,0.01563 -0.0351,0.03906 -0.0351,0.07031 -0.0156,0.07813 -0.0742,0.886719 -0.17969,2.433594 0.20312,-0.101562 0.40234,-0.171875 0.59375,-0.21875 0.1875,-0.03906 0.4375,-0.0625 0.75781,-0.06641 0.21875,0.0039 0.375,0.01563 0.46094,0.03906 0.42969,0.140625 0.74219,0.269532 0.9375,0.382813 0.26172,0.167969 0.47265,0.355469 0.64062,0.5625 0.16407,0.210937 0.32032,0.519531 0.46094,0.921875 0.10156,0.296875 0.15234,0.601562 0.15234,0.917969 0,0.347656 -0.0508,0.671875 -0.14843,0.96875 -0.10157,0.304687 -0.22266,0.554687 -0.36719,0.75 -0.14844,0.203125 -0.36719,0.410156 -0.64844,0.625 -0.28906,0.21875 -0.625,0.382812 -1.01562,0.496093 -0.39063,0.113282 -0.65235,0.171875 -0.78125,0.179688 L 349.65625,67.625 c -0.27734,-0.04687 -0.51563,-0.117187 -0.71875,-0.21875 -0.20703,-0.101562 -0.34375,-0.199219 -0.40625,-0.300781 -0.0469,-0.05469 -0.0664,-0.132813 -0.0625,-0.234375 -0.004,-0.07031 0.0469,-0.152344 0.15234,-0.238281 0.0977,-0.08594 0.22266,-0.128907 0.37891,-0.128907 0.0625,0 0.14062,0.02344 0.22656,0.0625 l 0.53906,0.347657 c 0.125,0.109375 0.27735,0.214843 0.46094,0.308593 0.0234,0.01563 0.0899,0.03125 0.20313,0.04687 0.26172,0.03906 0.40625,0.05469 0.42968,0.05469 0.0977,0 0.26954,-0.03906 0.51172,-0.121094 0.24219,-0.08203 0.46485,-0.222656 0.67188,-0.421875 0.20312,-0.199219 0.3789,-0.449219 0.53125,-0.753906 0.14453,-0.300781 0.21875,-0.640625 0.22265,-1.011719 -0.004,-0.660156 -0.21093,-1.203125 -0.625,-1.632812 -0.41796,-0.425782 -0.91796,-0.640625 -1.49609,-0.644532 -0.26562,0.0039 -0.50391,0.04687 -0.72266,0.128907 -0.21875,0.08984 -0.36718,0.183593 -0.44531,0.285156 l -0.10156,0.04297 c -0.0586,0.02734 -0.0977,0.03906 -0.11719,0.03516 l -0.0898,-0.02344 c -0.0156,-0.07813 -0.0195,-0.140625 -0.0195,-0.183593 0,-0.03125 0.004,-0.08984 0.0117,-0.183594 0.0312,-0.21875 0.0469,-0.453125 0.0547,-0.695313 0,-0.238281 0.0274,-0.453125 0.0742,-0.644531 l -0.0195,-0.328125 c 0.0273,-0.167969 0.043,-0.328125 0.0508,-0.484375 0.0117,-1.050781 0.0586,-1.65625 0.13281,-1.8125 0.0312,-0.07031 0.0859,-0.105469 0.16407,-0.109375 0.0312,0.0039 0.082,0.0078 0.16015,0.01172 l 0.0391,0.0078 0.87109,-0.0078 c 0.38672,0.02734 0.67578,0.03906 0.86719,0.03516 0.42578,0.0039 0.76953,-0.02734 1.03125,-0.08984 0.125,-0.117187 0.22265,-0.175781 0.29297,-0.175781 0.0273,0 0.0781,0.0039 0.15234,0.01172 l 0.0195,0.08594 -0.0547,0.285157 -0.0351,0.457031 c -0.008,0.03516 -0.0274,0.105469 -0.0625,0.207031 z m 1.38281,7.894531"
       id="path100"
       inkscape:connector-curvature="0" />
    <path
       style="fill:none;stroke-width:1;stroke-linecap:butt;stroke-linejoin:miter;stroke:rgb(0%,0%,0%);stroke-opacity:1;stroke-miterlimit:4;"
       d="M 375.816406 -130.402344 C 365.503906 -132.640625 347.328125 -133.277344 332.535156 -132.316406 "
       transform="matrix(1,0,0,1,4,148)"
       id="path102" />
    <path
       style="fill-rule:nonzero;fill:rgb(0%,0%,0%);fill-opacity:1;stroke-width:1;stroke-linecap:butt;stroke-linejoin:miter;stroke:rgb(0%,0%,0%);stroke-opacity:1;stroke-miterlimit:4;"
       d="M 332.6875 -130.046875 L 326.019531 -131.761719 L 332.300781 -134.578125 Z M 332.6875 -130.046875 "
       transform="matrix(1,0,0,1,4,148)"
       id="path104" />
    <path
       style="fill:#000000;fill-opacity:1;fill-rule:nonzero;stroke:none"
       d="M 347.75391,3.488281 C 347.73051,3.164063 347.66401,2.78125 347.55078,2.335938 347.43359,1.894531 347.24219,1.5 346.97266,1.160156 c -0.26954,-0.33984298 -0.64063,-0.51953098 -1.10938,-0.53906198 -0.49609,0.01172 -0.96875,0.234375 -1.41406,0.66406198 -0.45313,0.433594 -0.85156,1.003907 -1.19531,1.707032 -0.34766,0.710937 -0.60547,1.480468 -0.78125,2.308593 -0.17969,0.835938 -0.24219,1.660157 -0.17969,2.472657 0.0234,0.453125 0.10547,0.894531 0.24609,1.328125 0.13281,0.4375 0.33594,0.800781 0.60547,1.089843 0.26563,0.289063 0.60938,0.4375 1.03516,0.449219 0.49609,-0.01563 0.97265,-0.238281 1.42578,-0.675781 0.44922,-0.433594 0.84375,-1.007813 1.1875,-1.722656 0.33984,-0.707032 0.60156,-1.480469 0.77734,-2.3125 0.17188,-0.828125 0.23047,-1.640625 0.1836,-2.441407 z m -1.23438,1.917969 h -2.92578 c 0.0742,-0.453125 0.17969,-0.945312 0.30859,-1.46875 0.125,-0.523437 0.3086,-1.035156 0.55469,-1.542969 0.15625,-0.355468 0.35156,-0.6875 0.58594,-0.988281 0.23047,-0.300781 0.5039,-0.46093698 0.82422,-0.48046898 0.32812,0.02344 0.55859,0.20703198 0.68359,0.55078198 0.12109,0.34375 0.19141,0.726562 0.21875,1.144531 0.0234,0.332031 0.0195,0.707031 -0.0156,1.128906 -0.0391,0.425781 -0.11719,0.980469 -0.23438,1.65625 z m -0.0937,0.445313 c -0.0508,0.34375 -0.13281,0.773437 -0.25,1.289062 -0.12109,0.523438 -0.29687,1.039063 -0.51953,1.554688 -0.21094,0.488281 -0.4375,0.882812 -0.68359,1.179687 -0.25,0.300781 -0.52344,0.453125 -0.82032,0.460938 -0.23828,0.01172 -0.42968,-0.109375 -0.57812,-0.363282 -0.15235,-0.253906 -0.25391,-0.703125 -0.29688,-1.347656 -0.0312,-0.285156 -0.0312,-0.648437 0,-1.089844 0.0274,-0.441406 0.10547,-1 0.23438,-1.683593 z m 1.15625,4.636718"
       id="path106"
       inkscape:connector-curvature="0" />
    <path
       style="fill:#000000;fill-opacity:1;fill-rule:nonzero;stroke:none"
       d="m 352.33984,4.574219 h 0.32032 c -0.008,0.144531 -0.0117,0.226562 -0.008,0.253906 l 0.0117,1.003906 -0.0351,0.902344 0.0273,1.003906 V 8.53125 l 0.008,1.082031 c -0.004,0.171875 -0.004,0.425782 -0.004,0.765625 l 0.14062,0.0078 h 0.48438 l 0.46093,0.0039 0.38282,-0.01172 c 0.004,0.144532 0.008,0.25 0.0117,0.3125 -0.004,0.07031 -0.008,0.175782 -0.0117,0.316407 -0.28516,0.01563 -0.4375,0.01953 -0.45704,0.01953 l -0.33984,-0.0078 h -0.27344 c -0.0742,0.0039 -0.20703,0 -0.39843,-0.01172 -0.0117,0.648437 -0.0117,1.503906 0,2.574218 -0.0312,0.02734 -0.0625,0.04297 -0.0937,0.05469 l -0.42579,0.01563 c -0.0937,0 -0.23046,-0.0078 -0.41796,-0.01563 0.008,-0.539063 0.0117,-0.917969 0.0117,-1.152344 0,-0.203125 -0.004,-0.390625 -0.0117,-0.5625 -0.0156,-0.304687 -0.0234,-0.484375 -0.0195,-0.53125 -0.004,-0.08203 0.004,-0.207031 0.0195,-0.382812 -0.19532,0.02734 -0.34375,0.03906 -0.44532,0.03516 -0.0547,0.0039 -0.11718,0 -0.1875,-0.0078 -0.46093,-0.01953 -0.72265,-0.03125 -0.77734,-0.03516 -0.0625,0.0039 -0.20703,0.01953 -0.44141,0.04687 l -0.70312,-0.03906 -0.37891,0.01953 -0.26172,-0.03906 -0.32812,0.06641 -0.0586,-0.04687 c -0.0117,-0.09375 -0.0156,-0.167969 -0.0156,-0.222657 0,-0.04687 0.004,-0.121093 0.0156,-0.222656 0.125,-0.164062 0.35938,-0.507812 0.70313,-1.027344 l 1.33594,-1.9375 c 0.32422,-0.484375 0.59765,-0.871093 0.82422,-1.160156 0.21875,-0.285156 0.4414,-0.597656 0.66406,-0.929687 0.21484,-0.328125 0.4375,-0.636719 0.67187,-0.933594 z m -0.61718,5.8125 0.004,-1.121094 -0.004,-0.890625 V 6.089844 c -0.375,0.492187 -0.89454,1.234375 -1.5586,2.230469 -0.76172,1.136718 -1.21484,1.824218 -1.35156,2.058593 0.19531,-0.0078 0.34766,-0.01172 0.44922,-0.01563 l 1.87109,0.03516 c 0.13281,0.0039 0.33203,0 0.58985,-0.01172 z m 2.58984,3.101562"
       id="path108"
       inkscape:connector-curvature="0" />
    <path
       style="fill:none;stroke-width:1;stroke-linecap:butt;stroke-linejoin:miter;stroke:rgb(0%,0%,0%);stroke-opacity:1;stroke-miterlimit:4;"
       d="M 36.019531 -58 C 49.023438 -58 66.773438 -58 79.195313 -58 "
       transform="matrix(1,0,0,1,4,148)"
       id="path110" />
    <path
       style="fill-rule:nonzero;fill:rgb(0%,0%,0%);fill-opacity:1;stroke-width:1;stroke-linecap:butt;stroke-linejoin:miter;stroke:rgb(0%,0%,0%);stroke-opacity:1;stroke-miterlimit:4;"
       d="M 85.816406 -58 L 79.316406 -60.925781 L 82.566406 -58 L 79.316406 -58 L 82.566406 -58 L 79.316406 -55.074219 Z M 85.816406 -58 "
       transform="matrix(1,0,0,1,4,148)"
       id="path112" />
    <path
       style="fill:none;stroke-width:1;stroke-linecap:butt;stroke-linejoin:miter;stroke:rgb(0%,0%,0%);stroke-opacity:1;stroke-miterlimit:4;"
       d="M 326.019531 -120.238281 C 339.023438 -118.839844 356.773438 -118.925781 369.195313 -120.496094 "
       transform="matrix(1,0,0,1,4,148)"
       id="path114" />
    <path
       style="fill-rule:nonzero;fill:rgb(0%,0%,0%);fill-opacity:1;stroke-width:1;stroke-linecap:butt;stroke-linejoin:miter;stroke:rgb(0%,0%,0%);stroke-opacity:1;stroke-miterlimit:4;"
       d="M 375.816406 -121.597656 L 368.925781 -123.417969 L 372.609375 -121.0625 L 369.40625 -120.53125 L 372.609375 -121.0625 L 369.882813 -117.648438 Z M 375.816406 -121.597656 "
       transform="matrix(1,0,0,1,4,148)"
       id="path116" />
    <path
       style="fill:none;stroke-width:1;stroke-linecap:butt;stroke-linejoin:miter;stroke:rgb(0%,0%,0%);stroke-opacity:1;stroke-miterlimit:4;"
       d="M 326.019531 -66.238281 C 339.023438 -64.839844 356.773438 -64.925781 369.195313 -66.496094 "
       transform="matrix(1,0,0,1,4,148)"
       id="path118" />
    <path
       style="fill-rule:nonzero;fill:rgb(0%,0%,0%);fill-opacity:1;stroke-width:1;stroke-linecap:butt;stroke-linejoin:miter;stroke:rgb(0%,0%,0%);stroke-opacity:1;stroke-miterlimit:4;"
       d="M 375.816406 -67.59375 L 368.925781 -69.417969 L 372.609375 -67.0625 L 369.40625 -66.53125 L 372.609375 -67.0625 L 369.882813 -63.648438 Z M 375.816406 -67.59375 "
       transform="matrix(1,0,0,1,4,148)"
       id="path120" />
    <path
       style="fill:none;stroke-width:1;stroke-linecap:butt;stroke-linejoin:miter;stroke:rgb(0%,0%,0%);stroke-opacity:1;stroke-miterlimit:4;"
       d="M 326.019531 -12.238281 C 339.023438 -10.839844 356.773438 -10.925781 369.195313 -12.496094 "
       transform="matrix(1,0,0,1,4,148)"
       id="path122" />
    <path
       style="fill-rule:nonzero;fill:rgb(0%,0%,0%);fill-opacity:1;stroke-width:1;stroke-linecap:butt;stroke-linejoin:miter;stroke:rgb(0%,0%,0%);stroke-opacity:1;stroke-miterlimit:4;"
       d="M 375.816406 -13.59375 L 368.925781 -15.417969 L 372.609375 -13.0625 L 369.40625 -12.53125 L 372.609375 -13.0625 L 369.882813 -9.648438 Z M 375.816406 -13.59375 "
       transform="matrix(1,0,0,1,4,148)"
       id="path124" />
    <path
       style=" stroke:none;fill-rule:evenodd;fill:rgb(100%,100%,100%);fill-opacity:1;"
       d="M 92.921875 81.207031 L 105.101563 81.207031 C 106.589844 81.207031 107.796875 82.675781 107.796875 83.867188 L 107.796875 96.125 C 107.796875 97.59375 106.589844 98.785156 105.101563 98.785156 L 92.921875 98.785156 C 91.433594 98.785156 90.226563 97.316406 90.226563 96.125 L 90.226563 83.867188 C 90.226563 82.398438 91.433594 81.207031 92.921875 81.207031 Z M 92.921875 81.207031 "
       id="path126" />
    <g
       clip-path="url(#clip1)"
       clip-rule="nonzero"
       id="g130">
      <path
         style="fill:none;stroke-width:0.149983;stroke-linecap:butt;stroke-linejoin:round;stroke:rgb(0%,0%,0%);stroke-opacity:1;stroke-miterlimit:4;"
         d="M 34.687984 53.525645 L 38.984707 53.525645 C 39.50974 53.525645 39.935554 54.043787 39.935554 54.464089 L 39.935554 58.788372 C 39.935554 59.306515 39.50974 59.726816 38.984707 59.726816 L 34.687984 59.726816 C 34.162952 59.726816 33.737138 59.208674 33.737138 58.788372 L 33.737138 54.464089 C 33.737138 53.945947 34.162952 53.525645 34.687984 53.525645 Z M 34.687984 53.525645 "
         transform="matrix(2.834646,0,0,2.834646,-5.406278,-70.519219)"
         id="path128" />
    </g>
    <path
       style=" stroke:none;fill-rule:nonzero;fill:rgb(0%,0%,0%);fill-opacity:1;"
       d="M 100.949219 93.683594 L 97.820313 93.683594 C 97.8125 93.648438 97.808594 93.613281 97.8125 93.582031 C 97.808594 93.503906 97.824219 93.453125 97.859375 93.421875 C 97.890625 93.398438 97.992188 93.367188 98.160156 93.332031 C 98.421875 93.277344 98.636719 93.210938 98.804688 93.132813 C 98.847656 93.035156 98.871094 92.941406 98.871094 92.851563 L 98.871094 92.425781 C 98.871094 92.378906 98.878906 92.148438 98.894531 91.738281 C 98.898438 91.585938 98.902344 90.914063 98.90625 89.726563 L 98.921875 88.121094 L 98.90625 87.183594 C 98.90625 87.050781 98.910156 86.621094 98.921875 85.894531 C 97.886719 86.632813 97.320313 87.003906 97.21875 87 C 97.179688 87.003906 97.140625 86.984375 97.101563 86.941406 C 97.0625 86.90625 97.042969 86.867188 97.042969 86.828125 C 97.042969 86.785156 97.058594 86.75 97.089844 86.71875 C 97.152344 86.664063 97.304688 86.566406 97.546875 86.425781 C 97.582031 86.410156 97.738281 86.285156 98.019531 86.058594 C 98.460938 85.691406 98.785156 85.402344 98.988281 85.191406 C 99.191406 84.980469 99.316406 84.863281 99.363281 84.832031 C 99.457031 84.832031 99.527344 84.828125 99.578125 84.824219 C 99.691406 84.828125 99.765625 84.847656 99.796875 84.882813 C 99.828125 84.925781 99.84375 85.066406 99.84375 85.304688 L 99.796875 91.402344 L 99.796875 92.003906 C 99.796875 92.152344 99.792969 92.296875 99.789063 92.445313 C 99.78125 92.59375 99.777344 92.703125 99.78125 92.769531 C 99.777344 92.9375 99.800781 93.042969 99.84375 93.089844 C 99.871094 93.121094 99.953125 93.164063 100.097656 93.214844 L 100.5625 93.308594 C 100.761719 93.363281 100.871094 93.398438 100.890625 93.410156 C 100.933594 93.457031 100.957031 93.519531 100.957031 93.597656 Z M 102.550781 93.699219 "
       id="path132" />
    <path
       style=" stroke:none;fill-rule:evenodd;fill:rgb(100%,100%,100%);fill-opacity:1;"
       d="M 160.921875 67.207031 L 173.101563 67.207031 C 174.589844 67.207031 175.796875 68.675781 175.796875 69.867188 L 175.796875 82.125 C 175.796875 83.59375 174.589844 84.785156 173.101563 84.785156 L 160.921875 84.785156 C 159.433594 84.785156 158.226563 83.316406 158.226563 82.125 L 158.226563 69.867188 C 158.226563 68.398438 159.433594 67.207031 160.921875 67.207031 Z M 160.921875 67.207031 "
       id="path134" />
    <g
       clip-path="url(#clip2)"
       clip-rule="nonzero"
       id="g138">
      <path
         style="fill:none;stroke-width:0.149983;stroke-linecap:butt;stroke-linejoin:round;stroke:rgb(0%,0%,0%);stroke-opacity:1;stroke-miterlimit:4;"
         d="M 34.687984 53.525645 L 38.984707 53.525645 C 39.50974 53.525645 39.935554 54.043787 39.935554 54.464089 L 39.935554 58.788372 C 39.935554 59.306515 39.50974 59.726816 38.984707 59.726816 L 34.687984 59.726816 C 34.162952 59.726816 33.737138 59.208674 33.737138 58.788372 L 33.737138 54.464089 C 33.737138 53.945947 34.162952 53.525645 34.687984 53.525645 Z M 34.687984 53.525645 "
         transform="matrix(2.834646,0,0,2.834646,62.593722,-84.519219)"
         id="path136" />
    </g>
    <path
       style=" stroke:none;fill-rule:nonzero;fill:rgb(0%,0%,0%);fill-opacity:1;"
       d="M 169.726563 79.683594 C 169.039063 79.660156 168.121094 79.648438 166.976563 79.644531 L 165.492188 79.683594 L 164.832031 79.664063 L 164.304688 79.683594 C 164.246094 79.683594 164.167969 79.671875 164.066406 79.652344 C 164.144531 79.460938 164.25 79.285156 164.378906 79.125 C 164.757813 78.660156 165.3125 78.0625 166.042969 77.328125 C 167.0625 76.304688 167.734375 75.5 168.058594 74.910156 C 168.378906 74.328125 168.539063 73.777344 168.542969 73.261719 C 168.539063 72.78125 168.375 72.375 168.050781 72.042969 C 167.71875 71.71875 167.316406 71.554688 166.839844 71.550781 C 166.550781 71.554688 166.269531 71.621094 166.003906 71.753906 C 165.730469 71.886719 165.515625 72.058594 165.359375 72.261719 C 165.25 72.398438 165.113281 72.660156 164.941406 73.054688 C 164.84375 73.273438 164.785156 73.394531 164.769531 73.410156 C 164.738281 73.445313 164.707031 73.460938 164.671875 73.457031 C 164.632813 73.460938 164.597656 73.441406 164.566406 73.398438 C 164.53125 73.363281 164.511719 73.3125 164.515625 73.253906 C 164.511719 73.050781 164.617188 72.722656 164.828125 72.269531 C 165.035156 71.816406 165.339844 71.464844 165.742188 71.207031 C 166.144531 70.957031 166.613281 70.828125 167.148438 70.824219 C 167.84375 70.828125 168.425781 71.054688 168.894531 71.507813 C 169.359375 71.960938 169.59375 72.503906 169.59375 73.128906 C 169.59375 73.628906 169.433594 74.132813 169.117188 74.644531 C 168.796875 75.160156 168.0625 75.945313 166.914063 77 C 166.535156 77.347656 166.265625 77.601563 166.109375 77.765625 C 165.945313 77.929688 165.625 78.285156 165.144531 78.832031 C 165.839844 78.859375 166.472656 78.875 167.046875 78.871094 C 167.164063 78.875 167.300781 78.871094 167.449219 78.859375 C 167.714844 78.851563 167.871094 78.84375 167.921875 78.84375 L 168.871094 78.863281 C 168.972656 78.867188 169.078125 78.816406 169.191406 78.714844 C 169.296875 78.617188 169.445313 78.335938 169.636719 77.867188 L 169.800781 77.859375 C 169.820313 77.859375 169.855469 77.863281 169.902344 77.867188 C 169.921875 77.914063 169.933594 77.949219 169.9375 77.96875 L 169.921875 78.023438 C 169.882813 78.15625 169.851563 78.398438 169.828125 78.75 C 169.808594 78.957031 169.773438 79.269531 169.726563 79.683594 Z M 170.320313 79.699219 "
       id="path140" />
    <path
       style=" stroke:none;fill-rule:evenodd;fill:rgb(100%,100%,100%);fill-opacity:1;"
       d="M 160.921875 108.207031 L 173.101563 108.207031 C 174.589844 108.207031 175.796875 109.675781 175.796875 110.867188 L 175.796875 123.125 C 175.796875 124.59375 174.589844 125.785156 173.101563 125.785156 L 160.921875 125.785156 C 159.433594 125.785156 158.226563 124.316406 158.226563 123.125 L 158.226563 110.867188 C 158.226563 109.398438 159.433594 108.207031 160.921875 108.207031 Z M 160.921875 108.207031 "
       id="path142" />
    <g
       clip-path="url(#clip3)"
       clip-rule="nonzero"
       id="g146">
      <path
         style="fill:none;stroke-width:0.149983;stroke-linecap:butt;stroke-linejoin:round;stroke:rgb(0%,0%,0%);stroke-opacity:1;stroke-miterlimit:4;"
         d="M 34.687984 53.525645 L 38.984707 53.525645 C 39.50974 53.525645 39.935554 54.043787 39.935554 54.464089 L 39.935554 58.788372 C 39.935554 59.306515 39.50974 59.726816 38.984707 59.726816 L 34.687984 59.726816 C 34.162952 59.726816 33.737138 59.208674 33.737138 58.788372 L 33.737138 54.464089 C 33.737138 53.945947 34.162952 53.525645 34.687984 53.525645 Z M 34.687984 53.525645 "
         transform="matrix(2.834646,0,0,2.834646,62.593722,-43.519219)"
         id="path144" />
    </g>
    <path
       style=" stroke:none;fill-rule:nonzero;fill:rgb(0%,0%,0%);fill-opacity:1;"
       d="M 164.925781 113.808594 L 164.703125 113.683594 C 164.984375 112.992188 165.328125 112.5 165.726563 112.214844 C 166.121094 111.929688 166.582031 111.789063 167.113281 111.785156 C 167.601563 111.789063 167.996094 111.898438 168.296875 112.113281 C 168.738281 112.445313 168.960938 112.8125 168.960938 113.222656 C 168.960938 113.554688 168.847656 113.890625 168.621094 114.226563 C 168.394531 114.566406 168 114.945313 167.4375 115.359375 L 167.601563 115.355469 C 167.953125 115.355469 168.292969 115.445313 168.628906 115.625 C 168.957031 115.804688 169.21875 116.085938 169.410156 116.464844 C 169.601563 116.847656 169.699219 117.257813 169.699219 117.691406 C 169.699219 118.574219 169.375 119.328125 168.730469 119.953125 C 168.085938 120.578125 167.265625 120.886719 166.265625 120.890625 C 165.507813 120.886719 164.949219 120.78125 164.59375 120.5625 C 164.394531 120.453125 164.296875 120.308594 164.296875 120.132813 C 164.296875 120.039063 164.335938 119.953125 164.417969 119.871094 C 164.496094 119.796875 164.59375 119.757813 164.714844 119.753906 C 164.863281 119.757813 165.046875 119.839844 165.261719 120.003906 C 165.765625 120.390625 166.207031 120.582031 166.582031 120.582031 C 167.144531 120.582031 167.644531 120.34375 168.085938 119.867188 C 168.519531 119.390625 168.738281 118.792969 168.742188 118.066406 C 168.738281 117.46875 168.589844 116.976563 168.300781 116.589844 C 168.003906 116.207031 167.632813 116.011719 167.183594 116.011719 C 166.84375 116.011719 166.492188 116.171875 166.128906 116.488281 L 165.964844 116.214844 C 166.191406 116.023438 166.398438 115.855469 166.582031 115.714844 C 167.136719 115.3125 167.550781 114.914063 167.824219 114.519531 C 168.019531 114.242188 168.117188 113.992188 168.117188 113.773438 C 168.117188 113.414063 167.988281 113.113281 167.734375 112.863281 C 167.476563 112.617188 167.140625 112.492188 166.730469 112.488281 C 166.042969 112.492188 165.441406 112.929688 164.925781 113.808594 Z M 170.320313 120.699219 "
       id="path148" />
    <path
       style=" stroke:none;fill-rule:evenodd;fill:rgb(100%,100%,100%);fill-opacity:1;"
       d="M 228.921875 22.207031 L 241.101563 22.207031 C 242.589844 22.207031 243.796875 23.675781 243.796875 24.867188 L 243.796875 37.125 C 243.796875 38.59375 242.589844 39.785156 241.101563 39.785156 L 228.921875 39.785156 C 227.433594 39.785156 226.226563 38.316406 226.226563 37.125 L 226.226563 24.867188 C 226.226563 23.398438 227.433594 22.207031 228.921875 22.207031 Z M 228.921875 22.207031 "
       id="path150" />
    <g
       clip-path="url(#clip4)"
       clip-rule="nonzero"
       id="g154">
      <path
         style="fill:none;stroke-width:0.149983;stroke-linecap:butt;stroke-linejoin:round;stroke:rgb(0%,0%,0%);stroke-opacity:1;stroke-miterlimit:4;"
         d="M 34.687984 53.525645 L 38.984707 53.525645 C 39.50974 53.525645 39.935554 54.043787 39.935554 54.464089 L 39.935554 58.788372 C 39.935554 59.306515 39.50974 59.726816 38.984707 59.726816 L 34.687984 59.726816 C 34.162952 59.726816 33.737138 59.208674 33.737138 58.788372 L 33.737138 54.464089 C 33.737138 53.945947 34.162952 53.525645 34.687984 53.525645 Z M 34.687984 53.525645 "
         transform="matrix(2.834646,0,0,2.834646,130.593722,-129.519219)"
         id="path152" />
    </g>
    <path
       style=" stroke:none;fill-rule:nonzero;fill:rgb(0%,0%,0%);fill-opacity:1;"
       d="M 236.207031 25.785156 L 236.527344 25.785156 C 236.519531 25.929688 236.515625 26.011719 236.519531 26.039063 L 236.53125 27.042969 L 236.496094 27.945313 L 236.523438 28.949219 L 236.523438 29.742188 L 236.53125 30.824219 C 236.527344 30.996094 236.527344 31.25 236.527344 31.589844 L 236.667969 31.597656 L 237.152344 31.597656 L 237.613281 31.601563 L 237.996094 31.589844 C 238 31.734375 238.003906 31.839844 238.007813 31.902344 C 238.003906 31.972656 238 32.078125 237.996094 32.21875 C 237.710938 32.234375 237.558594 32.238281 237.539063 32.238281 L 237.199219 32.230469 L 236.925781 32.230469 C 236.851563 32.234375 236.71875 32.230469 236.527344 32.21875 C 236.515625 32.867188 236.515625 33.722656 236.527344 34.792969 C 236.496094 34.820313 236.464844 34.835938 236.433594 34.847656 L 236.007813 34.863281 C 235.914063 34.863281 235.777344 34.855469 235.589844 34.847656 C 235.597656 34.308594 235.601563 33.929688 235.601563 33.695313 C 235.601563 33.492188 235.597656 33.304688 235.589844 33.132813 C 235.574219 32.828125 235.566406 32.648438 235.570313 32.601563 C 235.566406 32.519531 235.574219 32.394531 235.589844 32.21875 C 235.394531 32.246094 235.246094 32.257813 235.144531 32.253906 C 235.089844 32.257813 235.027344 32.253906 234.957031 32.246094 C 234.496094 32.226563 234.234375 32.214844 234.179688 32.210938 C 234.117188 32.214844 233.972656 32.230469 233.738281 32.257813 L 233.035156 32.21875 L 232.65625 32.238281 L 232.394531 32.199219 L 232.066406 32.265625 L 232.007813 32.21875 C 231.996094 32.125 231.992188 32.050781 231.992188 31.996094 C 231.992188 31.949219 231.996094 31.875 232.007813 31.773438 C 232.132813 31.609375 232.367188 31.265625 232.710938 30.746094 L 234.046875 28.808594 C 234.371094 28.324219 234.644531 27.9375 234.871094 27.648438 C 235.089844 27.363281 235.3125 27.050781 235.535156 26.71875 C 235.75 26.390625 235.972656 26.082031 236.207031 25.785156 Z M 235.589844 31.597656 L 235.59375 30.476563 L 235.589844 29.585938 L 235.589844 27.300781 C 235.214844 27.792969 234.695313 28.535156 234.03125 29.53125 C 233.269531 30.667969 232.816406 31.355469 232.679688 31.589844 C 232.875 31.582031 233.027344 31.578125 233.128906 31.574219 L 235 31.609375 C 235.132813 31.613281 235.332031 31.609375 235.589844 31.597656 Z M 238.179688 34.699219 "
       id="path156" />
    <path
       style=" stroke:none;fill-rule:evenodd;fill:rgb(100%,100%,100%);fill-opacity:1;"
       d="M 228.921875 67.207031 L 241.101563 67.207031 C 242.589844 67.207031 243.796875 68.675781 243.796875 69.867188 L 243.796875 82.125 C 243.796875 83.59375 242.589844 84.785156 241.101563 84.785156 L 228.921875 84.785156 C 227.433594 84.785156 226.226563 83.316406 226.226563 82.125 L 226.226563 69.867188 C 226.226563 68.398438 227.433594 67.207031 228.921875 67.207031 Z M 228.921875 67.207031 "
       id="path158" />
    <g
       clip-path="url(#clip5)"
       clip-rule="nonzero"
       id="g162">
      <path
         style="fill:none;stroke-width:0.149983;stroke-linecap:butt;stroke-linejoin:round;stroke:rgb(0%,0%,0%);stroke-opacity:1;stroke-miterlimit:4;"
         d="M 34.687984 53.525645 L 38.984707 53.525645 C 39.50974 53.525645 39.935554 54.043787 39.935554 54.464089 L 39.935554 58.788372 C 39.935554 59.306515 39.50974 59.726816 38.984707 59.726816 L 34.687984 59.726816 C 34.162952 59.726816 33.737138 59.208674 33.737138 58.788372 L 33.737138 54.464089 C 33.737138 53.945947 34.162952 53.525645 34.687984 53.525645 Z M 34.687984 53.525645 "
         transform="matrix(2.834646,0,0,2.834646,130.593722,-84.519219)"
         id="path160" />
    </g>
    <path
       style=" stroke:none;fill-rule:nonzero;fill:rgb(0%,0%,0%);fill-opacity:1;"
       d="M 236.890625 71.804688 C 236.382813 71.847656 235.972656 71.867188 235.660156 71.863281 C 235.425781 71.867188 235.179688 71.859375 234.925781 71.84375 C 234.78125 71.839844 234.695313 71.835938 234.671875 71.832031 C 234.117188 71.835938 233.820313 71.847656 233.78125 71.863281 C 233.757813 71.878906 233.746094 71.902344 233.746094 71.933594 C 233.730469 72.011719 233.671875 72.820313 233.566406 74.367188 C 233.769531 74.265625 233.96875 74.195313 234.160156 74.148438 C 234.347656 74.109375 234.597656 74.085938 234.917969 74.082031 C 235.136719 74.085938 235.292969 74.097656 235.378906 74.121094 C 235.808594 74.261719 236.121094 74.390625 236.316406 74.503906 C 236.578125 74.671875 236.789063 74.859375 236.957031 75.066406 C 237.121094 75.277344 237.277344 75.585938 237.417969 75.988281 C 237.519531 76.285156 237.570313 76.589844 237.570313 76.90625 C 237.570313 77.253906 237.519531 77.578125 237.421875 77.875 C 237.320313 78.179688 237.199219 78.429688 237.054688 78.625 C 236.90625 78.828125 236.6875 79.035156 236.40625 79.25 C 236.117188 79.46875 235.78125 79.632813 235.390625 79.746094 C 235 79.859375 234.738281 79.917969 234.609375 79.925781 L 233.617188 79.835938 C 233.339844 79.789063 233.101563 79.71875 232.898438 79.617188 C 232.691406 79.515625 232.554688 79.417969 232.492188 79.316406 C 232.445313 79.261719 232.425781 79.183594 232.429688 79.082031 C 232.425781 79.011719 232.476563 78.929688 232.582031 78.84375 C 232.679688 78.757813 232.804688 78.714844 232.960938 78.714844 C 233.023438 78.714844 233.101563 78.738281 233.1875 78.777344 L 233.726563 79.125 C 233.851563 79.234375 234.003906 79.339844 234.1875 79.433594 C 234.210938 79.449219 234.277344 79.464844 234.390625 79.480469 C 234.652344 79.519531 234.796875 79.535156 234.820313 79.535156 C 234.917969 79.535156 235.089844 79.496094 235.332031 79.414063 C 235.574219 79.332031 235.796875 79.191406 236.003906 78.992188 C 236.207031 78.792969 236.382813 78.542969 236.535156 78.238281 C 236.679688 77.9375 236.753906 77.597656 236.757813 77.226563 C 236.753906 76.566406 236.546875 76.023438 236.132813 75.59375 C 235.714844 75.167969 235.214844 74.953125 234.636719 74.949219 C 234.371094 74.953125 234.132813 74.996094 233.914063 75.078125 C 233.695313 75.167969 233.546875 75.261719 233.46875 75.363281 L 233.367188 75.40625 C 233.308594 75.433594 233.269531 75.445313 233.25 75.441406 L 233.160156 75.417969 C 233.144531 75.339844 233.140625 75.277344 233.140625 75.234375 C 233.140625 75.203125 233.144531 75.144531 233.152344 75.050781 C 233.183594 74.832031 233.199219 74.597656 233.207031 74.355469 C 233.207031 74.117188 233.234375 73.902344 233.28125 73.710938 L 233.261719 73.382813 C 233.289063 73.214844 233.304688 73.054688 233.3125 72.898438 C 233.324219 71.847656 233.371094 71.242188 233.445313 71.085938 C 233.476563 71.015625 233.53125 70.980469 233.609375 70.976563 C 233.640625 70.980469 233.691406 70.984375 233.769531 70.988281 L 233.808594 70.996094 L 234.679688 70.988281 C 235.066406 71.015625 235.355469 71.027344 235.546875 71.023438 C 235.972656 71.027344 236.316406 70.996094 236.578125 70.933594 C 236.703125 70.816406 236.800781 70.757813 236.871094 70.757813 C 236.898438 70.757813 236.949219 70.761719 237.023438 70.769531 L 237.042969 70.855469 L 236.988281 71.140625 L 236.953125 71.597656 C 236.945313 71.632813 236.925781 71.703125 236.890625 71.804688 Z M 238.273438 79.699219 "
       id="path164" />
    <path
       style=" stroke:none;fill-rule:evenodd;fill:rgb(100%,100%,100%);fill-opacity:1;"
       d="M 382.921875 121.207031 L 395.101563 121.207031 C 396.589844 121.207031 397.796875 122.675781 397.796875 123.867188 L 397.796875 136.125 C 397.796875 137.59375 396.589844 138.785156 395.101563 138.785156 L 382.921875 138.785156 C 381.433594 138.785156 380.226563 137.316406 380.226563 136.125 L 380.226563 123.867188 C 380.226563 122.398438 381.433594 121.207031 382.921875 121.207031 Z M 382.921875 121.207031 "
       id="path166" />
    <g
       clip-path="url(#clip6)"
       clip-rule="nonzero"
       id="g170">
      <path
         style="fill:none;stroke-width:0.149983;stroke-linecap:butt;stroke-linejoin:round;stroke:rgb(0%,0%,0%);stroke-opacity:1;stroke-miterlimit:4;"
         d="M 34.687984 53.525645 L 38.984707 53.525645 C 39.50974 53.525645 39.935554 54.043787 39.935554 54.464089 L 39.935554 58.788372 C 39.935554 59.306515 39.50974 59.726816 38.984707 59.726816 L 34.687984 59.726816 C 34.162952 59.726816 33.737138 59.208674 33.737138 58.788372 L 33.737138 54.464089 C 33.737138 53.945947 34.162952 53.525645 34.687984 53.525645 Z M 34.687984 53.525645 "
         transform="matrix(2.834646,0,0,2.834646,284.593722,-30.519219)"
         id="path168" />
    </g>
    <path
       style=" stroke:none;fill-rule:nonzero;fill:rgb(0%,0%,0%);fill-opacity:1;"
       d="M 391.046875 124.75 C 391.082031 124.824219 391.113281 124.898438 391.132813 124.976563 C 391.105469 125.027344 391.0625 125.0625 391.003906 125.078125 C 390.8125 125.132813 390.527344 125.265625 390.15625 125.476563 C 390.066406 125.523438 389.804688 125.734375 389.367188 126.109375 C 389.167969 126.25 388.929688 126.503906 388.65625 126.875 C 388.273438 127.378906 388.003906 127.828125 387.84375 128.21875 C 387.675781 128.617188 387.53125 129.132813 387.40625 129.765625 C 387.367188 129.953125 387.339844 130.273438 387.332031 130.726563 L 387.3125 130.980469 C 387.3125 131.566406 387.484375 132.148438 387.828125 132.726563 C 388.171875 133.308594 388.597656 133.601563 389.113281 133.597656 C 389.378906 133.601563 389.632813 133.519531 389.867188 133.351563 C 390.101563 133.191406 390.285156 132.914063 390.421875 132.519531 C 390.558594 132.128906 390.628906 131.652344 390.628906 131.097656 C 390.628906 130.34375 390.484375 129.785156 390.195313 129.421875 C 389.90625 129.0625 389.558594 128.882813 389.15625 128.878906 C 389.03125 128.882813 388.921875 128.902344 388.828125 128.933594 L 388.773438 128.949219 C 388.710938 128.953125 388.652344 128.886719 388.589844 128.75 C 388.707031 128.675781 388.847656 128.613281 389.019531 128.558594 C 389.183594 128.511719 389.292969 128.484375 389.347656 128.484375 C 389.375 128.484375 389.582031 128.519531 389.96875 128.585938 L 390.167969 128.679688 C 390.378906 128.753906 390.546875 128.835938 390.664063 128.921875 C 390.871094 129.09375 391.054688 129.304688 391.222656 129.554688 C 391.300781 129.691406 391.410156 129.957031 391.550781 130.359375 C 391.558594 130.390625 391.59375 130.59375 391.648438 130.960938 L 391.613281 131.644531 C 391.515625 132.054688 391.421875 132.339844 391.339844 132.503906 C 391.207031 132.753906 390.996094 133.027344 390.699219 133.324219 C 390.542969 133.476563 390.339844 133.601563 390.097656 133.691406 C 389.746094 133.824219 389.378906 133.886719 388.996094 133.890625 C 388.253906 133.886719 387.628906 133.59375 387.121094 133.007813 C 386.605469 132.417969 386.351563 131.5625 386.355469 130.441406 C 386.351563 129.816406 386.445313 129.226563 386.640625 128.667969 C 386.828125 128.113281 387.101563 127.601563 387.453125 127.136719 C 387.6875 126.824219 388.007813 126.488281 388.417969 126.125 C 388.824219 125.769531 389.210938 125.488281 389.578125 125.285156 C 390.070313 125.019531 390.558594 124.84375 391.046875 124.75 Z M 392.234375 133.699219 "
       id="path172" />
    <path
       style=" stroke:none;fill-rule:evenodd;fill:rgb(100%,100%,100%);fill-opacity:1;"
       d="M 382.921875 67.207031 L 395.101563 67.207031 C 396.589844 67.207031 397.796875 68.675781 397.796875 69.867188 L 397.796875 82.125 C 397.796875 83.59375 396.589844 84.785156 395.101563 84.785156 L 382.921875 84.785156 C 381.433594 84.785156 380.226563 83.316406 380.226563 82.125 L 380.226563 69.867188 C 380.226563 68.398438 381.433594 67.207031 382.921875 67.207031 Z M 382.921875 67.207031 "
       id="path174" />
    <g
       clip-path="url(#clip7)"
       clip-rule="nonzero"
       id="g178">
      <path
         style="fill:none;stroke-width:0.149983;stroke-linecap:butt;stroke-linejoin:round;stroke:rgb(0%,0%,0%);stroke-opacity:1;stroke-miterlimit:4;"
         d="M 34.687984 53.525645 L 38.984707 53.525645 C 39.50974 53.525645 39.935554 54.043787 39.935554 54.464089 L 39.935554 58.788372 C 39.935554 59.306515 39.50974 59.726816 38.984707 59.726816 L 34.687984 59.726816 C 34.162952 59.726816 33.737138 59.208674 33.737138 58.788372 L 33.737138 54.464089 C 33.737138 53.945947 34.162952 53.525645 34.687984 53.525645 Z M 34.687984 53.525645 "
         transform="matrix(2.834646,0,0,2.834646,284.593722,-84.519219)"
         id="path176" />
    </g>
    <path
       style=" stroke:none;fill-rule:nonzero;fill:rgb(0%,0%,0%);fill-opacity:1;"
       d="M 386.414063 71.058594 C 386.96875 71.039063 387.726563 71.027344 388.679688 71.023438 C 389.109375 71.027344 389.601563 71.035156 390.160156 71.042969 C 390.492188 71.0625 390.710938 71.070313 390.820313 71.066406 L 391.480469 71.058594 L 391.640625 71.058594 C 391.671875 71.097656 391.691406 71.132813 391.695313 71.160156 C 391.691406 71.21875 391.636719 71.351563 391.535156 71.558594 C 391.480469 71.652344 391.261719 72.148438 390.875 73.054688 C 390.679688 73.5 390.445313 74.085938 390.171875 74.8125 L 389.3125 77.238281 C 389.105469 77.796875 388.972656 78.1875 388.914063 78.402344 L 388.757813 79.035156 C 388.6875 79.226563 388.65625 79.363281 388.660156 79.445313 C 388.65625 79.519531 388.695313 79.625 388.777344 79.769531 C 388.71875 79.839844 388.597656 79.875 388.414063 79.878906 C 388.324219 79.875 388.242188 79.839844 388.167969 79.769531 C 388.195313 79.5 388.28125 79.144531 388.429688 78.699219 C 388.480469 78.542969 388.574219 78.230469 388.710938 77.757813 C 388.839844 77.292969 388.96875 76.875 389.097656 76.511719 L 389.878906 74.394531 C 390.101563 73.796875 390.316406 73.242188 390.527344 72.734375 C 390.597656 72.566406 390.652344 72.449219 390.691406 72.378906 C 390.785156 72.214844 390.835938 72.074219 390.835938 71.960938 L 390.746094 71.96875 L 390.671875 71.96875 L 389.769531 71.941406 C 389.742188 71.941406 389.644531 71.949219 389.484375 71.957031 C 389.316406 71.96875 389.195313 71.972656 389.113281 71.96875 L 388.054688 71.960938 L 387.730469 71.960938 L 387.28125 71.949219 C 387.015625 71.945313 386.851563 71.976563 386.785156 72.039063 C 386.71875 72.109375 386.679688 72.277344 386.671875 72.550781 C 386.664063 72.621094 386.648438 72.6875 386.617188 72.746094 C 386.566406 72.765625 386.527344 72.773438 386.507813 72.769531 C 386.453125 72.773438 386.386719 72.753906 386.308594 72.714844 C 386.308594 72.601563 386.3125 72.519531 386.316406 72.460938 L 386.332031 72.253906 L 386.308594 71.878906 C 386.304688 71.554688 386.316406 71.332031 386.339844 71.214844 C 386.34375 71.171875 386.367188 71.121094 386.414063 71.058594 Z M 392.230469 79.699219 "
       id="path180" />
    <path
       style=" stroke:none;fill-rule:evenodd;fill:rgb(100%,100%,100%);fill-opacity:1;"
       d="M 382.921875 13.207031 L 395.101563 13.207031 C 396.589844 13.207031 397.796875 14.675781 397.796875 15.867188 L 397.796875 28.125 C 397.796875 29.59375 396.589844 30.785156 395.101563 30.785156 L 382.921875 30.785156 C 381.433594 30.785156 380.226563 29.316406 380.226563 28.125 L 380.226563 15.867188 C 380.226563 14.398438 381.433594 13.207031 382.921875 13.207031 Z M 382.921875 13.207031 "
       id="path182" />
    <g
       clip-path="url(#clip8)"
       clip-rule="nonzero"
       id="g186">
      <path
         style="fill:none;stroke-width:0.149983;stroke-linecap:butt;stroke-linejoin:round;stroke:rgb(0%,0%,0%);stroke-opacity:1;stroke-miterlimit:4;"
         d="M 34.687984 53.525645 L 38.984707 53.525645 C 39.50974 53.525645 39.935554 54.043787 39.935554 54.464089 L 39.935554 58.788372 C 39.935554 59.306515 39.50974 59.726816 38.984707 59.726816 L 34.687984 59.726816 C 34.162952 59.726816 33.737138 59.208674 33.737138 58.788372 L 33.737138 54.464089 C 33.737138 53.945947 34.162952 53.525645 34.687984 53.525645 Z M 34.687984 53.525645 "
         transform="matrix(2.834646,0,0,2.834646,284.593722,-138.519219)"
         id="path184" />
    </g>
    <path
       style=" stroke:none;fill-rule:nonzero;fill:rgb(0%,0%,0%);fill-opacity:1;"
       d="M 388.238281 21.332031 C 387.792969 21.097656 387.492188 20.90625 387.332031 20.761719 C 387.105469 20.570313 386.914063 20.316406 386.761719 20.003906 C 386.609375 19.695313 386.535156 19.378906 386.535156 19.054688 C 386.535156 18.492188 386.757813 17.980469 387.207031 17.519531 C 387.652344 17.0625 388.203125 16.835938 388.859375 16.832031 C 389.589844 16.835938 390.171875 17.027344 390.601563 17.414063 C 391.03125 17.804688 391.246094 18.277344 391.246094 18.828125 C 391.246094 19.140625 391.179688 19.421875 391.054688 19.675781 C 390.921875 19.933594 390.734375 20.164063 390.484375 20.367188 C 390.3125 20.507813 390.023438 20.683594 389.617188 20.894531 C 390.242188 21.230469 390.613281 21.445313 390.730469 21.535156 C 390.976563 21.730469 391.183594 21.984375 391.351563 22.296875 C 391.519531 22.613281 391.601563 22.960938 391.605469 23.339844 C 391.601563 24.058594 391.355469 24.664063 390.863281 25.152344 C 390.367188 25.644531 389.738281 25.886719 388.972656 25.890625 C 388.183594 25.886719 387.554688 25.675781 387.089844 25.246094 C 386.621094 24.816406 386.386719 24.28125 386.390625 23.648438 C 386.386719 23.289063 386.449219 22.964844 386.574219 22.667969 C 386.695313 22.378906 386.886719 22.125 387.148438 21.910156 C 387.347656 21.753906 387.710938 21.5625 388.238281 21.332031 Z M 389.308594 20.738281 C 389.6875 20.53125 389.957031 20.3125 390.109375 20.085938 C 390.355469 19.71875 390.476563 19.300781 390.480469 18.828125 C 390.476563 18.464844 390.40625 18.152344 390.261719 17.890625 C 390.113281 17.628906 389.917969 17.441406 389.675781 17.324219 C 389.433594 17.214844 389.171875 17.15625 388.890625 17.152344 C 388.4375 17.15625 388.066406 17.3125 387.777344 17.617188 C 387.484375 17.929688 387.335938 18.308594 387.339844 18.761719 C 387.335938 19.027344 387.375 19.25 387.453125 19.421875 C 387.527344 19.601563 387.648438 19.761719 387.820313 19.910156 C 387.925781 20.011719 388.183594 20.191406 388.585938 20.449219 C 388.644531 20.488281 388.785156 20.546875 389.015625 20.621094 C 389.078125 20.644531 389.175781 20.683594 389.308594 20.738281 Z M 388.570313 21.480469 C 388.238281 21.65625 388.007813 21.8125 387.878906 21.941406 C 387.675781 22.136719 387.519531 22.363281 387.410156 22.625 C 387.292969 22.890625 387.238281 23.253906 387.238281 23.714844 C 387.238281 24.207031 387.34375 24.589844 387.558594 24.863281 C 387.914063 25.328125 388.378906 25.558594 388.953125 25.554688 C 389.472656 25.558594 389.902344 25.394531 390.242188 25.058594 C 390.574219 24.730469 390.742188 24.300781 390.746094 23.769531 C 390.742188 23.207031 390.570313 22.753906 390.234375 22.417969 C 389.890625 22.085938 389.335938 21.773438 388.570313 21.480469 Z M 392.160156 25.699219 "
       id="path188" />
    <path
       style=" stroke:none;fill-rule:evenodd;fill:rgb(100%,100%,100%);fill-opacity:1;"
       d="M 4.4375 72.414063 L 39.585938 72.414063 L 39.585938 107.574219 L 4.4375 107.574219 Z M 4.4375 72.414063 "
       id="path190" />
    <g
       clip-path="url(#clip9)"
       clip-rule="nonzero"
       id="g194">
      <path
         style="fill:none;stroke-width:0.3;stroke-linecap:butt;stroke-linejoin:miter;stroke:rgb(0%,0%,0%);stroke-opacity:1;stroke-miterlimit:4;"
         d="M 33.811552 47.248681 L 46.211139 47.248681 L 46.211139 59.652402 L 33.811552 59.652402 Z M 33.811552 47.248681 "
         transform="matrix(2.834646,0,0,2.834646,-91.406278,-61.519217)"
         id="path192" />
    </g>
    <path
       style=" stroke:none;fill-rule:nonzero;fill:rgb(0%,0%,0%);fill-opacity:1;"
       d="M 15.179688 83.761719 L 18.210938 83.777344 L 18.226563 84.105469 L 17.144531 84.089844 C 16.707031 84.09375 16.414063 84.140625 16.273438 84.230469 L 16.242188 84.269531 C 16.203125 84.511719 16.183594 84.921875 16.1875 85.496094 L 16.199219 85.816406 L 16.179688 86.574219 L 16.179688 87.175781 L 16.148438 87.589844 L 16.15625 87.824219 L 16.15625 88.574219 C 16.152344 88.613281 16.160156 88.785156 16.171875 89.089844 C 16.179688 89.242188 16.183594 89.347656 16.1875 89.402344 L 16.179688 90.457031 L 16.199219 91.480469 L 16.164063 92.214844 L 16.210938 94.292969 C 16.207031 94.890625 16.191406 95.351563 16.164063 95.675781 L 16.15625 95.800781 L 16.210938 96.777344 C 16.214844 96.886719 16.234375 96.960938 16.269531 97 C 16.300781 97.039063 16.375 97.070313 16.492188 97.097656 C 16.730469 97.148438 17.054688 97.175781 17.460938 97.175781 L 17.789063 97.167969 C 17.929688 97.164063 18.0625 97.167969 18.195313 97.175781 L 18.210938 97.511719 L 15.171875 97.511719 L 15.125 95.957031 L 15.203125 94.238281 C 15.207031 93.953125 15.210938 93.601563 15.210938 93.175781 C 15.210938 92.976563 15.207031 92.832031 15.203125 92.746094 L 15.164063 92.074219 L 15.1875 89.769531 L 15.15625 88.792969 C 15.152344 88.320313 15.160156 87.984375 15.175781 87.789063 C 15.1875 87.59375 15.191406 87.449219 15.195313 87.355469 L 15.164063 86.527344 L 15.179688 85.417969 L 15.164063 84.027344 Z M 24.835938 88.871094 C 24.832031 89.410156 24.792969 89.886719 24.71875 90.300781 C 24.574219 91.023438 24.378906 91.625 24.132813 92.105469 C 23.878906 92.59375 23.582031 93 23.242188 93.332031 C 22.988281 93.578125 22.722656 93.753906 22.445313 93.867188 C 22.160156 93.976563 21.875 94.035156 21.585938 94.035156 C 21.070313 94.035156 20.582031 93.863281 20.121094 93.519531 C 19.660156 93.175781 19.257813 92.609375 18.914063 91.816406 C 18.570313 91.027344 18.398438 90.09375 18.398438 89.019531 C 18.398438 88.183594 18.5 87.378906 18.710938 86.605469 C 18.914063 85.835938 19.191406 85.238281 19.535156 84.8125 C 19.875 84.390625 20.210938 84.085938 20.550781 83.894531 C 20.882813 83.710938 21.25 83.617188 21.648438 83.613281 C 22.203125 83.617188 22.742188 83.835938 23.269531 84.269531 C 23.789063 84.710938 24.207031 85.390625 24.523438 86.308594 C 24.726563 86.929688 24.832031 87.785156 24.835938 88.871094 Z M 23.664063 88.613281 C 23.65625 87.335938 23.609375 86.464844 23.523438 86.003906 C 23.375 85.25 23.136719 84.722656 22.808594 84.417969 C 22.476563 84.121094 22.089844 83.96875 21.652344 83.964844 C 21.277344 83.96875 20.929688 84.089844 20.601563 84.324219 C 20.273438 84.566406 20.046875 84.941406 19.921875 85.449219 C 19.707031 86.28125 19.597656 87.535156 19.601563 89.214844 C 19.597656 90.882813 19.765625 92.046875 20.097656 92.710938 C 20.425781 93.375 20.917969 93.707031 21.582031 93.707031 C 22.03125 93.707031 22.421875 93.566406 22.753906 93.285156 C 23.082031 93.003906 23.320313 92.484375 23.464844 91.71875 C 23.605469 90.960938 23.675781 90.105469 23.671875 89.152344 Z M 25.007813 84.113281 L 25 83.785156 L 25.351563 83.769531 L 25.65625 83.769531 L 27.773438 83.761719 C 27.855469 83.765625 27.949219 83.773438 28.0625 83.792969 L 28.046875 84.652344 L 28.054688 84.808594 C 28.070313 85.15625 28.078125 85.519531 28.078125 85.902344 C 28.078125 86.085938 28.066406 86.308594 28.046875 86.570313 C 28.023438 86.835938 28.011719 87.015625 28.015625 87.105469 C 28.011719 87.9375 28.035156 88.644531 28.078125 89.222656 L 28.078125 89.871094 L 28.09375 90.925781 L 28.078125 91.316406 L 28.101563 93.074219 C 28.101563 93.195313 28.097656 93.339844 28.089844 93.507813 C 28.082031 93.679688 28.078125 93.800781 28.078125 93.878906 C 28.078125 93.953125 28.085938 94.25 28.109375 94.769531 L 28.101563 96.269531 L 28.125 97.191406 C 28.125 97.28125 28.121094 97.390625 28.117188 97.519531 L 25.0625 97.527344 L 25.054688 97.191406 L 25.195313 97.191406 C 25.253906 97.1875 25.339844 97.1875 25.460938 97.195313 C 25.578125 97.195313 25.679688 97.199219 25.757813 97.199219 C 26.433594 97.199219 26.855469 97.144531 27.023438 97.042969 C 27.0625 96.863281 27.082031 96.488281 27.085938 95.910156 L 27.078125 95.542969 L 27.085938 94.738281 L 27.085938 94.160156 C 27.082031 94.082031 27.089844 93.949219 27.109375 93.753906 L 27.109375 93.277344 L 27.039063 89.941406 C 27.035156 89.882813 27.039063 89.761719 27.054688 89.574219 C 27.0625 89.328125 27.070313 89.148438 27.070313 89.042969 C 27.070313 88.800781 27.054688 88.152344 27.023438 87.097656 C 27.011719 86.734375 27.003906 86.507813 27.007813 86.417969 C 27.003906 86.277344 27.019531 85.980469 27.054688 85.519531 L 27.015625 84.722656 L 27.007813 84.464844 C 26.992188 84.425781 26.972656 84.359375 26.945313 84.269531 C 26.785156 84.214844 26.648438 84.179688 26.53125 84.160156 C 26.472656 84.160156 25.964844 84.144531 25.007813 84.113281 Z M 29.671875 93.800781 "
       id="path196" />
    <path
       style=" stroke:none;fill-rule:evenodd;fill:rgb(100%,100%,100%);fill-opacity:1;"
       d="M 294.4375 4.414063 L 329.585938 4.414063 L 329.585938 39.574219 L 294.4375 39.574219 Z M 294.4375 4.414063 "
       id="path198" />
    <g
       clip-path="url(#clip10)"
       clip-rule="nonzero"
       id="g202">
      <path
         style="fill:none;stroke-width:0.3;stroke-linecap:butt;stroke-linejoin:miter;stroke:rgb(0%,0%,0%);stroke-opacity:1;stroke-miterlimit:4;"
         d="M 33.811552 47.248681 L 46.211139 47.248681 L 46.211139 59.652402 L 33.811552 59.652402 Z M 33.811552 47.248681 "
         transform="matrix(2.834646,0,0,2.834646,198.593722,-129.519217)"
         id="path200" />
    </g>
    <path
       style=" stroke:none;fill-rule:nonzero;fill:rgb(0%,0%,0%);fill-opacity:1;"
       d="M 305.179688 15.761719 L 308.210938 15.777344 L 308.226563 16.105469 L 307.144531 16.089844 C 306.707031 16.09375 306.414063 16.140625 306.273438 16.230469 L 306.242188 16.269531 C 306.203125 16.511719 306.183594 16.921875 306.1875 17.496094 L 306.199219 17.816406 L 306.179688 18.574219 L 306.179688 19.175781 L 306.148438 19.589844 L 306.15625 19.824219 L 306.15625 20.574219 C 306.152344 20.613281 306.160156 20.785156 306.171875 21.089844 C 306.179688 21.242188 306.183594 21.347656 306.1875 21.402344 L 306.179688 22.457031 L 306.199219 23.480469 L 306.164063 24.214844 L 306.210938 26.292969 C 306.207031 26.890625 306.191406 27.351563 306.164063 27.675781 L 306.15625 27.800781 L 306.210938 28.777344 C 306.214844 28.886719 306.234375 28.960938 306.269531 29 C 306.300781 29.039063 306.375 29.070313 306.492188 29.097656 C 306.730469 29.148438 307.054688 29.175781 307.460938 29.175781 L 307.789063 29.167969 C 307.929688 29.164063 308.0625 29.167969 308.195313 29.175781 L 308.210938 29.511719 L 305.171875 29.511719 L 305.125 27.957031 L 305.203125 26.238281 C 305.207031 25.953125 305.210938 25.601563 305.210938 25.175781 C 305.210938 24.976563 305.207031 24.832031 305.203125 24.746094 L 305.164063 24.074219 L 305.1875 21.769531 L 305.15625 20.792969 C 305.152344 20.320313 305.160156 19.984375 305.175781 19.789063 C 305.1875 19.59375 305.191406 19.449219 305.195313 19.355469 L 305.164063 18.527344 L 305.179688 17.417969 L 305.164063 16.027344 Z M 313.507813 25.785156 L 309.929688 25.785156 C 309.921875 25.742188 309.921875 25.703125 309.921875 25.667969 C 309.921875 25.582031 309.9375 25.519531 309.976563 25.484375 C 310.007813 25.453125 310.125 25.417969 310.320313 25.378906 C 310.621094 25.316406 310.863281 25.242188 311.054688 25.152344 C 311.101563 25.039063 311.128906 24.933594 311.132813 24.832031 L 311.132813 24.347656 C 311.128906 24.292969 311.136719 24.03125 311.15625 23.558594 C 311.160156 23.382813 311.164063 22.617188 311.171875 21.261719 L 311.1875 19.425781 L 311.171875 18.355469 C 311.167969 18.203125 311.175781 17.710938 311.1875 16.878906 C 310.003906 17.726563 309.355469 18.148438 309.242188 18.144531 C 309.199219 18.148438 309.152344 18.125 309.109375 18.078125 C 309.058594 18.035156 309.035156 17.992188 309.039063 17.949219 C 309.035156 17.898438 309.054688 17.859375 309.09375 17.824219 C 309.164063 17.761719 309.339844 17.648438 309.617188 17.488281 C 309.65625 17.46875 309.835938 17.328125 310.15625 17.066406 C 310.660156 16.648438 311.027344 16.316406 311.265625 16.074219 C 311.496094 15.835938 311.640625 15.703125 311.695313 15.667969 C 311.796875 15.667969 311.878906 15.664063 311.9375 15.660156 C 312.070313 15.664063 312.152344 15.6875 312.191406 15.726563 C 312.222656 15.773438 312.242188 15.933594 312.242188 16.207031 L 312.1875 23.175781 L 312.1875 23.863281 C 312.183594 24.03125 312.179688 24.199219 312.179688 24.367188 C 312.171875 24.539063 312.171875 24.664063 312.171875 24.738281 C 312.171875 24.929688 312.195313 25.050781 312.242188 25.105469 C 312.273438 25.144531 312.367188 25.191406 312.53125 25.246094 L 313.0625 25.355469 C 313.289063 25.414063 313.414063 25.453125 313.4375 25.472656 C 313.488281 25.519531 313.511719 25.59375 313.515625 25.6875 Z M 315.007813 16.113281 L 315 15.785156 L 315.351563 15.769531 L 315.65625 15.769531 L 317.773438 15.761719 C 317.855469 15.765625 317.949219 15.773438 318.0625 15.792969 L 318.046875 16.652344 L 318.054688 16.808594 C 318.070313 17.15625 318.078125 17.519531 318.078125 17.902344 C 318.078125 18.085938 318.066406 18.308594 318.046875 18.570313 C 318.023438 18.835938 318.011719 19.015625 318.015625 19.105469 C 318.011719 19.9375 318.035156 20.644531 318.078125 21.222656 L 318.078125 21.871094 L 318.09375 22.925781 L 318.078125 23.316406 L 318.101563 25.074219 C 318.101563 25.195313 318.097656 25.339844 318.089844 25.507813 C 318.082031 25.679688 318.078125 25.800781 318.078125 25.878906 C 318.078125 25.953125 318.085938 26.25 318.109375 26.769531 L 318.101563 28.269531 L 318.125 29.191406 C 318.125 29.28125 318.121094 29.390625 318.117188 29.519531 L 315.0625 29.527344 L 315.054688 29.191406 L 315.195313 29.191406 C 315.253906 29.1875 315.339844 29.1875 315.460938 29.195313 C 315.578125 29.195313 315.679688 29.199219 315.757813 29.199219 C 316.433594 29.199219 316.855469 29.144531 317.023438 29.042969 C 317.0625 28.863281 317.082031 28.488281 317.085938 27.910156 L 317.078125 27.542969 L 317.085938 26.738281 L 317.085938 26.160156 C 317.082031 26.082031 317.089844 25.949219 317.109375 25.753906 L 317.109375 25.277344 L 317.039063 21.941406 C 317.035156 21.882813 317.039063 21.761719 317.054688 21.574219 C 317.0625 21.328125 317.070313 21.148438 317.070313 21.042969 C 317.070313 20.800781 317.054688 20.152344 317.023438 19.097656 C 317.011719 18.734375 317.003906 18.507813 317.007813 18.417969 C 317.003906 18.277344 317.019531 17.980469 317.054688 17.519531 L 317.015625 16.722656 L 317.007813 16.464844 C 316.992188 16.425781 316.972656 16.359375 316.945313 16.269531 C 316.785156 16.214844 316.648438 16.179688 316.53125 16.160156 C 316.472656 16.160156 315.964844 16.144531 315.007813 16.113281 Z M 319.671875 25.800781 "
       id="path204" />
    <path
       style=" stroke:none;fill-rule:evenodd;fill:rgb(100%,100%,100%);fill-opacity:1;"
       d="M 294.4375 58.414063 L 329.585938 58.414063 L 329.585938 93.574219 L 294.4375 93.574219 Z M 294.4375 58.414063 "
       id="path206" />
    <g
       clip-path="url(#clip11)"
       clip-rule="nonzero"
       id="g210">
      <path
         style="fill:none;stroke-width:0.3;stroke-linecap:butt;stroke-linejoin:miter;stroke:rgb(0%,0%,0%);stroke-opacity:1;stroke-miterlimit:4;"
         d="M 33.811552 47.248681 L 46.211139 47.248681 L 46.211139 59.652402 L 33.811552 59.652402 Z M 33.811552 47.248681 "
         transform="matrix(2.834646,0,0,2.834646,198.593722,-75.519217)"
         id="path208" />
    </g>
    <path
       style=" stroke:none;fill-rule:nonzero;fill:rgb(0%,0%,0%);fill-opacity:1;"
       d="M 305.179688 69.761719 L 308.210938 69.777344 L 308.226563 70.105469 L 307.144531 70.089844 C 306.707031 70.09375 306.414063 70.140625 306.273438 70.230469 L 306.242188 70.269531 C 306.203125 70.511719 306.183594 70.921875 306.1875 71.496094 L 306.199219 71.816406 L 306.179688 72.574219 L 306.179688 73.175781 L 306.148438 73.589844 L 306.15625 73.824219 L 306.15625 74.574219 C 306.152344 74.613281 306.160156 74.785156 306.171875 75.089844 C 306.179688 75.242188 306.183594 75.347656 306.1875 75.402344 L 306.179688 76.457031 L 306.199219 77.480469 L 306.164063 78.214844 L 306.210938 80.292969 C 306.207031 80.890625 306.191406 81.351563 306.164063 81.675781 L 306.15625 81.800781 L 306.210938 82.777344 C 306.214844 82.886719 306.234375 82.960938 306.269531 83 C 306.300781 83.039063 306.375 83.070313 306.492188 83.097656 C 306.730469 83.148438 307.054688 83.175781 307.460938 83.175781 L 307.789063 83.167969 C 307.929688 83.164063 308.0625 83.167969 308.195313 83.175781 L 308.210938 83.511719 L 305.171875 83.511719 L 305.125 81.957031 L 305.203125 80.238281 C 305.207031 79.953125 305.210938 79.601563 305.210938 79.175781 C 305.210938 78.976563 305.207031 78.832031 305.203125 78.746094 L 305.164063 78.074219 L 305.1875 75.769531 L 305.15625 74.792969 C 305.152344 74.320313 305.160156 73.984375 305.175781 73.789063 C 305.1875 73.59375 305.191406 73.449219 305.195313 73.355469 L 305.164063 72.527344 L 305.179688 71.417969 L 305.164063 70.027344 Z M 314.65625 79.785156 C 313.875 79.757813 312.828125 79.742188 311.515625 79.738281 L 309.820313 79.785156 L 309.0625 79.761719 L 308.460938 79.785156 C 308.394531 79.78125 308.304688 79.769531 308.1875 79.746094 C 308.28125 79.53125 308.398438 79.328125 308.546875 79.144531 C 308.976563 78.613281 309.609375 77.929688 310.445313 77.089844 C 311.609375 75.921875 312.378906 75 312.75 74.328125 C 313.117188 73.660156 313.300781 73.03125 313.304688 72.441406 C 313.300781 71.890625 313.113281 71.429688 312.742188 71.050781 C 312.363281 70.679688 311.902344 70.492188 311.359375 70.488281 C 311.027344 70.492188 310.710938 70.566406 310.40625 70.71875 C 310.097656 70.875 309.851563 71.070313 309.664063 71.300781 C 309.542969 71.453125 309.382813 71.753906 309.1875 72.207031 C 309.074219 72.457031 309.007813 72.59375 308.992188 72.613281 C 308.957031 72.652344 308.921875 72.671875 308.882813 72.667969 C 308.839844 72.671875 308.800781 72.648438 308.761719 72.601563 C 308.722656 72.558594 308.703125 72.503906 308.703125 72.433594 C 308.703125 72.203125 308.820313 71.828125 309.058594 71.308594 C 309.292969 70.796875 309.640625 70.390625 310.105469 70.097656 C 310.5625 69.808594 311.097656 69.664063 311.710938 69.660156 C 312.503906 69.664063 313.171875 69.921875 313.707031 70.4375 C 314.238281 70.957031 314.503906 71.578125 314.507813 72.292969 C 314.503906 72.863281 314.320313 73.4375 313.960938 74.023438 C 313.59375 74.609375 312.757813 75.507813 311.445313 76.714844 C 311.011719 77.113281 310.703125 77.40625 310.523438 77.589844 C 310.339844 77.78125 309.972656 78.1875 309.421875 78.808594 C 310.214844 78.84375 310.9375 78.859375 311.59375 78.855469 C 311.730469 78.859375 311.886719 78.851563 312.054688 78.839844 C 312.359375 78.832031 312.539063 78.828125 312.59375 78.824219 L 313.679688 78.847656 C 313.796875 78.851563 313.921875 78.792969 314.046875 78.675781 C 314.171875 78.5625 314.339844 78.242188 314.554688 77.707031 L 314.742188 77.699219 C 314.765625 77.703125 314.804688 77.707031 314.859375 77.707031 C 314.882813 77.761719 314.894531 77.800781 314.898438 77.824219 L 314.882813 77.886719 C 314.839844 78.039063 314.804688 78.316406 314.773438 78.714844 C 314.75 78.953125 314.710938 79.308594 314.65625 79.785156 Z M 315.007813 70.113281 L 315 69.785156 L 315.351563 69.769531 L 315.65625 69.769531 L 317.773438 69.761719 C 317.855469 69.765625 317.949219 69.773438 318.0625 69.792969 L 318.046875 70.652344 L 318.054688 70.808594 C 318.070313 71.15625 318.078125 71.519531 318.078125 71.902344 C 318.078125 72.085938 318.066406 72.308594 318.046875 72.570313 C 318.023438 72.835938 318.011719 73.015625 318.015625 73.105469 C 318.011719 73.9375 318.035156 74.644531 318.078125 75.222656 L 318.078125 75.871094 L 318.09375 76.925781 L 318.078125 77.316406 L 318.101563 79.074219 C 318.101563 79.195313 318.097656 79.339844 318.089844 79.507813 C 318.082031 79.679688 318.078125 79.800781 318.078125 79.878906 C 318.078125 79.953125 318.085938 80.25 318.109375 80.769531 L 318.101563 82.269531 L 318.125 83.191406 C 318.125 83.28125 318.121094 83.390625 318.117188 83.519531 L 315.0625 83.527344 L 315.054688 83.191406 L 315.195313 83.191406 C 315.253906 83.1875 315.339844 83.1875 315.460938 83.195313 C 315.578125 83.195313 315.679688 83.199219 315.757813 83.199219 C 316.433594 83.199219 316.855469 83.144531 317.023438 83.042969 C 317.0625 82.863281 317.082031 82.488281 317.085938 81.910156 L 317.078125 81.542969 L 317.085938 80.738281 L 317.085938 80.160156 C 317.082031 80.082031 317.089844 79.949219 317.109375 79.753906 L 317.109375 79.277344 L 317.039063 75.941406 C 317.035156 75.882813 317.039063 75.761719 317.054688 75.574219 C 317.0625 75.328125 317.070313 75.148438 317.070313 75.042969 C 317.070313 74.800781 317.054688 74.152344 317.023438 73.097656 C 317.011719 72.734375 317.003906 72.507813 317.007813 72.417969 C 317.003906 72.277344 317.019531 71.980469 317.054688 71.519531 L 317.015625 70.722656 L 317.007813 70.464844 C 316.992188 70.425781 316.972656 70.359375 316.945313 70.269531 C 316.785156 70.214844 316.648438 70.179688 316.53125 70.160156 C 316.472656 70.160156 315.964844 70.144531 315.007813 70.113281 Z M 319.671875 79.800781 "
       id="path212" />
    <path
       style=" stroke:none;fill-rule:evenodd;fill:rgb(100%,100%,100%);fill-opacity:1;"
       d="M 294.4375 112.414063 L 329.585938 112.414063 L 329.585938 147.574219 L 294.4375 147.574219 Z M 294.4375 112.414063 "
       id="path214" />
    <g
       clip-path="url(#clip12)"
       clip-rule="nonzero"
       id="g218">
      <path
         style="fill:none;stroke-width:0.3;stroke-linecap:butt;stroke-linejoin:miter;stroke:rgb(0%,0%,0%);stroke-opacity:1;stroke-miterlimit:4;"
         d="M 33.811552 47.248681 L 46.211139 47.248681 L 46.211139 59.652402 L 33.811552 59.652402 Z M 33.811552 47.248681 "
         transform="matrix(2.834646,0,0,2.834646,198.593722,-21.519217)"
         id="path216" />
    </g>
    <path
       style=" stroke:none;fill-rule:nonzero;fill:rgb(0%,0%,0%);fill-opacity:1;"
       d="M 305.179688 123.761719 L 308.210938 123.777344 L 308.226563 124.105469 L 307.144531 124.089844 C 306.707031 124.09375 306.414063 124.140625 306.273438 124.230469 L 306.242188 124.269531 C 306.203125 124.511719 306.183594 124.921875 306.1875 125.496094 L 306.199219 125.816406 L 306.179688 126.574219 L 306.179688 127.175781 L 306.148438 127.589844 L 306.15625 127.824219 L 306.15625 128.574219 C 306.152344 128.613281 306.160156 128.785156 306.171875 129.089844 C 306.179688 129.242188 306.183594 129.347656 306.1875 129.402344 L 306.179688 130.457031 L 306.199219 131.480469 L 306.164063 132.214844 L 306.210938 134.292969 C 306.207031 134.890625 306.191406 135.351563 306.164063 135.675781 L 306.15625 135.800781 L 306.210938 136.777344 C 306.214844 136.886719 306.234375 136.960938 306.269531 137 C 306.300781 137.039063 306.375 137.070313 306.492188 137.097656 C 306.730469 137.148438 307.054688 137.175781 307.460938 137.175781 L 307.789063 137.167969 C 307.929688 137.164063 308.0625 137.167969 308.195313 137.175781 L 308.210938 137.511719 L 305.171875 137.511719 L 305.125 135.957031 L 305.203125 134.238281 C 305.207031 133.953125 305.210938 133.601563 305.210938 133.175781 C 305.210938 132.976563 305.207031 132.832031 305.203125 132.746094 L 305.164063 132.074219 L 305.1875 129.769531 L 305.15625 128.792969 C 305.152344 128.320313 305.160156 127.984375 305.175781 127.789063 C 305.1875 127.59375 305.191406 127.449219 305.195313 127.355469 L 305.164063 126.527344 L 305.179688 125.417969 L 305.164063 124.027344 Z M 309.171875 125.925781 L 308.914063 125.785156 C 309.242188 124.988281 309.632813 124.429688 310.085938 124.101563 C 310.539063 123.78125 311.066406 123.617188 311.671875 123.613281 C 312.230469 123.617188 312.679688 123.742188 313.023438 123.988281 C 313.523438 124.367188 313.777344 124.789063 313.78125 125.253906 C 313.777344 125.636719 313.648438 126.019531 313.394531 126.402344 C 313.132813 126.789063 312.679688 127.222656 312.039063 127.699219 L 312.226563 127.691406 C 312.628906 127.695313 313.023438 127.796875 313.402344 128 C 313.777344 128.207031 314.074219 128.527344 314.296875 128.960938 C 314.511719 129.398438 314.621094 129.867188 314.625 130.363281 C 314.621094 131.371094 314.253906 132.230469 313.519531 132.945313 C 312.78125 133.660156 311.839844 134.015625 310.703125 134.019531 C 309.835938 134.015625 309.199219 133.894531 308.789063 133.644531 C 308.5625 133.515625 308.449219 133.351563 308.453125 133.152344 C 308.449219 133.046875 308.496094 132.949219 308.589844 132.855469 C 308.679688 132.769531 308.792969 132.722656 308.929688 132.722656 C 309.097656 132.722656 309.304688 132.816406 309.554688 133.003906 C 310.128906 133.449219 310.632813 133.671875 311.0625 133.667969 C 311.707031 133.671875 312.28125 133.398438 312.78125 132.851563 C 313.28125 132.308594 313.53125 131.625 313.53125 130.792969 C 313.53125 130.109375 313.363281 129.542969 313.027344 129.101563 C 312.691406 128.664063 312.265625 128.445313 311.75 128.441406 C 311.363281 128.445313 310.960938 128.628906 310.546875 128.988281 L 310.359375 128.675781 C 310.617188 128.453125 310.851563 128.261719 311.0625 128.105469 C 311.695313 127.644531 312.167969 127.191406 312.484375 126.738281 C 312.703125 126.417969 312.816406 126.132813 312.820313 125.886719 C 312.816406 125.476563 312.671875 125.128906 312.382813 124.84375 C 312.089844 124.5625 311.707031 124.421875 311.234375 124.417969 C 310.453125 124.421875 309.765625 124.921875 309.171875 125.925781 Z M 315.007813 124.113281 L 315 123.785156 L 315.351563 123.769531 L 315.65625 123.769531 L 317.773438 123.761719 C 317.855469 123.765625 317.949219 123.773438 318.0625 123.792969 L 318.046875 124.652344 L 318.054688 124.808594 C 318.070313 125.15625 318.078125 125.519531 318.078125 125.902344 C 318.078125 126.085938 318.066406 126.308594 318.046875 126.570313 C 318.023438 126.835938 318.011719 127.015625 318.015625 127.105469 C 318.011719 127.9375 318.035156 128.644531 318.078125 129.222656 L 318.078125 129.871094 L 318.09375 130.925781 L 318.078125 131.316406 L 318.101563 133.074219 C 318.101563 133.195313 318.097656 133.339844 318.089844 133.507813 C 318.082031 133.679688 318.078125 133.800781 318.078125 133.878906 C 318.078125 133.953125 318.085938 134.25 318.109375 134.769531 L 318.101563 136.269531 L 318.125 137.191406 C 318.125 137.28125 318.121094 137.390625 318.117188 137.519531 L 315.0625 137.527344 L 315.054688 137.191406 L 315.195313 137.191406 C 315.253906 137.1875 315.339844 137.1875 315.460938 137.195313 C 315.578125 137.195313 315.679688 137.199219 315.757813 137.199219 C 316.433594 137.199219 316.855469 137.144531 317.023438 137.042969 C 317.0625 136.863281 317.082031 136.488281 317.085938 135.910156 L 317.078125 135.542969 L 317.085938 134.738281 L 317.085938 134.160156 C 317.082031 134.082031 317.089844 133.949219 317.109375 133.753906 L 317.109375 133.277344 L 317.039063 129.941406 C 317.035156 129.882813 317.039063 129.761719 317.054688 129.574219 C 317.0625 129.328125 317.070313 129.148438 317.070313 129.042969 C 317.070313 128.800781 317.054688 128.152344 317.023438 127.097656 C 317.011719 126.734375 317.003906 126.507813 317.007813 126.417969 C 317.003906 126.277344 317.019531 125.980469 317.054688 125.519531 L 317.015625 124.722656 L 317.007813 124.464844 C 316.992188 124.425781 316.972656 124.359375 316.945313 124.269531 C 316.785156 124.214844 316.648438 124.179688 316.53125 124.160156 C 316.472656 124.160156 315.964844 124.144531 315.007813 124.113281 Z M 319.671875 133.800781 "
       id="path220" />
  </g>
</svg>
