<?xml version="1.0" encoding="UTF-8" standalone="no"?>
<svg
   xmlns:dc="http://purl.org/dc/elements/1.1/"
   xmlns:cc="http://creativecommons.org/ns#"
   xmlns:rdf="http://www.w3.org/1999/02/22-rdf-syntax-ns#"
   xmlns:svg="http://www.w3.org/2000/svg"
   xmlns="http://www.w3.org/2000/svg"
   xmlns:sodipodi="http://sodipodi.sourceforge.net/DTD/sodipodi-0.dtd"
   xmlns:inkscape="http://www.inkscape.org/namespaces/inkscape"
   width="284pt"
   height="80pt"
   viewBox="0 0 284 80"
   version="1.1"
   id="svg90"
   sodipodi:docname="intro_lmc.svg"
   inkscape:version="0.92.1 r15371">
  <metadata
     id="metadata94">
    <rdf:RDF>
      <cc:Work
         rdf:about="">
        <dc:format>image/svg+xml</dc:format>
        <dc:type
           rdf:resource="http://purl.org/dc/dcmitype/StillImage" />
        <dc:title></dc:title>
      </cc:Work>
    </rdf:RDF>
  </metadata>
  <sodipodi:namedview
     pagecolor="#ffffff"
     bordercolor="#666666"
     borderopacity="1"
     objecttolerance="10"
     gridtolerance="10"
     guidetolerance="10"
     inkscape:pageopacity="0"
     inkscape:pageshadow="2"
     inkscape:window-width="3840"
     inkscape:window-height="2043"
     id="namedview92"
     showgrid="false"
     inkscape:zoom="5.6543644"
     inkscape:cx="165.6672"
     inkscape:cy="75.775741"
     inkscape:window-x="2147"
     inkscape:window-y="-13"
     inkscape:window-maximized="1"
     inkscape:current-layer="svg90" />
  <defs
     id="defs11">
    <clipPath
       id="clip1">
      <path
         d="M 7 40 L 43 40 L 43 76 L 7 76 Z M 7 40 "
         id="path2" />
    </clipPath>
    <clipPath
       id="clip2">
      <path
         d="M 124 7 L 160 7 L 160 43 L 124 43 Z M 124 7 "
         id="path5" />
    </clipPath>
    <clipPath
       id="clip3">
      <path
         d="M 241 40 L 277 40 L 277 76 L 241 76 Z M 241 40 "
         id="path8" />
    </clipPath>
  </defs>
  <g
     id="surface41">
    <path
       style=" stroke:none;fill-rule:evenodd;fill:rgb(100%,100%,100%);fill-opacity:1;"
       d="M 7.4375 40.414063 L 42.585938 40.414063 L 42.585938 75.574219 L 7.4375 75.574219 Z M 7.4375 40.414063 "
       id="path15" />
    <g
       clip-path="url(#clip1)"
       clip-rule="nonzero"
       id="g19">
      <path
         style="fill:none;stroke-width:0.3;stroke-linecap:butt;stroke-linejoin:miter;stroke:rgb(0%,0%,0%);stroke-opacity:1;stroke-miterlimit:4;"
         d="M 33.811552 47.248681 L 46.211139 47.248681 L 46.211139 59.652402 L 33.811552 59.652402 Z M 33.811552 47.248681 "
         transform="matrix(2.834646,0,0,2.834646,-88.406278,-93.519217)"
         id="path17" />
    </g>
    <path
       style=" stroke:none;fill-rule:nonzero;fill:rgb(0%,0%,0%);fill-opacity:1;"
       d="M 27.789063 62.980469 L 23.316406 62.980469 C 23.308594 62.925781 23.304688 62.875 23.308594 62.835938 C 23.304688 62.726563 23.328125 62.652344 23.375 62.605469 C 23.417969 62.566406 23.5625 62.519531 23.804688 62.472656 C 24.179688 62.394531 24.484375 62.300781 24.722656 62.1875 C 24.785156 62.050781 24.816406 61.917969 24.820313 61.789063 L 24.820313 61.183594 C 24.816406 61.113281 24.828125 60.785156 24.847656 60.195313 C 24.855469 59.980469 24.863281 59.023438 24.871094 57.328125 L 24.886719 55.03125 L 24.871094 53.695313 C 24.871094 53.5 24.875 52.886719 24.886719 51.847656 C 23.40625 52.90625 22.597656 53.433594 22.457031 53.429688 C 22.402344 53.433594 22.34375 53.40625 22.289063 53.347656 C 22.226563 53.296875 22.199219 53.242188 22.203125 53.1875 C 22.199219 53.121094 22.222656 53.070313 22.269531 53.03125 C 22.363281 52.949219 22.582031 52.808594 22.925781 52.609375 C 22.976563 52.585938 23.199219 52.410156 23.597656 52.082031 C 24.226563 51.558594 24.6875 51.144531 24.984375 50.839844 C 25.273438 50.542969 25.453125 50.375 25.523438 50.335938 C 25.648438 50.332031 25.75 50.328125 25.824219 50.324219 C 25.992188 50.328125 26.097656 50.355469 26.144531 50.410156 C 26.183594 50.46875 26.207031 50.667969 26.207031 51.007813 L 26.136719 59.714844 L 26.136719 60.578125 C 26.136719 60.789063 26.132813 60.996094 26.128906 61.207031 C 26.121094 61.417969 26.117188 61.574219 26.121094 61.671875 C 26.117188 61.910156 26.148438 62.0625 26.207031 62.128906 C 26.246094 62.179688 26.363281 62.238281 26.566406 62.304688 L 27.230469 62.441406 C 27.515625 62.519531 27.671875 62.566406 27.699219 62.589844 C 27.765625 62.648438 27.800781 62.738281 27.800781 62.855469 Z M 30.074219 63 "
       id="path21" />
    <path
       style="fill:none;stroke-width:1;stroke-linecap:butt;stroke-linejoin:miter;stroke:rgb(0%,0%,0%);stroke-opacity:1;stroke-miterlimit:4;"
       d="M 10.867188 -36.152344 C 9.3125 -45.539063 12.6875 -54 21 -54 C 26.066406 -54 29.296875 -50.859375 30.699219 -46.28125 "
       transform="matrix(1,0,0,1,4,76)"
       id="path23" />
    <path
       style="fill:none;stroke-width:1;stroke-linecap:butt;stroke-linejoin:miter;stroke:rgb(0%,0%,0%);stroke-opacity:1;stroke-miterlimit:4;"
       d="M 34.199219 -46.292969 L 31.132813 -36.152344 L 27.207031 -45.992188 Z M 34.199219 -46.292969 "
       transform="matrix(1,0,0,1,4,76)"
       id="path25" />
    <path
       style=" stroke:none;fill-rule:nonzero;fill:rgb(0%,0%,0%);fill-opacity:1;"
       d="M 11 10.871094 C 10.996094 11.410156 10.957031 11.886719 10.882813 12.300781 C 10.738281 13.023438 10.542969 13.625 10.296875 14.105469 C 10.042969 14.59375 9.746094 15 9.40625 15.332031 C 9.152344 15.578125 8.886719 15.753906 8.609375 15.867188 C 8.324219 15.976563 8.039063 16.035156 7.75 16.035156 C 7.234375 16.035156 6.746094 15.863281 6.285156 15.519531 C 5.824219 15.175781 5.421875 14.609375 5.078125 13.816406 C 4.734375 13.027344 4.5625 12.09375 4.5625 11.019531 C 4.5625 10.183594 4.664063 9.378906 4.875 8.605469 C 5.078125 7.835938 5.355469 7.238281 5.699219 6.8125 C 6.039063 6.390625 6.375 6.085938 6.714844 5.894531 C 7.046875 5.710938 7.414063 5.617188 7.8125 5.613281 C 8.367188 5.617188 8.90625 5.835938 9.433594 6.269531 C 9.953125 6.710938 10.371094 7.390625 10.6875 8.308594 C 10.890625 8.929688 10.996094 9.785156 11 10.871094 Z M 9.828125 10.613281 C 9.820313 9.335938 9.773438 8.464844 9.6875 8.003906 C 9.539063 7.25 9.300781 6.722656 8.972656 6.417969 C 8.640625 6.121094 8.253906 5.96875 7.816406 5.964844 C 7.441406 5.96875 7.09375 6.089844 6.765625 6.324219 C 6.4375 6.566406 6.210938 6.941406 6.085938 7.449219 C 5.871094 8.28125 5.761719 9.535156 5.765625 11.214844 C 5.761719 12.882813 5.929688 14.046875 6.261719 14.710938 C 6.589844 15.375 7.082031 15.707031 7.746094 15.707031 C 8.195313 15.707031 8.585938 15.566406 8.917969 15.285156 C 9.246094 15.003906 9.484375 14.484375 9.628906 13.71875 C 9.769531 12.960938 9.839844 12.105469 9.835938 11.152344 Z M 12.4375 15.167969 C 12.4375 14.941406 12.519531 14.742188 12.691406 14.566406 C 12.859375 14.398438 13.058594 14.3125 13.285156 14.308594 C 13.5 14.3125 13.683594 14.394531 13.839844 14.550781 C 13.988281 14.714844 14.066406 14.917969 14.070313 15.160156 C 14.066406 15.410156 13.984375 15.613281 13.828125 15.777344 C 13.664063 15.941406 13.472656 16.023438 13.253906 16.027344 C 13.03125 16.023438 12.839844 15.941406 12.679688 15.773438 C 12.515625 15.605469 12.4375 15.402344 12.4375 15.167969 Z M 20.671875 15.785156 L 17.09375 15.785156 C 17.085938 15.742188 17.085938 15.703125 17.085938 15.667969 C 17.085938 15.582031 17.101563 15.519531 17.140625 15.484375 C 17.171875 15.453125 17.289063 15.417969 17.484375 15.378906 C 17.785156 15.316406 18.027344 15.242188 18.21875 15.152344 C 18.265625 15.039063 18.292969 14.933594 18.296875 14.832031 L 18.296875 14.347656 C 18.292969 14.292969 18.300781 14.03125 18.320313 13.558594 C 18.324219 13.382813 18.328125 12.617188 18.335938 11.261719 L 18.351563 9.425781 L 18.335938 8.355469 C 18.332031 8.203125 18.339844 7.710938 18.351563 6.878906 C 17.167969 7.726563 16.519531 8.148438 16.40625 8.144531 C 16.363281 8.148438 16.316406 8.125 16.273438 8.078125 C 16.222656 8.035156 16.199219 7.992188 16.203125 7.949219 C 16.199219 7.898438 16.21875 7.859375 16.257813 7.824219 C 16.328125 7.761719 16.503906 7.648438 16.78125 7.488281 C 16.820313 7.46875 17 7.328125 17.320313 7.066406 C 17.824219 6.648438 18.191406 6.316406 18.429688 6.074219 C 18.660156 5.835938 18.804688 5.703125 18.859375 5.667969 C 18.960938 5.667969 19.042969 5.664063 19.101563 5.660156 C 19.234375 5.664063 19.316406 5.6875 19.355469 5.726563 C 19.386719 5.773438 19.40625 5.933594 19.40625 6.207031 L 19.351563 13.175781 L 19.351563 13.863281 C 19.347656 14.03125 19.34375 14.199219 19.34375 14.367188 C 19.335938 14.539063 19.335938 14.664063 19.335938 14.738281 C 19.335938 14.929688 19.359375 15.050781 19.40625 15.105469 C 19.4375 15.144531 19.53125 15.191406 19.695313 15.246094 L 20.226563 15.355469 C 20.453125 15.414063 20.578125 15.453125 20.601563 15.472656 C 20.652344 15.519531 20.675781 15.59375 20.679688 15.6875 Z M 23.414063 10.394531 C 23.414063 10.199219 23.496094 10.015625 23.660156 9.847656 C 23.824219 9.683594 24.011719 9.601563 24.226563 9.597656 C 24.453125 9.601563 24.652344 9.6875 24.828125 9.855469 C 24.996094 10.03125 25.082031 10.230469 25.085938 10.449219 C 25.082031 10.707031 24.984375 10.9375 24.789063 11.144531 C 24.65625 11.292969 24.464844 11.367188 24.210938 11.363281 C 23.980469 11.367188 23.789063 11.28125 23.640625 11.113281 C 23.488281 10.949219 23.414063 10.710938 23.414063 10.394531 Z M 23.453125 15.152344 C 23.449219 14.925781 23.535156 14.726563 23.707031 14.550781 C 23.878906 14.382813 24.074219 14.296875 24.300781 14.292969 C 24.511719 14.296875 24.695313 14.375 24.851563 14.535156 C 25.003906 14.699219 25.082031 14.902344 25.085938 15.144531 C 25.082031 15.390625 25.003906 15.597656 24.84375 15.761719 C 24.683594 15.929688 24.492188 16.011719 24.269531 16.011719 C 24.007813 16.011719 23.804688 15.914063 23.664063 15.71875 C 23.519531 15.523438 23.449219 15.335938 23.453125 15.152344 Z M 26 15.800781 "
       id="path27" />
    <path
       style=" stroke:none;fill-rule:nonzero;fill:rgb(0%,0%,0%);fill-opacity:1;"
       d="M 39.003906 7.800781 C 38.984375 7.433594 38.90625 6.992188 38.773438 6.484375 C 38.636719 5.976563 38.417969 5.53125 38.113281 5.140625 C 37.804688 4.753906 37.378906 4.546875 36.84375 4.523438 C 36.277344 4.539063 35.738281 4.792969 35.226563 5.285156 C 34.710938 5.78125 34.257813 6.429688 33.863281 7.234375 C 33.46875 8.042969 33.171875 8.925781 32.96875 9.875 C 32.765625 10.828125 32.695313 11.765625 32.761719 12.695313 C 32.792969 13.210938 32.886719 13.71875 33.042969 14.21875 C 33.195313 14.71875 33.425781 15.132813 33.734375 15.460938 C 34.039063 15.789063 34.433594 15.960938 34.921875 15.976563 C 35.488281 15.960938 36.03125 15.703125 36.546875 15.203125 C 37.058594 14.703125 37.511719 14.046875 37.90625 13.230469 C 38.292969 12.421875 38.589844 11.542969 38.792969 10.589844 C 38.992188 9.644531 39.0625 8.714844 39.003906 7.800781 Z M 37.59375 9.992188 L 34.246094 9.992188 C 34.339844 9.476563 34.457031 8.917969 34.605469 8.316406 C 34.746094 7.722656 34.957031 7.132813 35.238281 6.550781 C 35.414063 6.140625 35.636719 5.761719 35.90625 5.417969 C 36.171875 5.074219 36.488281 4.894531 36.847656 4.871094 C 37.226563 4.898438 37.484375 5.105469 37.628906 5.5 C 37.765625 5.894531 37.851563 6.332031 37.882813 6.808594 C 37.910156 7.1875 37.902344 7.617188 37.859375 8.101563 C 37.816406 8.585938 37.726563 9.21875 37.59375 9.992188 Z M 37.484375 10.503906 C 37.429688 10.890625 37.335938 11.382813 37.199219 11.972656 C 37.0625 12.570313 36.863281 13.164063 36.609375 13.753906 C 36.367188 14.3125 36.105469 14.757813 35.824219 15.097656 C 35.539063 15.441406 35.226563 15.617188 34.886719 15.625 C 34.617188 15.640625 34.398438 15.503906 34.226563 15.210938 C 34.050781 14.921875 33.9375 14.410156 33.886719 13.671875 C 33.851563 13.347656 33.851563 12.929688 33.890625 12.425781 C 33.921875 11.921875 34.011719 11.28125 34.15625 10.503906 Z M 38.808594 15.800781 "
       id="path29" />
    <path
       style="fill:#000000;fill-opacity:1;fill-rule:nonzero;stroke:none"
       d="M 44.671875,20.285156 H 41.09375 c -0.0078,-0.04297 -0.0078,-0.08203 -0.0078,-0.117187 0,-0.08594 0.01563,-0.148438 0.05469,-0.183594 0.03125,-0.03125 0.148438,-0.06641 0.34375,-0.105469 0.300781,-0.0625 0.542969,-0.136718 0.734375,-0.226562 0.04687,-0.113281 0.07422,-0.21875 0.07813,-0.320313 v -0.484375 c -0.0039,-0.05469 0.0039,-0.316406 0.02344,-0.789062 0.0039,-0.175781 0.0078,-0.941406 0.01563,-2.296875 l 0.01563,-1.835938 -0.01563,-1.070312 c -0.0039,-0.152344 0.0039,-0.644531 0.01563,-1.476563 -1.183594,0.847657 -1.832032,1.269532 -1.945313,1.265625 -0.04297,0.0039 -0.08984,-0.01953 -0.132812,-0.06641 -0.05078,-0.04297 -0.07422,-0.08594 -0.07031,-0.128906 -0.0039,-0.05078 0.01563,-0.08984 0.05469,-0.125 0.07031,-0.0625 0.246093,-0.175781 0.523437,-0.335938 0.03903,-0.01953 0.218713,-0.160156 0.539026,-0.421875 0.503906,-0.417968 0.871093,-0.75 1.109375,-0.992187 0.230468,-0.238281 0.375,-0.371094 0.429687,-0.40625 0.101563,0 0.183594,-0.0039 0.242188,-0.0078 0.132812,0.0039 0.214843,0.02734 0.253906,0.06641 0.03125,0.04687 0.05078,0.207031 0.05078,0.480468 l -0.05469,6.96875 v 0.6875 c -0.0039,0.167969 -0.0078,0.335938 -0.0078,0.503907 -0.0078,0.171875 -0.0078,0.296875 -0.0078,0.371093 0,0.191407 0.02344,0.3125 0.07031,0.367188 0.03125,0.03906 0.125,0.08594 0.289063,0.140625 l 0.53125,0.109375 c 0.226562,0.05859 0.351562,0.09766 0.375,0.117187 0.05078,0.04687 0.07422,0.121094 0.07813,0.214844 z M 46.5,20.300781"
       id="path31"
       inkscape:connector-curvature="0" />
    <path
       style=" stroke:none;fill-rule:evenodd;fill:rgb(100%,100%,100%);fill-opacity:1;"
       d="M 124.4375 7.414063 L 159.585938 7.414063 L 159.585938 42.574219 L 124.4375 42.574219 Z M 124.4375 7.414063 "
       id="path33" />
    <g
       clip-path="url(#clip2)"
       clip-rule="nonzero"
       id="g37">
      <path
         style="fill:none;stroke-width:0.3;stroke-linecap:butt;stroke-linejoin:miter;stroke:rgb(0%,0%,0%);stroke-opacity:1;stroke-miterlimit:4;"
         d="M 33.811552 47.248681 L 46.211139 47.248681 L 46.211139 59.652402 L 33.811552 59.652402 Z M 33.811552 47.248681 "
         transform="matrix(2.834646,0,0,2.834646,28.593722,-126.519217)"
         id="path35" />
    </g>
    <path
       style=" stroke:none;fill-rule:nonzero;fill:rgb(0%,0%,0%);fill-opacity:1;"
       d="M 145.890625 29.980469 C 144.914063 29.945313 143.605469 29.925781 141.96875 29.921875 L 139.847656 29.980469 L 138.898438 29.953125 L 138.148438 29.980469 C 138.066406 29.976563 137.953125 29.957031 137.804688 29.929688 C 137.921875 29.660156 138.074219 29.410156 138.257813 29.179688 C 138.796875 28.515625 139.585938 27.660156 140.628906 26.609375 C 142.085938 25.148438 143.046875 24 143.507813 23.160156 C 143.96875 22.328125 144.199219 21.539063 144.203125 20.800781 C 144.199219 20.113281 143.964844 19.535156 143.5 19.0625 C 143.027344 18.597656 142.453125 18.363281 141.773438 18.359375 C 141.359375 18.363281 140.960938 18.460938 140.578125 18.648438 C 140.195313 18.84375 139.886719 19.085938 139.652344 19.375 C 139.503906 19.566406 139.304688 19.941406 139.054688 20.507813 C 138.917969 20.820313 138.835938 20.992188 138.8125 21.015625 C 138.769531 21.066406 138.722656 21.089844 138.675781 21.085938 C 138.621094 21.089844 138.570313 21.0625 138.523438 21.003906 C 138.472656 20.949219 138.449219 20.875 138.453125 20.789063 C 138.449219 20.5 138.597656 20.035156 138.894531 19.386719 C 139.1875 18.746094 139.625 18.238281 140.203125 17.871094 C 140.78125 17.507813 141.449219 17.328125 142.210938 17.324219 C 143.203125 17.328125 144.035156 17.652344 144.703125 18.296875 C 145.371094 18.945313 145.703125 19.71875 145.707031 20.617188 C 145.703125 21.328125 145.476563 22.046875 145.023438 22.777344 C 144.566406 23.511719 143.519531 24.632813 141.878906 26.140625 C 141.339844 26.636719 140.953125 27 140.726563 27.234375 C 140.492188 27.46875 140.035156 27.976563 139.351563 28.757813 C 140.34375 28.800781 141.246094 28.824219 142.0625 28.820313 C 142.234375 28.824219 142.429688 28.816406 142.640625 28.796875 C 143.023438 28.789063 143.246094 28.78125 143.3125 28.78125 L 144.671875 28.808594 C 144.820313 28.8125 144.972656 28.738281 145.132813 28.59375 C 145.285156 28.453125 145.496094 28.050781 145.765625 27.382813 L 146 27.375 C 146.027344 27.375 146.078125 27.378906 146.148438 27.382813 C 146.175781 27.449219 146.191406 27.5 146.195313 27.53125 L 146.175781 27.609375 C 146.121094 27.796875 146.078125 28.140625 146.039063 28.640625 C 146.011719 28.9375 145.960938 29.386719 145.890625 29.980469 Z M 146.742188 30 "
       id="path39" />
    <path
       style="fill:none;stroke-width:1;stroke-linecap:butt;stroke-linejoin:miter;stroke:rgb(0%,0%,0%);stroke-opacity:1;stroke-miterlimit:4;"
       d="M 39.464844 -23.011719 C 58.234375 -28.398438 88.300781 -37.023438 110.09375 -43.277344 "
       transform="matrix(1,0,0,1,4,76)"
       id="path41" />
    <path
       style="fill:none;stroke-width:1;stroke-linecap:butt;stroke-linejoin:miter;stroke:rgb(0%,0%,0%);stroke-opacity:1;stroke-miterlimit:4;"
       d="M 109.167969 -46.65625 L 119.746094 -46.050781 L 111.101563 -39.925781 Z M 109.167969 -46.65625 "
       transform="matrix(1,0,0,1,4,76)"
       id="path43" />
    <path
       style=" stroke:none;fill-rule:nonzero;fill:rgb(0%,0%,0%);fill-opacity:1;"
       d="M 68 25.871094 C 67.996094 26.410156 67.957031 26.886719 67.882813 27.300781 C 67.738281 28.023438 67.542969 28.625 67.296875 29.105469 C 67.042969 29.59375 66.746094 30 66.40625 30.332031 C 66.152344 30.578125 65.886719 30.753906 65.609375 30.867188 C 65.324219 30.976563 65.039063 31.035156 64.75 31.035156 C 64.234375 31.035156 63.746094 30.863281 63.285156 30.519531 C 62.824219 30.175781 62.421875 29.609375 62.078125 28.816406 C 61.734375 28.027344 61.5625 27.09375 61.5625 26.019531 C 61.5625 25.183594 61.664063 24.378906 61.875 23.605469 C 62.078125 22.835938 62.355469 22.238281 62.699219 21.8125 C 63.039063 21.390625 63.375 21.085938 63.714844 20.894531 C 64.046875 20.710938 64.414063 20.617188 64.8125 20.613281 C 65.367188 20.617188 65.90625 20.835938 66.433594 21.269531 C 66.953125 21.710938 67.371094 22.390625 67.6875 23.308594 C 67.890625 23.929688 67.996094 24.785156 68 25.871094 Z M 66.828125 25.613281 C 66.820313 24.335938 66.773438 23.464844 66.6875 23.003906 C 66.539063 22.25 66.300781 21.722656 65.972656 21.417969 C 65.640625 21.121094 65.253906 20.96875 64.816406 20.964844 C 64.441406 20.96875 64.09375 21.089844 63.765625 21.324219 C 63.4375 21.566406 63.210938 21.941406 63.085938 22.449219 C 62.871094 23.28125 62.761719 24.535156 62.765625 26.214844 C 62.761719 27.882813 62.929688 29.046875 63.261719 29.710938 C 63.589844 30.375 64.082031 30.707031 64.746094 30.707031 C 65.195313 30.707031 65.585938 30.566406 65.917969 30.285156 C 66.246094 30.003906 66.484375 29.484375 66.628906 28.71875 C 66.769531 27.960938 66.839844 27.105469 66.835938 26.152344 Z M 69.4375 30.167969 C 69.4375 29.941406 69.519531 29.742188 69.691406 29.566406 C 69.859375 29.398438 70.058594 29.3125 70.285156 29.308594 C 70.5 29.3125 70.683594 29.394531 70.839844 29.550781 C 70.988281 29.714844 71.066406 29.917969 71.070313 30.160156 C 71.066406 30.410156 70.984375 30.613281 70.828125 30.777344 C 70.664063 30.941406 70.472656 31.023438 70.253906 31.027344 C 70.03125 31.023438 69.839844 30.941406 69.679688 30.773438 C 69.515625 30.605469 69.4375 30.402344 69.4375 30.167969 Z M 78.820313 30.785156 C 78.039063 30.757813 76.992188 30.742188 75.679688 30.738281 L 73.984375 30.785156 L 73.226563 30.761719 L 72.625 30.785156 C 72.558594 30.78125 72.46875 30.769531 72.351563 30.746094 C 72.445313 30.53125 72.5625 30.328125 72.710938 30.144531 C 73.140625 29.613281 73.773438 28.929688 74.609375 28.089844 C 75.773438 26.921875 76.542969 26 76.914063 25.328125 C 77.28125 24.660156 77.464844 24.03125 77.46875 23.441406 C 77.464844 22.890625 77.277344 22.429688 76.90625 22.050781 C 76.527344 21.679688 76.066406 21.492188 75.523438 21.488281 C 75.191406 21.492188 74.875 21.566406 74.570313 21.71875 C 74.261719 21.875 74.015625 22.070313 73.828125 22.300781 C 73.707031 22.453125 73.546875 22.753906 73.351563 23.207031 C 73.238281 23.457031 73.171875 23.59375 73.15625 23.613281 C 73.121094 23.652344 73.085938 23.671875 73.046875 23.667969 C 73.003906 23.671875 72.964844 23.648438 72.925781 23.601563 C 72.886719 23.558594 72.867188 23.503906 72.867188 23.433594 C 72.867188 23.203125 72.984375 22.828125 73.222656 22.308594 C 73.457031 21.796875 73.804688 21.390625 74.269531 21.097656 C 74.726563 20.808594 75.261719 20.664063 75.875 20.660156 C 76.667969 20.664063 77.335938 20.921875 77.871094 21.4375 C 78.402344 21.957031 78.667969 22.578125 78.671875 23.292969 C 78.667969 23.863281 78.484375 24.4375 78.125 25.023438 C 77.757813 25.609375 76.921875 26.507813 75.609375 27.714844 C 75.175781 28.113281 74.867188 28.40625 74.6875 28.589844 C 74.503906 28.78125 74.136719 29.1875 73.585938 29.808594 C 74.378906 29.84375 75.101563 29.859375 75.757813 29.855469 C 75.894531 29.859375 76.050781 29.851563 76.21875 29.839844 C 76.523438 29.832031 76.703125 29.828125 76.757813 29.824219 L 77.84375 29.847656 C 77.960938 29.851563 78.085938 29.792969 78.210938 29.675781 C 78.335938 29.5625 78.503906 29.242188 78.71875 28.707031 L 78.90625 28.699219 C 78.929688 28.703125 78.96875 28.707031 79.023438 28.707031 C 79.046875 28.761719 79.058594 28.800781 79.0625 28.824219 L 79.046875 28.886719 C 79.003906 29.039063 78.96875 29.316406 78.9375 29.714844 C 78.914063 29.953125 78.875 30.308594 78.820313 30.785156 Z M 80.414063 25.394531 C 80.414063 25.199219 80.496094 25.015625 80.660156 24.847656 C 80.824219 24.683594 81.011719 24.601563 81.226563 24.597656 C 81.453125 24.601563 81.652344 24.6875 81.828125 24.855469 C 81.996094 25.03125 82.082031 25.230469 82.085938 25.449219 C 82.082031 25.707031 81.984375 25.9375 81.789063 26.144531 C 81.65625 26.292969 81.464844 26.367188 81.210938 26.363281 C 80.980469 26.367188 80.789063 26.28125 80.640625 26.113281 C 80.488281 25.949219 80.414063 25.710938 80.414063 25.394531 Z M 80.453125 30.152344 C 80.449219 29.925781 80.535156 29.726563 80.707031 29.550781 C 80.878906 29.382813 81.074219 29.296875 81.300781 29.292969 C 81.511719 29.296875 81.695313 29.375 81.851563 29.535156 C 82.003906 29.699219 82.082031 29.902344 82.085938 30.144531 C 82.082031 30.390625 82.003906 30.597656 81.84375 30.761719 C 81.683594 30.929688 81.492188 31.011719 81.269531 31.011719 C 81.007813 31.011719 80.804688 30.914063 80.664063 30.71875 C 80.519531 30.523438 80.449219 30.335938 80.453125 30.152344 Z M 83 30.800781 "
       id="path45" />
    <path
       style=" stroke:none;fill-rule:nonzero;fill:rgb(0%,0%,0%);fill-opacity:1;"
       d="M 96.003906 22.800781 C 95.984375 22.433594 95.90625 21.992188 95.773438 21.484375 C 95.636719 20.976563 95.417969 20.53125 95.113281 20.140625 C 94.804688 19.753906 94.378906 19.546875 93.84375 19.523438 C 93.277344 19.539063 92.738281 19.792969 92.226563 20.285156 C 91.710938 20.78125 91.257813 21.429688 90.863281 22.234375 C 90.46875 23.042969 90.171875 23.925781 89.96875 24.875 C 89.765625 25.828125 89.695313 26.765625 89.761719 27.695313 C 89.792969 28.210938 89.886719 28.71875 90.042969 29.21875 C 90.195313 29.71875 90.425781 30.132813 90.734375 30.460938 C 91.039063 30.789063 91.433594 30.960938 91.921875 30.976563 C 92.488281 30.960938 93.03125 30.703125 93.546875 30.203125 C 94.058594 29.703125 94.511719 29.046875 94.90625 28.230469 C 95.292969 27.421875 95.589844 26.542969 95.792969 25.589844 C 95.992188 24.644531 96.0625 23.714844 96.003906 22.800781 Z M 94.59375 24.992188 L 91.246094 24.992188 C 91.339844 24.476563 91.457031 23.917969 91.605469 23.316406 C 91.746094 22.722656 91.957031 22.132813 92.238281 21.550781 C 92.414063 21.140625 92.636719 20.761719 92.90625 20.417969 C 93.171875 20.074219 93.488281 19.894531 93.847656 19.871094 C 94.226563 19.898438 94.484375 20.105469 94.628906 20.5 C 94.765625 20.894531 94.851563 21.332031 94.882813 21.808594 C 94.910156 22.1875 94.902344 22.617188 94.859375 23.101563 C 94.816406 23.585938 94.726563 24.21875 94.59375 24.992188 Z M 94.484375 25.503906 C 94.429688 25.890625 94.335938 26.382813 94.199219 26.972656 C 94.0625 27.570313 93.863281 28.164063 93.609375 28.753906 C 93.367188 29.3125 93.105469 29.757813 92.824219 30.097656 C 92.539063 30.441406 92.226563 30.617188 91.886719 30.625 C 91.617188 30.640625 91.398438 30.503906 91.226563 30.210938 C 91.050781 29.921875 90.9375 29.410156 90.886719 28.671875 C 90.851563 28.347656 90.851563 27.929688 90.890625 27.425781 C 90.921875 26.921875 91.011719 26.28125 91.15625 25.503906 Z M 95.808594 30.800781 "
       id="path47" />
    <path
       style="fill:#000000;fill-opacity:1;fill-rule:nonzero;stroke:none"
       d="m 102.82031,35.285156 c -0.78125,-0.02734 -1.82812,-0.04297 -3.140622,-0.04687 l -1.695313,0.04687 -0.757812,-0.02344 -0.601563,0.02344 c -0.06641,-0.0039 -0.15625,-0.01563 -0.273437,-0.03906 0.09375,-0.214844 0.210937,-0.417969 0.359375,-0.601563 0.429687,-0.53125 1.0625,-1.214843 1.898437,-2.054687 1.164063,-1.167969 1.933595,-2.089844 2.304685,-2.761719 0.36719,-0.667969 0.55078,-1.296875 0.55469,-1.886719 -0.004,-0.550781 -0.19141,-1.011718 -0.5625,-1.390625 -0.37891,-0.371093 -0.83984,-0.558593 -1.382812,-0.5625 -0.332032,0.0039 -0.648438,0.07813 -0.953125,0.230469 -0.308594,0.15625 -0.554688,0.351563 -0.742188,0.582031 -0.121094,0.152344 -0.28125,0.453125 -0.476562,0.90625 -0.113282,0.25 -0.179688,0.386719 -0.195313,0.40625 -0.03516,0.03906 -0.07031,0.05859 -0.109375,0.05469 -0.04297,0.0039 -0.08203,-0.01953 -0.121094,-0.06641 -0.03906,-0.04297 -0.05859,-0.09766 -0.05859,-0.167969 0,-0.230469 0.117187,-0.605469 0.355468,-1.125 0.234375,-0.511719 0.582032,-0.917969 1.046875,-1.210938 0.457032,-0.289062 0.992188,-0.433593 1.605469,-0.4375 0.792967,0.0039 1.460937,0.261719 1.996087,0.777344 0.53125,0.519531 0.79688,1.140625 0.80079,1.855469 -0.004,0.570312 -0.1875,1.144531 -0.54688,1.730469 -0.36719,0.585937 -1.20312,1.484375 -2.515622,2.691406 -0.433594,0.398437 -0.742187,0.691406 -0.921875,0.875 -0.183594,0.191406 -0.550781,0.597656 -1.101562,1.21875 0.792968,0.03516 1.515625,0.05078 2.171875,0.04687 0.136718,0.0039 0.292964,-0.0039 0.460934,-0.01563 0.30469,-0.0078 0.48438,-0.01172 0.53906,-0.01563 l 1.08594,0.02344 c 0.11719,0.0039 0.24219,-0.05469 0.36719,-0.171875 0.125,-0.113281 0.29297,-0.433593 0.50781,-0.96875 l 0.1875,-0.0078 c 0.0234,0.0039 0.0625,0.0078 0.11719,0.0078 0.0234,0.05469 0.0352,0.09375 0.0391,0.117188 l -0.0156,0.0625 c -0.043,0.152344 -0.0781,0.429687 -0.10938,0.828125 -0.0234,0.238281 -0.0625,0.59375 -0.11719,1.070312 z m 0.67969,0.01563"
       id="path49"
       inkscape:connector-curvature="0" />
    <path
       style=" stroke:none;fill-rule:evenodd;fill:rgb(100%,100%,100%);fill-opacity:1;"
       d="M 241.4375 40.414063 L 276.585938 40.414063 L 276.585938 75.574219 L 241.4375 75.574219 Z M 241.4375 40.414063 "
       id="path51" />
    <g
       clip-path="url(#clip3)"
       clip-rule="nonzero"
       id="g55">
      <path
         style="fill:none;stroke-width:0.3;stroke-linecap:butt;stroke-linejoin:miter;stroke:rgb(0%,0%,0%);stroke-opacity:1;stroke-miterlimit:4;"
         d="M 33.811552 47.248681 L 46.211139 47.248681 L 46.211139 59.652402 L 33.811552 59.652402 Z M 33.811552 47.248681 "
         transform="matrix(2.834646,0,0,2.834646,145.593722,-93.519217)"
         id="path53" />
    </g>
    <path
       style=" stroke:none;fill-rule:nonzero;fill:rgb(0%,0%,0%);fill-opacity:1;"
       d="M 256.042969 53.15625 L 255.71875 52.980469 C 256.125 51.984375 256.613281 51.285156 257.183594 50.875 C 257.75 50.472656 258.410156 50.269531 259.167969 50.265625 C 259.867188 50.269531 260.429688 50.425781 260.855469 50.734375 C 261.484375 51.207031 261.800781 51.734375 261.800781 52.316406 C 261.800781 52.796875 261.636719 53.273438 261.316406 53.753906 C 260.992188 54.238281 260.429688 54.78125 259.625 55.375 L 259.859375 55.363281 C 260.363281 55.367188 260.851563 55.496094 261.328125 55.75 C 261.796875 56.007813 262.171875 56.40625 262.445313 56.949219 C 262.71875 57.496094 262.855469 58.082031 262.855469 58.703125 C 262.855469 59.960938 262.394531 61.035156 261.472656 61.929688 C 260.550781 62.824219 259.378906 63.269531 257.957031 63.273438 C 256.871094 63.269531 256.070313 63.117188 255.5625 62.804688 C 255.28125 62.648438 255.144531 62.441406 255.144531 62.1875 C 255.144531 62.054688 255.199219 61.933594 255.3125 61.820313 C 255.425781 61.710938 255.566406 61.652344 255.738281 61.652344 C 255.949219 61.652344 256.210938 61.769531 256.519531 62.003906 C 257.242188 62.558594 257.871094 62.835938 258.402344 62.835938 C 259.207031 62.835938 259.921875 62.496094 260.550781 61.816406 C 261.171875 61.136719 261.484375 60.28125 261.488281 59.242188 C 261.484375 58.386719 261.273438 57.679688 260.859375 57.128906 C 260.4375 56.578125 259.90625 56.304688 259.261719 56.300781 C 258.78125 56.304688 258.28125 56.53125 257.761719 56.984375 L 257.527344 56.59375 C 257.847656 56.316406 258.140625 56.078125 258.402344 55.882813 C 259.199219 55.304688 259.792969 54.734375 260.183594 54.171875 C 260.460938 53.769531 260.597656 53.414063 260.601563 53.109375 C 260.597656 52.59375 260.417969 52.160156 260.054688 51.804688 C 259.6875 51.453125 259.207031 51.277344 258.621094 51.273438 C 257.636719 51.277344 256.777344 51.902344 256.042969 53.15625 Z M 263.746094 63 "
       id="path57" />
    <path
       style="fill:none;stroke-width:1;stroke-linecap:butt;stroke-linejoin:miter;stroke:rgb(0%,0%,0%);stroke-opacity:1;stroke-miterlimit:4;"
       d="M 39.101563 -15.183594 C 58.074219 -12.210938 89.625 -7.722656 117 -6 C 155.074219 -3.605469 198.992188 -8.875 226.628906 -13.175781 "
       transform="matrix(1,0,0,1,4,76)"
       id="path59" />
    <path
       style="fill:none;stroke-width:1;stroke-linecap:butt;stroke-linejoin:miter;stroke:rgb(0%,0%,0%);stroke-opacity:1;stroke-miterlimit:4;"
       d="M 226.285156 -16.664063 L 236.71875 -14.816406 L 227.410156 -9.753906 Z M 226.285156 -16.664063 "
       transform="matrix(1,0,0,1,4,76)"
       id="path61" />
    <path
       style=" stroke:none;fill-rule:nonzero;fill:rgb(0%,0%,0%);fill-opacity:1;"
       d="M 128 58.871094 C 127.996094 59.410156 127.957031 59.886719 127.882813 60.300781 C 127.738281 61.023438 127.542969 61.625 127.296875 62.105469 C 127.042969 62.59375 126.746094 63 126.40625 63.332031 C 126.152344 63.578125 125.886719 63.753906 125.609375 63.867188 C 125.324219 63.976563 125.039063 64.035156 124.75 64.035156 C 124.234375 64.035156 123.746094 63.863281 123.285156 63.519531 C 122.824219 63.175781 122.421875 62.609375 122.078125 61.816406 C 121.734375 61.027344 121.5625 60.09375 121.5625 59.019531 C 121.5625 58.183594 121.664063 57.378906 121.875 56.605469 C 122.078125 55.835938 122.355469 55.238281 122.699219 54.8125 C 123.039063 54.390625 123.375 54.085938 123.714844 53.894531 C 124.046875 53.710938 124.414063 53.617188 124.8125 53.613281 C 125.367188 53.617188 125.90625 53.835938 126.433594 54.269531 C 126.953125 54.710938 127.371094 55.390625 127.6875 56.308594 C 127.890625 56.929688 127.996094 57.785156 128 58.871094 Z M 126.828125 58.613281 C 126.820313 57.335938 126.773438 56.464844 126.6875 56.003906 C 126.539063 55.25 126.300781 54.722656 125.972656 54.417969 C 125.640625 54.121094 125.253906 53.96875 124.816406 53.964844 C 124.441406 53.96875 124.09375 54.089844 123.765625 54.324219 C 123.4375 54.566406 123.210938 54.941406 123.085938 55.449219 C 122.871094 56.28125 122.761719 57.535156 122.765625 59.214844 C 122.761719 60.882813 122.929688 62.046875 123.261719 62.710938 C 123.589844 63.375 124.082031 63.707031 124.746094 63.707031 C 125.195313 63.707031 125.585938 63.566406 125.917969 63.285156 C 126.246094 63.003906 126.484375 62.484375 126.628906 61.71875 C 126.769531 60.960938 126.839844 60.105469 126.835938 59.152344 Z M 129.4375 63.167969 C 129.4375 62.941406 129.519531 62.742188 129.691406 62.566406 C 129.859375 62.398438 130.058594 62.3125 130.285156 62.308594 C 130.5 62.3125 130.683594 62.394531 130.839844 62.550781 C 130.988281 62.714844 131.066406 62.917969 131.070313 63.160156 C 131.066406 63.410156 130.984375 63.613281 130.828125 63.777344 C 130.664063 63.941406 130.472656 64.023438 130.253906 64.027344 C 130.03125 64.023438 129.839844 63.941406 129.679688 63.773438 C 129.515625 63.605469 129.4375 63.402344 129.4375 63.167969 Z M 132.851563 53.925781 C 133.484375 53.902344 134.347656 53.886719 135.441406 53.886719 C 135.929688 53.886719 136.496094 53.894531 137.132813 53.910156 C 137.515625 53.925781 137.765625 53.933594 137.886719 53.933594 L 138.644531 53.925781 L 138.824219 53.925781 C 138.863281 53.972656 138.882813 54.011719 138.886719 54.042969 C 138.882813 54.109375 138.824219 54.257813 138.707031 54.496094 C 138.648438 54.601563 138.394531 55.171875 137.949219 56.207031 C 137.726563 56.71875 137.460938 57.390625 137.148438 58.214844 L 136.164063 60.988281 C 135.925781 61.625 135.773438 62.070313 135.710938 62.316406 L 135.53125 63.042969 C 135.457031 63.261719 135.421875 63.417969 135.421875 63.511719 C 135.421875 63.59375 135.464844 63.710938 135.554688 63.878906 C 135.488281 63.957031 135.347656 64 135.136719 64.003906 C 135.035156 64 134.945313 63.957031 134.859375 63.878906 C 134.890625 63.570313 134.988281 63.167969 135.15625 62.660156 C 135.214844 62.480469 135.320313 62.121094 135.476563 61.582031 C 135.625 61.046875 135.773438 60.574219 135.921875 60.160156 L 136.8125 57.738281 C 137.0625 57.054688 137.3125 56.421875 137.554688 55.839844 C 137.636719 55.648438 137.699219 55.511719 137.742188 55.433594 C 137.851563 55.242188 137.90625 55.085938 137.90625 54.957031 L 137.804688 54.964844 L 137.71875 54.964844 L 136.6875 54.933594 C 136.65625 54.9375 136.546875 54.941406 136.359375 54.949219 C 136.171875 54.960938 136.03125 54.964844 135.9375 54.964844 L 134.726563 54.957031 L 134.359375 54.957031 L 133.84375 54.941406 C 133.539063 54.9375 133.351563 54.972656 133.277344 55.046875 C 133.199219 55.125 133.15625 55.320313 133.148438 55.628906 C 133.140625 55.710938 133.117188 55.785156 133.085938 55.855469 C 133.023438 55.871094 132.984375 55.878906 132.960938 55.878906 C 132.902344 55.878906 132.824219 55.859375 132.734375 55.816406 C 132.734375 55.6875 132.738281 55.589844 132.742188 55.527344 L 132.757813 55.292969 L 132.734375 54.863281 C 132.730469 54.492188 132.742188 54.238281 132.765625 54.105469 C 132.773438 54.054688 132.800781 53.996094 132.851563 53.925781 Z M 140.414063 58.394531 C 140.414063 58.199219 140.496094 58.015625 140.660156 57.847656 C 140.824219 57.683594 141.011719 57.601563 141.226563 57.597656 C 141.453125 57.601563 141.652344 57.6875 141.828125 57.855469 C 141.996094 58.03125 142.082031 58.230469 142.085938 58.449219 C 142.082031 58.707031 141.984375 58.9375 141.789063 59.144531 C 141.65625 59.292969 141.464844 59.367188 141.210938 59.363281 C 140.980469 59.367188 140.789063 59.28125 140.640625 59.113281 C 140.488281 58.949219 140.414063 58.710938 140.414063 58.394531 Z M 140.453125 63.152344 C 140.449219 62.925781 140.535156 62.726563 140.707031 62.550781 C 140.878906 62.382813 141.074219 62.296875 141.300781 62.292969 C 141.511719 62.296875 141.695313 62.375 141.851563 62.535156 C 142.003906 62.699219 142.082031 62.902344 142.085938 63.144531 C 142.082031 63.390625 142.003906 63.597656 141.84375 63.761719 C 141.683594 63.929688 141.492188 64.011719 141.269531 64.011719 C 141.007813 64.011719 140.804688 63.914063 140.664063 63.71875 C 140.519531 63.523438 140.449219 63.335938 140.453125 63.152344 Z M 143 63.800781 "
       id="path63" />
    <path
       style=" stroke:none;fill-rule:nonzero;fill:rgb(0%,0%,0%);fill-opacity:1;"
       d="M 156.003906 55.800781 C 155.984375 55.433594 155.90625 54.992188 155.773438 54.484375 C 155.636719 53.976563 155.417969 53.53125 155.113281 53.140625 C 154.804688 52.753906 154.378906 52.546875 153.84375 52.523438 C 153.277344 52.539063 152.738281 52.792969 152.226563 53.285156 C 151.710938 53.78125 151.257813 54.429688 150.863281 55.234375 C 150.46875 56.042969 150.171875 56.925781 149.96875 57.875 C 149.765625 58.828125 149.695313 59.765625 149.761719 60.695313 C 149.792969 61.210938 149.886719 61.71875 150.042969 62.21875 C 150.195313 62.71875 150.425781 63.132813 150.734375 63.460938 C 151.039063 63.789063 151.433594 63.960938 151.921875 63.976563 C 152.488281 63.960938 153.03125 63.703125 153.546875 63.203125 C 154.058594 62.703125 154.511719 62.046875 154.90625 61.230469 C 155.292969 60.421875 155.589844 59.542969 155.792969 58.589844 C 155.992188 57.644531 156.0625 56.714844 156.003906 55.800781 Z M 154.59375 57.992188 L 151.246094 57.992188 C 151.339844 57.476563 151.457031 56.917969 151.605469 56.316406 C 151.746094 55.722656 151.957031 55.132813 152.238281 54.550781 C 152.414063 54.140625 152.636719 53.761719 152.90625 53.417969 C 153.171875 53.074219 153.488281 52.894531 153.847656 52.871094 C 154.226563 52.898438 154.484375 53.105469 154.628906 53.5 C 154.765625 53.894531 154.851563 54.332031 154.882813 54.808594 C 154.910156 55.1875 154.902344 55.617188 154.859375 56.101563 C 154.816406 56.585938 154.726563 57.21875 154.59375 57.992188 Z M 154.484375 58.503906 C 154.429688 58.890625 154.335938 59.382813 154.199219 59.972656 C 154.0625 60.570313 153.863281 61.164063 153.609375 61.753906 C 153.367188 62.3125 153.105469 62.757813 152.824219 63.097656 C 152.539063 63.441406 152.226563 63.617188 151.886719 63.625 C 151.617188 63.640625 151.398438 63.503906 151.226563 63.210938 C 151.050781 62.921875 150.9375 62.410156 150.886719 61.671875 C 150.851563 61.347656 150.851563 60.929688 150.890625 60.425781 C 150.921875 59.921875 151.011719 59.28125 151.15625 58.503906 Z M 155.808594 63.800781 "
       id="path65" />
    <path
       style="fill:#000000;fill-opacity:1;fill-rule:nonzero;stroke:none"
       d="m 161.92187,59.277344 c -0.58203,0.04687 -1.05078,0.07031 -1.40625,0.07031 -0.26953,0 -0.55078,-0.0078 -0.84375,-0.02344 -0.16015,-0.0078 -0.2539,-0.01172 -0.28515,-0.01563 -0.63281,0.0039 -0.97266,0.01563 -1.01953,0.03906 -0.0234,0.01172 -0.0391,0.03906 -0.0391,0.07813 -0.0195,0.08594 -0.0859,1.011719 -0.20703,2.78125 0.23438,-0.117187 0.45703,-0.199218 0.67578,-0.253906 0.21485,-0.04687 0.50391,-0.07422 0.86719,-0.07422 0.25,0 0.42969,0.01563 0.53125,0.04687 0.49219,0.164063 0.84766,0.3125 1.06641,0.4375 0.30078,0.191407 0.54297,0.402344 0.73437,0.640625 0.1875,0.242188 0.36328,0.597657 0.52735,1.058594 0.10937,0.335938 0.16797,0.683594 0.17187,1.046875 -0.004,0.398438 -0.0586,0.765625 -0.16797,1.105469 -0.11328,0.34375 -0.2539,0.632812 -0.41797,0.859375 -0.16796,0.234375 -0.41406,0.472656 -0.74218,0.714844 -0.32813,0.25 -0.71485,0.433593 -1.16016,0.566406 -0.44531,0.125 -0.74609,0.195312 -0.89453,0.203125 l -1.13281,-0.101563 c -0.3125,-0.05469 -0.58594,-0.136718 -0.82032,-0.253906 -0.23437,-0.113281 -0.39062,-0.226562 -0.46875,-0.339844 -0.0469,-0.06641 -0.0703,-0.15625 -0.0703,-0.265625 0,-0.08203 0.0586,-0.171875 0.17578,-0.273437 0.11719,-0.09766 0.26172,-0.148438 0.4336,-0.148438 0.0781,0 0.16406,0.02344 0.25781,0.07031 l 0.61719,0.398437 c 0.13672,0.125 0.3125,0.242188 0.52343,0.351563 0.0273,0.01563 0.10547,0.03516 0.23438,0.05469 0.30078,0.04297 0.46484,0.0625 0.49219,0.0625 0.11328,0 0.30859,-0.04687 0.58593,-0.140625 0.27344,-0.09375 0.52735,-0.253906 0.76563,-0.480468 0.23047,-0.226563 0.43359,-0.511719 0.60547,-0.859375 0.16797,-0.347657 0.2539,-0.734375 0.2539,-1.15625 0,-0.753907 -0.23828,-1.375 -0.71093,-1.867188 -0.47657,-0.488281 -1.04688,-0.734375 -1.71094,-0.738281 -0.30078,0.0039 -0.57422,0.05469 -0.82422,0.148437 -0.25391,0.101563 -0.42578,0.210938 -0.51172,0.328125 l -0.11719,0.04687 c -0.0664,0.03125 -0.10937,0.04297 -0.13281,0.03906 l -0.10156,-0.02344 c -0.0195,-0.08984 -0.0273,-0.160156 -0.0234,-0.210937 -0.004,-0.03516 0,-0.105469 0.0156,-0.210938 0.0312,-0.253906 0.0508,-0.519531 0.0586,-0.792968 0,-0.273438 0.0312,-0.519532 0.0859,-0.738282 l -0.0195,-0.375 c 0.0312,-0.191406 0.0508,-0.375 0.0586,-0.554687 0.0117,-1.199219 0.0625,-1.890625 0.15234,-2.070313 0.0352,-0.08203 0.0977,-0.121093 0.1875,-0.125 0.0352,0.0039 0.0937,0.0078 0.17969,0.01563 l 0.0469,0.0078 0.99218,-0.0078 c 0.44532,0.02734 0.77735,0.03906 0.99219,0.03906 0.48828,0 0.87891,-0.03125 1.17969,-0.101563 0.14062,-0.132812 0.25391,-0.203125 0.33594,-0.203125 0.0273,0 0.0859,0.0078 0.17187,0.01563 l 0.0234,0.09375 -0.0625,0.328125 -0.0391,0.523438 c -0.008,0.03906 -0.0312,0.117187 -0.0703,0.234375 z M 163.5,68.300781"
       id="path67"
       inkscape:connector-curvature="0" />
    <path
       style="fill:none;stroke-width:1;stroke-linecap:butt;stroke-linejoin:miter;stroke:rgb(0%,0%,0%);stroke-opacity:1;stroke-miterlimit:4;"
       d="M 156.464844 -45.988281 C 175.234375 -40.601563 205.300781 -31.976563 227.09375 -25.722656 "
       transform="matrix(1,0,0,1,4,76)"
       id="path69" />
    <path
       style="fill:none;stroke-width:1;stroke-linecap:butt;stroke-linejoin:miter;stroke:rgb(0%,0%,0%);stroke-opacity:1;stroke-miterlimit:4;"
       d="M 228.101563 -29.074219 L 236.746094 -22.949219 L 226.167969 -22.34375 Z M 228.101563 -29.074219 "
       transform="matrix(1,0,0,1,4,76)"
       id="path71" />
    <path
       style=" stroke:none;fill-rule:nonzero;fill:rgb(0%,0%,0%);fill-opacity:1;"
       d="M 186.671875 30.785156 L 183.09375 30.785156 C 183.085938 30.742188 183.085938 30.703125 183.085938 30.667969 C 183.085938 30.582031 183.101563 30.519531 183.140625 30.484375 C 183.171875 30.453125 183.289063 30.417969 183.484375 30.378906 C 183.785156 30.316406 184.027344 30.242188 184.21875 30.152344 C 184.265625 30.039063 184.292969 29.933594 184.296875 29.832031 L 184.296875 29.347656 C 184.292969 29.292969 184.300781 29.03125 184.320313 28.558594 C 184.324219 28.382813 184.328125 27.617188 184.335938 26.261719 L 184.351563 24.425781 L 184.335938 23.355469 C 184.332031 23.203125 184.339844 22.710938 184.351563 21.878906 C 183.167969 22.726563 182.519531 23.148438 182.40625 23.144531 C 182.363281 23.148438 182.316406 23.125 182.273438 23.078125 C 182.222656 23.035156 182.199219 22.992188 182.203125 22.949219 C 182.199219 22.898438 182.21875 22.859375 182.257813 22.824219 C 182.328125 22.761719 182.503906 22.648438 182.78125 22.488281 C 182.820313 22.46875 183 22.328125 183.320313 22.066406 C 183.824219 21.648438 184.191406 21.316406 184.429688 21.074219 C 184.660156 20.835938 184.804688 20.703125 184.859375 20.667969 C 184.960938 20.667969 185.042969 20.664063 185.101563 20.660156 C 185.234375 20.664063 185.316406 20.6875 185.355469 20.726563 C 185.386719 20.773438 185.40625 20.933594 185.40625 21.207031 L 185.351563 28.175781 L 185.351563 28.863281 C 185.347656 29.03125 185.34375 29.199219 185.34375 29.367188 C 185.335938 29.539063 185.335938 29.664063 185.335938 29.738281 C 185.335938 29.929688 185.359375 30.050781 185.40625 30.105469 C 185.4375 30.144531 185.53125 30.191406 185.695313 30.246094 L 186.226563 30.355469 C 186.453125 30.414063 186.578125 30.453125 186.601563 30.472656 C 186.652344 30.519531 186.675781 30.59375 186.679688 30.6875 Z M 189.4375 30.167969 C 189.4375 29.941406 189.519531 29.742188 189.691406 29.566406 C 189.859375 29.398438 190.058594 29.3125 190.285156 29.308594 C 190.5 29.3125 190.683594 29.394531 190.839844 29.550781 C 190.988281 29.714844 191.066406 29.917969 191.070313 30.160156 C 191.066406 30.410156 190.984375 30.613281 190.828125 30.777344 C 190.664063 30.941406 190.472656 31.023438 190.253906 31.027344 C 190.03125 31.023438 189.839844 30.941406 189.679688 30.773438 C 189.515625 30.605469 189.4375 30.402344 189.4375 30.167969 Z M 199 25.871094 C 198.996094 26.410156 198.957031 26.886719 198.882813 27.300781 C 198.738281 28.023438 198.542969 28.625 198.296875 29.105469 C 198.042969 29.59375 197.746094 30 197.40625 30.332031 C 197.152344 30.578125 196.886719 30.753906 196.609375 30.867188 C 196.324219 30.976563 196.039063 31.035156 195.75 31.035156 C 195.234375 31.035156 194.746094 30.863281 194.285156 30.519531 C 193.824219 30.175781 193.421875 29.609375 193.078125 28.816406 C 192.734375 28.027344 192.5625 27.09375 192.5625 26.019531 C 192.5625 25.183594 192.664063 24.378906 192.875 23.605469 C 193.078125 22.835938 193.355469 22.238281 193.699219 21.8125 C 194.039063 21.390625 194.375 21.085938 194.714844 20.894531 C 195.046875 20.710938 195.414063 20.617188 195.8125 20.613281 C 196.367188 20.617188 196.90625 20.835938 197.433594 21.269531 C 197.953125 21.710938 198.371094 22.390625 198.6875 23.308594 C 198.890625 23.929688 198.996094 24.785156 199 25.871094 Z M 197.828125 25.613281 C 197.820313 24.335938 197.773438 23.464844 197.6875 23.003906 C 197.539063 22.25 197.300781 21.722656 196.972656 21.417969 C 196.640625 21.121094 196.253906 20.96875 195.816406 20.964844 C 195.441406 20.96875 195.09375 21.089844 194.765625 21.324219 C 194.4375 21.566406 194.210938 21.941406 194.085938 22.449219 C 193.871094 23.28125 193.761719 24.535156 193.765625 26.214844 C 193.761719 27.882813 193.929688 29.046875 194.261719 29.710938 C 194.589844 30.375 195.082031 30.707031 195.746094 30.707031 C 196.195313 30.707031 196.585938 30.566406 196.917969 30.285156 C 197.246094 30.003906 197.484375 29.484375 197.628906 28.71875 C 197.769531 27.960938 197.839844 27.105469 197.835938 26.152344 Z M 200.414063 25.394531 C 200.414063 25.199219 200.496094 25.015625 200.660156 24.847656 C 200.824219 24.683594 201.011719 24.601563 201.226563 24.597656 C 201.453125 24.601563 201.652344 24.6875 201.828125 24.855469 C 201.996094 25.03125 202.082031 25.230469 202.085938 25.449219 C 202.082031 25.707031 201.984375 25.9375 201.789063 26.144531 C 201.65625 26.292969 201.464844 26.367188 201.210938 26.363281 C 200.980469 26.367188 200.789063 26.28125 200.640625 26.113281 C 200.488281 25.949219 200.414063 25.710938 200.414063 25.394531 Z M 200.453125 30.152344 C 200.449219 29.925781 200.535156 29.726563 200.707031 29.550781 C 200.878906 29.382813 201.074219 29.296875 201.300781 29.292969 C 201.511719 29.296875 201.695313 29.375 201.851563 29.535156 C 202.003906 29.699219 202.082031 29.902344 202.085938 30.144531 C 202.082031 30.390625 202.003906 30.597656 201.84375 30.761719 C 201.683594 30.929688 201.492188 31.011719 201.269531 31.011719 C 201.007813 31.011719 200.804688 30.914063 200.664063 30.71875 C 200.519531 30.523438 200.449219 30.335938 200.453125 30.152344 Z M 203 30.800781 "
       id="path73" />
    <path
       style=" stroke:none;fill-rule:nonzero;fill:rgb(0%,0%,0%);fill-opacity:1;"
       d="M 216.003906 22.800781 C 215.984375 22.433594 215.90625 21.992188 215.773438 21.484375 C 215.636719 20.976563 215.417969 20.53125 215.113281 20.140625 C 214.804688 19.753906 214.378906 19.546875 213.84375 19.523438 C 213.277344 19.539063 212.738281 19.792969 212.226563 20.285156 C 211.710938 20.78125 211.257813 21.429688 210.863281 22.234375 C 210.46875 23.042969 210.171875 23.925781 209.96875 24.875 C 209.765625 25.828125 209.695313 26.765625 209.761719 27.695313 C 209.792969 28.210938 209.886719 28.71875 210.042969 29.21875 C 210.195313 29.71875 210.425781 30.132813 210.734375 30.460938 C 211.039063 30.789063 211.433594 30.960938 211.921875 30.976563 C 212.488281 30.960938 213.03125 30.703125 213.546875 30.203125 C 214.058594 29.703125 214.511719 29.046875 214.90625 28.230469 C 215.292969 27.421875 215.589844 26.542969 215.792969 25.589844 C 215.992188 24.644531 216.0625 23.714844 216.003906 22.800781 Z M 214.59375 24.992188 L 211.246094 24.992188 C 211.339844 24.476563 211.457031 23.917969 211.605469 23.316406 C 211.746094 22.722656 211.957031 22.132813 212.238281 21.550781 C 212.414063 21.140625 212.636719 20.761719 212.90625 20.417969 C 213.171875 20.074219 213.488281 19.894531 213.847656 19.871094 C 214.226563 19.898438 214.484375 20.105469 214.628906 20.5 C 214.765625 20.894531 214.851563 21.332031 214.882813 21.808594 C 214.910156 22.1875 214.902344 22.617188 214.859375 23.101563 C 214.816406 23.585938 214.726563 24.21875 214.59375 24.992188 Z M 214.484375 25.503906 C 214.429688 25.890625 214.335938 26.382813 214.199219 26.972656 C 214.0625 27.570313 213.863281 28.164063 213.609375 28.753906 C 213.367188 29.3125 213.105469 29.757813 212.824219 30.097656 C 212.539063 30.441406 212.226563 30.617188 211.886719 30.625 C 211.617188 30.640625 211.398438 30.503906 211.226563 30.210938 C 211.050781 29.921875 210.9375 29.410156 210.886719 28.671875 C 210.851563 28.347656 210.851563 27.929688 210.890625 27.425781 C 210.921875 26.921875 211.011719 26.28125 211.15625 25.503906 Z M 215.808594 30.800781 "
       id="path75" />
    <path
       style="fill:#000000;fill-opacity:1;fill-rule:nonzero;stroke:none"
       d="m 217.33594,27.425781 -0.25782,-0.140625 c 0.32813,-0.796875 0.71875,-1.355468 1.17188,-1.683593 0.45312,-0.320313 0.98047,-0.484375 1.58594,-0.488282 0.55859,0.0039 1.00781,0.128907 1.35156,0.375 0.5,0.378907 0.75391,0.800782 0.75781,1.265625 -0.004,0.382813 -0.13281,0.765625 -0.38672,1.148438 -0.26172,0.386719 -0.71484,0.820312 -1.35547,1.296875 l 0.1875,-0.0078 c 0.40235,0.0039 0.79688,0.105469 1.17579,0.308594 0.375,0.207031 0.67187,0.527344 0.89453,0.960938 0.21484,0.4375 0.32422,0.90625 0.32812,1.402343 -0.004,1.007813 -0.37109,1.867188 -1.10547,2.582032 -0.73828,0.714843 -1.67968,1.070312 -2.8164,1.074218 -0.86719,-0.0039 -1.50391,-0.125 -1.91407,-0.375 -0.22656,-0.128906 -0.33984,-0.292968 -0.33593,-0.492187 -0.004,-0.105469 0.043,-0.203125 0.13672,-0.296875 0.0898,-0.08594 0.20312,-0.132813 0.33984,-0.132813 0.16797,0 0.375,0.09375 0.625,0.28125 0.57422,0.445313 1.07812,0.667969 1.50781,0.664063 0.64453,0.0039 1.21875,-0.269531 1.71875,-0.816406 0.5,-0.542969 0.75,-1.226563 0.75,-2.058594 0,-0.683594 -0.16797,-1.25 -0.5039,-1.691406 -0.33594,-0.4375 -0.76172,-0.65625 -1.27735,-0.660157 -0.38672,0.0039 -0.78906,0.1875 -1.20312,0.546875 l -0.1875,-0.3125 c 0.25781,-0.222656 0.49218,-0.414062 0.70312,-0.570312 0.63281,-0.460938 1.10547,-0.914063 1.42188,-1.367188 0.21875,-0.320312 0.33203,-0.605468 0.33593,-0.851562 -0.004,-0.410156 -0.14843,-0.757813 -0.4375,-1.042969 -0.29296,-0.28125 -0.67578,-0.421875 -1.14843,-0.425781 -0.78125,0.0039 -1.46875,0.503906 -2.0625,1.507812 z m 6.16406,7.875"
       id="path77"
       inkscape:connector-curvature="0" />
    <path
       style="fill:none;stroke-width:1;stroke-linecap:butt;stroke-linejoin:miter;stroke:rgb(0%,0%,0%);stroke-opacity:1;stroke-miterlimit:4;"
       d="M 244.867188 -36.152344 C 243.3125 -45.539063 246.6875 -54 255 -54 C 260.066406 -54 263.296875 -50.859375 264.699219 -46.28125 "
       transform="matrix(1,0,0,1,4,76)"
       id="path79" />
    <path
       style="fill:none;stroke-width:1;stroke-linecap:butt;stroke-linejoin:miter;stroke:rgb(0%,0%,0%);stroke-opacity:1;stroke-miterlimit:4;"
       d="M 268.199219 -46.292969 L 265.132813 -36.152344 L 261.207031 -45.992188 Z M 268.199219 -46.292969 "
       transform="matrix(1,0,0,1,4,76)"
       id="path81" />
    <path
       style=" stroke:none;fill-rule:nonzero;fill:rgb(0%,0%,0%);fill-opacity:1;"
       d="M 243.671875 15.785156 L 240.09375 15.785156 C 240.085938 15.742188 240.085938 15.703125 240.085938 15.667969 C 240.085938 15.582031 240.101563 15.519531 240.140625 15.484375 C 240.171875 15.453125 240.289063 15.417969 240.484375 15.378906 C 240.785156 15.316406 241.027344 15.242188 241.21875 15.152344 C 241.265625 15.039063 241.292969 14.933594 241.296875 14.832031 L 241.296875 14.347656 C 241.292969 14.292969 241.300781 14.03125 241.320313 13.558594 C 241.324219 13.382813 241.328125 12.617188 241.335938 11.261719 L 241.351563 9.425781 L 241.335938 8.355469 C 241.332031 8.203125 241.339844 7.710938 241.351563 6.878906 C 240.167969 7.726563 239.519531 8.148438 239.40625 8.144531 C 239.363281 8.148438 239.316406 8.125 239.273438 8.078125 C 239.222656 8.035156 239.199219 7.992188 239.203125 7.949219 C 239.199219 7.898438 239.21875 7.859375 239.257813 7.824219 C 239.328125 7.761719 239.503906 7.648438 239.78125 7.488281 C 239.820313 7.46875 240 7.328125 240.320313 7.066406 C 240.824219 6.648438 241.191406 6.316406 241.429688 6.074219 C 241.660156 5.835938 241.804688 5.703125 241.859375 5.667969 C 241.960938 5.667969 242.042969 5.664063 242.101563 5.660156 C 242.234375 5.664063 242.316406 5.6875 242.355469 5.726563 C 242.386719 5.773438 242.40625 5.933594 242.40625 6.207031 L 242.351563 13.175781 L 242.351563 13.863281 C 242.347656 14.03125 242.34375 14.199219 242.34375 14.367188 C 242.335938 14.539063 242.335938 14.664063 242.335938 14.738281 C 242.335938 14.929688 242.359375 15.050781 242.40625 15.105469 C 242.4375 15.144531 242.53125 15.191406 242.695313 15.246094 L 243.226563 15.355469 C 243.453125 15.414063 243.578125 15.453125 243.601563 15.472656 C 243.652344 15.519531 243.675781 15.59375 243.679688 15.6875 Z M 246.4375 15.167969 C 246.4375 14.941406 246.519531 14.742188 246.691406 14.566406 C 246.859375 14.398438 247.058594 14.3125 247.285156 14.308594 C 247.5 14.3125 247.683594 14.394531 247.839844 14.550781 C 247.988281 14.714844 248.066406 14.917969 248.070313 15.160156 C 248.066406 15.410156 247.984375 15.613281 247.828125 15.777344 C 247.664063 15.941406 247.472656 16.023438 247.253906 16.027344 C 247.03125 16.023438 246.839844 15.941406 246.679688 15.773438 C 246.515625 15.605469 246.4375 15.402344 246.4375 15.167969 Z M 256 10.871094 C 255.996094 11.410156 255.957031 11.886719 255.882813 12.300781 C 255.738281 13.023438 255.542969 13.625 255.296875 14.105469 C 255.042969 14.59375 254.746094 15 254.40625 15.332031 C 254.152344 15.578125 253.886719 15.753906 253.609375 15.867188 C 253.324219 15.976563 253.039063 16.035156 252.75 16.035156 C 252.234375 16.035156 251.746094 15.863281 251.285156 15.519531 C 250.824219 15.175781 250.421875 14.609375 250.078125 13.816406 C 249.734375 13.027344 249.5625 12.09375 249.5625 11.019531 C 249.5625 10.183594 249.664063 9.378906 249.875 8.605469 C 250.078125 7.835938 250.355469 7.238281 250.699219 6.8125 C 251.039063 6.390625 251.375 6.085938 251.714844 5.894531 C 252.046875 5.710938 252.414063 5.617188 252.8125 5.613281 C 253.367188 5.617188 253.90625 5.835938 254.433594 6.269531 C 254.953125 6.710938 255.371094 7.390625 255.6875 8.308594 C 255.890625 8.929688 255.996094 9.785156 256 10.871094 Z M 254.828125 10.613281 C 254.820313 9.335938 254.773438 8.464844 254.6875 8.003906 C 254.539063 7.25 254.300781 6.722656 253.972656 6.417969 C 253.640625 6.121094 253.253906 5.96875 252.816406 5.964844 C 252.441406 5.96875 252.09375 6.089844 251.765625 6.324219 C 251.4375 6.566406 251.210938 6.941406 251.085938 7.449219 C 250.871094 8.28125 250.761719 9.535156 250.765625 11.214844 C 250.761719 12.882813 250.929688 14.046875 251.261719 14.710938 C 251.589844 15.375 252.082031 15.707031 252.746094 15.707031 C 253.195313 15.707031 253.585938 15.566406 253.917969 15.285156 C 254.246094 15.003906 254.484375 14.484375 254.628906 13.71875 C 254.769531 12.960938 254.839844 12.105469 254.835938 11.152344 Z M 257.414063 10.394531 C 257.414063 10.199219 257.496094 10.015625 257.660156 9.847656 C 257.824219 9.683594 258.011719 9.601563 258.226563 9.597656 C 258.453125 9.601563 258.652344 9.6875 258.828125 9.855469 C 258.996094 10.03125 259.082031 10.230469 259.085938 10.449219 C 259.082031 10.707031 258.984375 10.9375 258.789063 11.144531 C 258.65625 11.292969 258.464844 11.367188 258.210938 11.363281 C 257.980469 11.367188 257.789063 11.28125 257.640625 11.113281 C 257.488281 10.949219 257.414063 10.710938 257.414063 10.394531 Z M 257.453125 15.152344 C 257.449219 14.925781 257.535156 14.726563 257.707031 14.550781 C 257.878906 14.382813 258.074219 14.296875 258.300781 14.292969 C 258.511719 14.296875 258.695313 14.375 258.851563 14.535156 C 259.003906 14.699219 259.082031 14.902344 259.085938 15.144531 C 259.082031 15.390625 259.003906 15.597656 258.84375 15.761719 C 258.683594 15.929688 258.492188 16.011719 258.269531 16.011719 C 258.007813 16.011719 257.804688 15.914063 257.664063 15.71875 C 257.519531 15.523438 257.449219 15.335938 257.453125 15.152344 Z M 260 15.800781 "
       id="path83" />
    <path
       style=" stroke:none;fill-rule:nonzero;fill:rgb(0%,0%,0%);fill-opacity:1;"
       d="M 273.003906 7.800781 C 272.984375 7.433594 272.90625 6.992188 272.773438 6.484375 C 272.636719 5.976563 272.417969 5.53125 272.113281 5.140625 C 271.804688 4.753906 271.378906 4.546875 270.84375 4.523438 C 270.277344 4.539063 269.738281 4.792969 269.226563 5.285156 C 268.710938 5.78125 268.257813 6.429688 267.863281 7.234375 C 267.46875 8.042969 267.171875 8.925781 266.96875 9.875 C 266.765625 10.828125 266.695313 11.765625 266.761719 12.695313 C 266.792969 13.210938 266.886719 13.71875 267.042969 14.21875 C 267.195313 14.71875 267.425781 15.132813 267.734375 15.460938 C 268.039063 15.789063 268.433594 15.960938 268.921875 15.976563 C 269.488281 15.960938 270.03125 15.703125 270.546875 15.203125 C 271.058594 14.703125 271.511719 14.046875 271.90625 13.230469 C 272.292969 12.421875 272.589844 11.542969 272.792969 10.589844 C 272.992188 9.644531 273.0625 8.714844 273.003906 7.800781 Z M 271.59375 9.992188 L 268.246094 9.992188 C 268.339844 9.476563 268.457031 8.917969 268.605469 8.316406 C 268.746094 7.722656 268.957031 7.132813 269.238281 6.550781 C 269.414063 6.140625 269.636719 5.761719 269.90625 5.417969 C 270.171875 5.074219 270.488281 4.894531 270.847656 4.871094 C 271.226563 4.898438 271.484375 5.105469 271.628906 5.5 C 271.765625 5.894531 271.851563 6.332031 271.882813 6.808594 C 271.910156 7.1875 271.902344 7.617188 271.859375 8.101563 C 271.816406 8.585938 271.726563 9.21875 271.59375 9.992188 Z M 271.484375 10.503906 C 271.429688 10.890625 271.335938 11.382813 271.199219 11.972656 C 271.0625 12.570313 270.863281 13.164063 270.609375 13.753906 C 270.367188 14.3125 270.105469 14.757813 269.824219 15.097656 C 269.539063 15.441406 269.226563 15.617188 268.886719 15.625 C 268.617188 15.640625 268.398438 15.503906 268.226563 15.210938 C 268.050781 14.921875 267.9375 14.410156 267.886719 13.671875 C 267.851563 13.347656 267.851563 12.929688 267.890625 12.425781 C 267.921875 11.921875 268.011719 11.28125 268.15625 10.503906 Z M 272.808594 15.800781 "
       id="path85" />
    <path
       style="fill:#000000;fill-opacity:1;fill-rule:nonzero;stroke:none"
       d="m 278.24609,10.113281 h 0.36328 c -0.008,0.164063 -0.008,0.261719 -0.008,0.289063 l 0.0156,1.148437 -0.0391,1.03125 0.0312,1.148438 v 0.90625 l 0.008,1.234375 c -0.004,0.195312 -0.008,0.488281 -0.008,0.875 l 0.16407,0.0078 h 0.55078 l 0.53125,0.0078 0.43359,-0.01563 c 0.008,0.164062 0.0117,0.285156 0.0156,0.359375 -0.004,0.08203 -0.008,0.199219 -0.0156,0.359375 -0.32031,0.01563 -0.49609,0.02344 -0.51953,0.02344 l -0.39062,-0.0078 h -0.3125 c -0.0859,0.0039 -0.23829,-0.0039 -0.45704,-0.01563 -0.0156,0.742187 -0.0156,1.722656 0,2.945312 -0.0351,0.02734 -0.0664,0.04687 -0.10156,0.0625 l -0.48828,0.01563 c -0.10547,0 -0.26562,-0.0078 -0.48047,-0.01563 0.008,-0.617187 0.0117,-1.054687 0.0156,-1.320312 -0.004,-0.234375 -0.008,-0.445313 -0.0156,-0.640625 -0.0195,-0.351563 -0.0273,-0.554688 -0.0234,-0.609375 -0.004,-0.08984 0.004,-0.238281 0.0234,-0.4375 -0.22265,0.02734 -0.39062,0.04297 -0.50781,0.03906 -0.0625,0.0039 -0.13281,0 -0.21094,-0.0078 -0.53125,-0.02344 -0.83203,-0.03516 -0.89453,-0.03906 -0.0703,0.0039 -0.23437,0.01953 -0.5,0.05469 l -0.80469,-0.04687 -0.43359,0.02344 -0.29688,-0.04687 -0.375,0.07813 -0.0703,-0.05469 c -0.0117,-0.109375 -0.0195,-0.191406 -0.0156,-0.253906 -0.004,-0.05469 0.004,-0.140625 0.0156,-0.257813 0.14453,-0.1875 0.41016,-0.578125 0.80469,-1.171875 l 1.52344,-2.210937 c 0.37109,-0.554688 0.6875,-0.996094 0.94531,-1.328125 0.25391,-0.328125 0.50781,-0.683594 0.75781,-1.0625 0.25,-0.375 0.50391,-0.730469 0.76953,-1.066407 z m -0.70703,6.640625 0.004,-1.28125 -0.004,-1.015625 V 11.84375 c -0.42969,0.5625 -1.02344,1.410156 -1.77734,2.546875 -0.875,1.300781 -1.39063,2.085938 -1.54688,2.355469 0.22657,-0.0078 0.39844,-0.01172 0.51563,-0.01563 l 2.13672,0.03906 c 0.15625,0.0039 0.3789,0 0.67187,-0.01563 z M 280.5,20.300781"
       id="path87"
       inkscape:connector-curvature="0" />
  </g>
</svg>
